<?xml version="1.0" encoding="utf-8"?>
<!-- Generator: Adobe Illustrator 27.2.0, SVG Export Plug-In . SVG Version: 6.00 Build 0)  -->
<svg version="1.1" id="圖層_1" xmlns="http://www.w3.org/2000/svg" xmlns:xlink="http://www.w3.org/1999/xlink" x="0px" y="0px"
	 viewBox="0 0 114 108" style="enable-background:new 0 0 114 108;" xml:space="preserve">
<style type="text/css">
	.st0{fill:#D80C18;}
</style>
<path class="st0" d="M111,107.3H53.7c-29.2,0-53-24-53-53.5s23.8-53.5,53-53.5c29.2,0,53,24,53,53.5c0,6.4-1.1,12.7-3.3,18.7
	c-0.1,0.3-0.5,0.5-0.8,0.4c-0.3-0.1-0.5-0.5-0.4-0.8c2.2-5.8,3.3-12,3.3-18.3c0-28.8-23.2-52.3-51.8-52.3S1.9,25,1.9,53.8
	s23.2,52.3,51.8,52.3h55.9l-2.6-2.6c-0.2-0.2-0.2-0.6,0-0.8c0.2-0.2,0.6-0.2,0.8,0l3.6,3.6c0.2,0.2,0.2,0.4,0.1,0.6
	C111.5,107.2,111.2,107.3,111,107.3z"/>
</svg>
