<svg width="378" height="118" viewBox="0 0 378 118" fill="none" xmlns="http://www.w3.org/2000/svg">
<g clip-path="url(#clip0_922_889)">
<path d="M76.49 4.85C78.73 11.34 69.69 13.45 65.51 15.16C64.07 15.75 62.63 16.35 61.21 17.01C60.24 17.46 59.35 18.08 58.35 18.48C57.41 18.86 56.37 18.99 55.38 19.21C53.15 19.7 50.93 20.26 48.73 20.85C44.31 22.04 39.93 23.39 35.52 24.66C33.01 25.38 30.49 26.07 27.95 26.7C25.27 27.36 22.55 26.64 20.22 25.27C18.06 24 17.92 21.98 16.93 19.89C16.43 18.84 16.51 17.69 17.47 16.87C17.72 16.65 18.83 16.71 19.19 16.67C19.77 16.59 20.35 16.5 20.93 16.41C22.07 16.22 23.21 16.02 24.35 15.84C25.49 15.67 26.63 15.53 27.79 15.45C29.05 15.37 30.1 15.67 31.21 14.93C32.39 14.14 33.53 13.37 34.83 12.78C37.33 11.64 40.02 11.04 42.72 10.61C43.67 10.46 44.61 10.33 45.56 10.21C46.05 10.15 46.6 10.24 47.08 10.1C47.65 9.93 47.81 9.62 48.28 9.26C49.25 8.52 50.57 8.51 51.54 7.77C54.27 5.58 57.91 4.76 60.1 2.03C61.67 0.73 63.67 0.19 65.68 0.0900001C67.79 -0.0199999 69.94 -0.17 71.85 0.87C73.62 1.84 75.79 2.77 76.49 4.85Z" fill="#D80C18"/>
<path d="M151.14 38.49C151.42 37.45 151.67 36.37 151.66 35.29C151.66 34.17 151 33.2 150.92 32.09C150.86 31.2 151.35 30.24 150.31 29.75C148.13 28.2 146.12 30.66 143.94 31.03C142.15 31.92 140.81 33.48 139.31 34.76C138.26 35.65 136.95 36.13 135.82 36.91C134.74 37.65 133.91 38.67 132.86 39.46C130.61 41.14 127.98 42.22 125.64 43.78C123.67 45.1 119.21 44.58 117.03 44.16C113.09 43.4 109.63 41.45 105.96 39.96C104.36 39.31 102.67 38.8 101.21 37.87C99.52 36.79 98.59 34.89 96.9 33.77C95.38 32.76 93.87 31.86 94.31 29.76C95.68 28.3 97.59 28.03 99.41 27.58C105.69 26.39 112.52 27.31 118.62 25.21C122.08 24.3 125.72 23.48 129.09 22.3C129.97 21.99 130.92 21.55 131.86 21.23C132.89 20.89 133.53 20.13 134.48 19.65C136.57 18.6 138.78 19.22 140.89 18.64C143.86 17.83 146.8 16.92 149.73 15.97C151.43 15.42 153.09 14.71 154.84 14.31C156.23 13.99 157.68 14.01 158.91 13.22C161.91 11.29 165.7 12.15 168.87 10.73C171.55 9.52999 174.58 8.34999 177.42 7.63999C178.91 7.26999 180.44 7.07999 181.97 7.28999C184.55 7.62999 187.21 8.26999 189.76 8.80999C191.93 9.26999 194.15 9.58999 196.09 10.73C197.15 11.35 198 12.26 198.53 13.37C198.68 14.79 198.19 16.15 197.58 17.4C197.27 18.04 196.91 18.65 196.57 19.27C195.48 21.25 193.7 21.72 191.63 22.27C189.56 22.83 187.41 23.04 185.3 22.55C184.18 22.29 183.04 21.74 182.14 21.02C178.52 18.71 174.1 19.36 170.17 20.37C169.63 20.51 169.09 20.66 168.56 20.85C167.98 21.05 167.46 21.13 166.98 21.52C166.53 21.88 166.06 22.17 165.55 22.44C164.23 23.14 163.1 23.75 163.11 25.37C163.12 27.29 162.79 29.5 163.56 31.31C165.29 34.95 163.01 38.59 164.65 42.23C165.38 47.15 166.83 54.06 166.65 59.71C166.65 67.54 167.29 77.28 168.56 84.83C168.85 86.57 169.4 88.27 169.81 89.99C170.07 91.06 170.13 92.17 170.39 93.25C170.94 95.56 171.48 97.25 171.38 99.67C171.27 102.42 170.94 105.16 170.55 107.89C170.12 110.89 169.19 113.83 166.2 115.16C163.27 118.37 158.07 117.76 154.36 116.53C152.76 116 150.77 113.72 149.95 112.27C149.46 111.39 149.53 110.32 149.3 109.35C148.72 106.84 147.69 104.47 148.53 101.88C150.35 80.94 152.17 61.1 151.08 40.25" fill="#D80C18"/>
<path d="M49.36 29.61C51.18 31.61 52 33.98 53.09 36.35C54.03 37.37 55.2 37.32 56.41 36.86C57.46 36.47 58.6 36.3 59.5 35.58C60.4 34.86 61.11 33.92 61.96 33.16C63.8 31.52 65.76 29.99 68.13 29.21C69.54 28.75 70.99 28.56 72.47 28.7C74.84 29.61 77.84 29.52 79.03 31.98C80.12 33.53 79.85 35.35 79.3 36.99C77.21 41.27 72.02 42.82 68.38 45.55C65.46 47.1 61.55 48.19 60.09 51.47C60 56.66 64.19 60.84 67.46 63.85C72.47 69.04 77.11 76.96 83.85 80.05C85.84 80.96 87.49 82.83 89.16 84.2C90.07 84.95 91.02 85.66 92.04 86.26C93.18 86.92 94.43 87.17 95.54 87.92C96.65 88.67 98.07 89.02 98.96 90.07C99.32 90.49 99.92 90.58 100.38 90.82C101.36 91.34 102.02 92.4 103.16 92.63C103.79 92.76 104.35 92.62 104.95 92.89C105.55 93.16 106.09 93.66 106.63 94.02C109.16 95.68 111.77 97.25 114.62 98.3C115.72 98.7 116.92 98.76 118.02 99.18C119.07 99.58 119.76 100.42 120.66 101.05C122.21 102.14 124.31 103.11 125.05 104.99C125.53 106.21 124.9 108.05 124.11 109.01C122.99 110.38 120.93 110.73 119.28 110.99C117.61 111.25 115.89 112.03 114.21 112.21C113.29 112.31 112.33 112.3 111.41 112.37C109.41 112.52 107.42 112.73 105.43 112.93C101.4 113.34 97.36 113.76 93.31 113.69C91.1 113.65 88.5 113.99 86.5 112.84C83.77 111.27 81.29 108.91 78.79 107C75.5 104.49 73.26 101.02 70.9 97.62C68.44 94.08 66.08 90.46 63.6 86.93C61.6 84.08 59.6 80.79 56.87 78.56C55.91 77.77 55.27 76.67 54.32 75.85C53.49 75.14 52.76 74.37 52.04 73.56C50.57 71.92 49.02 70.43 46.71 70.23C45.85 71.52 45.25 72.98 44.91 74.49C44.68 75.51 44.73 76.57 44.55 77.6C44.4 78.46 44.08 79.28 43.93 80.14C43.59 82 43.56 84.01 42.62 85.69C42.05 86.71 41.73 87.55 41.45 88.7C41.18 89.83 40.62 91.04 40.17 92.12C39.92 92.73 39.52 93.26 39.24 93.86C38.74 94.96 38.48 96.12 37.91 97.21C37.27 98.42 36.57 99.61 35.81 100.74C34.28 103.03 32.52 105.16 30.61 107.14C29.54 108.25 28.42 109.32 27.25 110.34C26.34 111.14 25.57 112.04 24.51 112.66C23.44 113.29 22.23 113.54 21.05 113.91C18.55 114.7 16.29 115.82 13.61 115.95C12.03 116.02 10.48 115.58 9.09999 114.82C8.50999 114.5 7.46999 114.55 6.79999 114.29C6.00999 113.99 5.23999 113.58 4.56999 113.08C3.79999 112.51 3.02999 111.88 2.45999 111.11C2.14999 110.68 1.87999 110.22 1.79999 109.69C1.63999 108.59 1.83999 108.21 1.13999 107.28C0.239994 106.08 0.729994 105.28 0.459994 103.98C0.329994 103.36 0.0299943 102.76 -0.0200057 102.13C-0.110006 101.08 0.779994 100.27 1.34999 99.49C1.98999 98.63 2.54999 97.7 3.61999 97.34C4.83999 96.93 6.55999 96.97 7.80999 97.23C8.51999 97.37 9.19999 97.63 9.81999 98.01C10.82 98.63 11.26 99.55 12.52 98.82C13.46 98.27 14.02 97.26 14.83 96.56C15.45 96.03 15.69 95.14 16.3 94.55C16.98 93.88 17.63 93.18 18.21 92.42C19.4 90.86 20.3 89.1 20.92 87.24C24.2 83.78 24.56 78.87 23.29 74.13C19.92 73.86 16.37 75.59 12.82 74.4C10.45 72.67 6.98999 71.76 5.80999 69.12C4.16999 67.39 2.80999 65.21 2.52999 62.75C3.52999 60.02 7.35999 60.84 9.53999 60.39C11.54 59.57 13.91 59.39 15.91 58.39C17.04 57.83 18.37 57.65 19.52 57.02C20.66 56.4 21.72 55.66 22.8 54.95C23.88 54.24 24.97 53.54 26.14 53.01C27.39 52.44 28.79 52.26 30.01 51.6C31.06 51.03 32.03 50.23 32.95 49.47C34.86 47.89 36.34 45.66 36.02 43.08C35.91 42.21 35.5 41.42 35.5 40.48C35.5 39.54 35.69 38.62 35.88 37.71C36.07 36.8 36.29 35.88 36.4 34.95C36.56 33.55 36.2 32.62 37.04 31.37C37.78 30.27 38.88 29.36 40.12 28.87C41.12 28.48 42.37 28.69 43.41 28.69C44.26 28.69 45.33 28.1 46.16 28.34C46.66 28.48 47.01 28.93 47.57 29.07C48.17 29.22 48.81 29.19 49.32 29.6" fill="#D80C18"/>
<path d="M238.02 75.01L237.72 75.05C237.49 74.29 237.04 73.71 236.36 73.29C235.68 72.87 234.84 72.66 233.82 72.66C232.29 72.66 231.1 73.2 230.25 74.27C229.4 75.34 228.97 76.85 228.97 78.79C228.97 80.88 229.4 82.48 230.27 83.58C231.14 84.68 232.4 85.23 234.06 85.23C234.77 85.23 235.49 85.09 236.22 84.81C236.94 84.53 237.6 84.15 238.19 83.65L238.45 83.71L237.96 85.5C237.28 85.83 236.57 86.08 235.84 86.24C235.1 86.4 234.32 86.48 233.51 86.48C231.02 86.48 229.09 85.81 227.7 84.47C226.31 83.13 225.62 81.27 225.62 78.87C225.62 76.6 226.37 74.78 227.86 73.42C229.35 72.06 231.35 71.37 233.85 71.37C234.64 71.37 235.42 71.46 236.2 71.63C236.98 71.8 237.77 72.07 238.58 72.43C238.46 72.82 238.34 73.23 238.25 73.65C238.16 74.08 238.08 74.53 238.03 75.01H238.02Z" fill="#D80C18"/>
<path d="M239.5 81.12C239.5 79.42 239.97 78.1 240.91 77.16C241.85 76.22 243.16 75.75 244.84 75.75C246.52 75.75 247.86 76.22 248.78 77.15C249.7 78.08 250.16 79.41 250.16 81.12C250.16 82.83 249.69 84.11 248.75 85.05C247.81 85.99 246.5 86.46 244.82 86.46C243.14 86.46 241.82 85.99 240.9 85.06C239.97 84.12 239.51 82.81 239.51 81.12H239.5ZM242.63 81.12C242.63 82.73 242.8 83.87 243.13 84.53C243.47 85.19 244.03 85.52 244.82 85.52C245.61 85.52 246.18 85.19 246.52 84.53C246.86 83.87 247.03 82.74 247.03 81.13C247.03 79.52 246.86 78.38 246.52 77.71C246.18 77.04 245.61 76.71 244.82 76.71C244.03 76.71 243.47 77.04 243.13 77.7C242.8 78.36 242.63 79.51 242.63 81.13V81.12Z" fill="#D80C18"/>
<path d="M252.04 86.2C252.08 85.07 252.11 84.07 252.13 83.21C252.15 82.35 252.16 81.65 252.16 81.1C252.16 80.55 252.16 79.85 252.13 79.01C252.11 78.17 252.08 77.18 252.04 76.03C252.27 76.06 252.5 76.08 252.75 76.09C252.99 76.1 253.25 76.11 253.53 76.11C253.82 76.11 254.09 76.11 254.32 76.09C254.56 76.08 254.79 76.06 255 76.03V77.43C255.44 76.86 255.91 76.45 256.41 76.19C256.91 75.93 257.48 75.8 258.13 75.8C258.84 75.8 259.45 75.97 259.96 76.3C260.46 76.64 260.84 77.13 261.08 77.77C261.5 77.1 261.98 76.6 262.53 76.28C263.08 75.96 263.73 75.8 264.46 75.8C264.97 75.8 265.44 75.89 265.85 76.06C266.26 76.23 266.61 76.48 266.91 76.82C267.2 77.15 267.4 77.59 267.52 78.12C267.64 78.65 267.7 79.62 267.7 81.01V82.33C267.7 82.93 267.7 83.54 267.73 84.19C267.75 84.83 267.77 85.5 267.81 86.21C267.5 86.18 267.21 86.15 266.95 86.13C266.69 86.11 266.44 86.1 266.2 86.1C265.96 86.1 265.71 86.1 265.46 86.13C265.21 86.15 264.94 86.17 264.65 86.21C264.71 85.28 264.76 84.42 264.79 83.63C264.82 82.84 264.84 82.1 264.84 81.42C264.84 79.83 264.72 78.8 264.47 78.31C264.22 77.82 263.78 77.58 263.14 77.58C262.5 77.58 262.06 77.82 261.79 78.31C261.52 78.8 261.39 79.67 261.39 80.91V84.28C261.39 84.61 261.41 85.18 261.46 86C261.46 86.1 261.46 86.17 261.46 86.21C261.16 86.18 260.88 86.15 260.62 86.13C260.36 86.11 260.11 86.1 259.87 86.1C259.63 86.1 259.38 86.1 259.13 86.13C258.88 86.15 258.6 86.17 258.29 86.2C258.34 85.4 258.38 84.63 258.41 83.89C258.44 83.15 258.45 82.44 258.45 81.78C258.45 79.92 258.33 78.76 258.09 78.28C257.85 77.81 257.4 77.57 256.76 77.57C256.12 77.57 255.69 77.81 255.43 78.3C255.17 78.78 255.04 79.65 255.04 80.91V84.28C255.04 84.61 255.06 85.19 255.11 86.02C255.11 86.11 255.11 86.18 255.11 86.22C254.85 86.19 254.59 86.16 254.34 86.14C254.09 86.12 253.84 86.11 253.59 86.11C253.36 86.11 253.12 86.11 252.87 86.14C252.62 86.16 252.34 86.18 252.04 86.22V86.2Z" fill="#D80C18"/>
<path d="M270.5 86.2C270.54 85.07 270.57 84.07 270.59 83.21C270.61 82.35 270.62 81.65 270.62 81.1C270.62 80.55 270.62 79.85 270.59 79.01C270.57 78.17 270.54 77.18 270.5 76.03C270.73 76.06 270.96 76.08 271.21 76.09C271.45 76.1 271.71 76.11 271.99 76.11C272.28 76.11 272.55 76.11 272.78 76.09C273.02 76.08 273.25 76.06 273.46 76.03V77.43C273.9 76.86 274.37 76.45 274.87 76.19C275.37 75.93 275.94 75.8 276.59 75.8C277.3 75.8 277.91 75.97 278.42 76.3C278.92 76.64 279.3 77.13 279.54 77.77C279.96 77.1 280.44 76.6 280.99 76.28C281.54 75.96 282.19 75.8 282.92 75.8C283.43 75.8 283.9 75.89 284.31 76.06C284.72 76.23 285.07 76.48 285.37 76.82C285.66 77.15 285.86 77.59 285.98 78.12C286.1 78.65 286.16 79.62 286.16 81.01V82.33C286.16 82.93 286.16 83.54 286.19 84.19C286.21 84.83 286.23 85.5 286.27 86.21C285.96 86.18 285.67 86.15 285.41 86.13C285.15 86.11 284.9 86.1 284.66 86.1C284.42 86.1 284.17 86.1 283.92 86.13C283.67 86.15 283.4 86.17 283.11 86.21C283.17 85.28 283.22 84.42 283.25 83.63C283.28 82.84 283.3 82.1 283.3 81.42C283.3 79.83 283.18 78.8 282.93 78.31C282.68 77.82 282.24 77.58 281.6 77.58C280.96 77.58 280.52 77.82 280.25 78.31C279.98 78.8 279.85 79.67 279.85 80.91V84.28C279.85 84.61 279.87 85.18 279.92 86C279.92 86.1 279.92 86.17 279.92 86.21C279.62 86.18 279.34 86.15 279.08 86.13C278.82 86.11 278.57 86.1 278.33 86.1C278.09 86.1 277.84 86.1 277.59 86.13C277.34 86.15 277.06 86.17 276.75 86.2C276.8 85.4 276.84 84.63 276.87 83.89C276.9 83.15 276.91 82.44 276.91 81.78C276.91 79.92 276.79 78.76 276.55 78.28C276.31 77.81 275.86 77.57 275.22 77.57C274.58 77.57 274.15 77.81 273.89 78.3C273.63 78.78 273.5 79.65 273.5 80.91V84.28C273.5 84.61 273.52 85.19 273.57 86.02C273.57 86.11 273.57 86.18 273.57 86.22C273.31 86.19 273.05 86.16 272.8 86.14C272.55 86.12 272.3 86.11 272.05 86.11C271.82 86.11 271.58 86.11 271.33 86.14C271.08 86.16 270.8 86.18 270.5 86.22V86.2Z" fill="#D80C18"/>
<path d="M288.24 81.12C288.24 79.42 288.71 78.1 289.65 77.16C290.59 76.22 291.9 75.75 293.58 75.75C295.26 75.75 296.6 76.22 297.52 77.15C298.44 78.08 298.9 79.41 298.9 81.12C298.9 82.83 298.43 84.11 297.49 85.05C296.55 85.99 295.24 86.46 293.56 86.46C291.88 86.46 290.56 85.99 289.63 85.06C288.7 84.12 288.24 82.81 288.24 81.12ZM291.37 81.12C291.37 82.73 291.54 83.87 291.87 84.53C292.21 85.19 292.77 85.52 293.56 85.52C294.35 85.52 294.92 85.19 295.26 84.53C295.6 83.87 295.77 82.74 295.77 81.13C295.77 79.52 295.6 78.38 295.26 77.71C294.92 77.04 294.35 76.71 293.56 76.71C292.77 76.71 292.21 77.04 291.87 77.7C291.54 78.36 291.37 79.51 291.37 81.13V81.12Z" fill="#D80C18"/>
<path d="M300.78 86.2C300.84 85.26 300.88 84.37 300.9 83.54C300.93 82.7 300.94 81.9 300.94 81.13C300.94 80.27 300.93 79.41 300.9 78.56C300.87 77.71 300.83 76.87 300.78 76.03C301 76.06 301.23 76.08 301.47 76.09C301.71 76.1 301.97 76.11 302.24 76.11C302.51 76.11 302.77 76.11 303 76.09C303.23 76.08 303.45 76.06 303.66 76.03V77.5C304.09 76.93 304.58 76.5 305.12 76.22C305.66 75.94 306.27 75.8 306.94 75.8C307.46 75.8 307.93 75.89 308.36 76.06C308.79 76.24 309.15 76.5 309.45 76.83C309.69 77.11 309.85 77.45 309.96 77.85C310.06 78.25 310.11 78.95 310.11 79.93C310.11 80.07 310.11 80.43 310.11 81.03C310.11 81.62 310.1 82.14 310.1 82.59C310.1 83.25 310.11 83.88 310.14 84.47C310.16 85.06 310.2 85.63 310.25 86.18C309.95 86.15 309.67 86.12 309.41 86.1C309.15 86.08 308.9 86.07 308.66 86.07C308.42 86.07 308.17 86.07 307.92 86.1C307.67 86.12 307.39 86.14 307.09 86.18C307.14 85.58 307.18 84.86 307.21 84.02C307.24 83.18 307.26 82.25 307.26 81.23C307.26 79.69 307.14 78.69 306.89 78.24C306.65 77.79 306.2 77.57 305.56 77.57C304.92 77.57 304.45 77.84 304.17 78.37C303.89 78.9 303.75 79.8 303.75 81.07C303.75 81.67 303.76 82.39 303.78 83.24C303.8 84.09 303.83 85.07 303.86 86.18C303.6 86.15 303.34 86.12 303.08 86.1C302.82 86.08 302.57 86.07 302.33 86.07C302.09 86.07 301.85 86.07 301.59 86.1C301.33 86.12 301.06 86.14 300.78 86.18V86.2Z" fill="#D80C18"/>
<path d="M316.02 86.2C315.41 83.87 314.74 81.49 314 79.07C313.26 76.65 312.46 74.18 311.59 71.67C311.86 71.7 312.14 71.72 312.44 71.73C312.73 71.74 313.05 71.75 313.4 71.75C313.75 71.75 314.05 71.75 314.34 71.73C314.63 71.72 314.91 71.7 315.18 71.67C315.59 73.45 316.03 75.23 316.51 77C316.99 78.77 317.5 80.54 318.04 82.29C318.71 80.36 319.35 78.52 319.94 76.78C320.54 75.04 321.11 73.34 321.65 71.67C321.82 71.7 321.98 71.72 322.16 71.73C322.33 71.74 322.51 71.75 322.72 71.75C322.93 71.75 323.12 71.75 323.29 71.73C323.47 71.72 323.64 71.7 323.8 71.67C324.3 73.35 324.83 75.07 325.4 76.81C325.97 78.55 326.58 80.33 327.21 82.14C327.81 80.44 328.36 78.71 328.88 76.97C329.39 75.23 329.88 73.46 330.32 71.67C330.47 71.7 330.62 71.72 330.78 71.73C330.94 71.74 331.11 71.75 331.3 71.75C331.49 71.75 331.66 71.75 331.81 71.73C331.96 71.72 332.11 71.7 332.26 71.67C331.5 73.82 330.73 76.11 329.93 78.52C329.13 80.94 328.3 83.5 327.44 86.2C327.24 86.17 327.06 86.14 326.87 86.12C326.69 86.1 326.51 86.09 326.33 86.09C326.17 86.09 326 86.09 325.82 86.12C325.64 86.14 325.44 86.16 325.23 86.2C324.74 84.56 324.21 82.88 323.64 81.17C323.07 79.46 322.46 77.7 321.8 75.9C321.16 77.52 320.54 79.19 319.94 80.91C319.33 82.63 318.74 84.39 318.16 86.2C317.97 86.17 317.78 86.14 317.6 86.12C317.42 86.1 317.25 86.09 317.08 86.09C316.91 86.09 316.74 86.09 316.57 86.12C316.39 86.14 316.21 86.16 316 86.2H316.02Z" fill="#D80C18"/>
<path d="M335.84 81.14C335.84 82.37 336.13 83.34 336.72 84.06C337.31 84.78 338.09 85.14 339.08 85.14C339.57 85.14 340.04 85.06 340.49 84.89C340.94 84.72 341.38 84.47 341.8 84.13L342.01 84.29L341.54 85.5C341.09 85.81 340.57 86.05 339.97 86.22C339.37 86.39 338.72 86.47 338.02 86.47C336.36 86.47 335.07 85.98 334.13 85C333.19 84.02 332.72 82.67 332.72 80.95C332.72 79.4 333.19 78.14 334.12 77.19C335.06 76.23 336.29 75.76 337.83 75.76C339.37 75.76 340.41 76.17 341.19 76.98C341.97 77.79 342.36 78.95 342.36 80.47C342.36 80.65 342.36 80.79 342.36 80.89C342.36 80.99 342.36 81.07 342.34 81.15H335.83L335.84 81.14ZM335.84 80.1H339.44C339.44 80.02 339.44 79.93 339.45 79.81C339.45 79.7 339.46 79.62 339.46 79.59C339.46 78.63 339.32 77.9 339.04 77.41C338.76 76.92 338.35 76.67 337.8 76.67C337.18 76.67 336.69 76.95 336.35 77.51C336.01 78.07 335.84 78.87 335.84 79.91V80.1Z" fill="#D80C18"/>
<path d="M349.42 84.86C349.11 85.37 348.71 85.77 348.22 86.04C347.72 86.32 347.16 86.46 346.54 86.46C345.65 86.46 344.94 86.2 344.44 85.66C343.93 85.13 343.68 84.41 343.68 83.49C343.68 82.82 343.86 82.26 344.22 81.83C344.58 81.39 345.15 81.05 345.91 80.79C346.16 80.71 346.52 80.59 346.99 80.45C348.1 80.12 348.86 79.81 349.27 79.54C349.27 79.5 349.28 79.45 349.29 79.4C349.29 79.35 349.29 79.27 349.29 79.18C349.29 78.54 349.11 78.02 348.74 77.64C348.37 77.26 347.89 77.07 347.28 77.07C346.8 77.07 346.37 77.2 345.98 77.48C345.59 77.75 345.23 78.16 344.89 78.72C344.79 78.39 344.7 78.12 344.63 77.92C344.56 77.72 344.49 77.53 344.42 77.36C345.05 76.81 345.67 76.41 346.29 76.14C346.91 75.87 347.55 75.74 348.21 75.74C349.48 75.74 350.46 76.03 351.14 76.62C351.82 77.21 352.17 78.05 352.17 79.14V79.24L352.11 82.95V83.36C352.11 84.23 352.21 84.78 352.4 85.03C352.59 85.28 352.96 85.4 353.52 85.4H353.58V85.93C353.22 86.08 352.85 86.2 352.46 86.28C352.07 86.36 351.7 86.4 351.35 86.4C350.84 86.4 350.42 86.27 350.09 86.01C349.76 85.75 349.55 85.37 349.44 84.87L349.42 84.86ZM349.33 80.6C348.35 80.8 347.64 81.11 347.2 81.51C346.77 81.92 346.55 82.49 346.55 83.21C346.55 83.82 346.66 84.28 346.88 84.58C347.1 84.88 347.43 85.04 347.87 85.04C348.34 85.04 348.7 84.87 348.96 84.53C349.21 84.19 349.34 83.7 349.34 83.06V80.59L349.33 80.6Z" fill="#D80C18"/>
<path d="M355.01 86.2C355.06 85 355.1 83.75 355.13 82.45C355.16 81.15 355.17 79.75 355.17 78.26C355.17 76.68 355.15 75.24 355.13 73.93C355.1 72.62 355.06 71.39 355.01 70.24C355.35 70.3 355.64 70.33 355.88 70.35C356.12 70.37 356.36 70.38 356.59 70.38C356.82 70.38 357.06 70.37 357.31 70.34C357.57 70.32 357.85 70.28 358.17 70.23C358.11 71.43 358.07 72.68 358.05 73.98C358.02 75.28 358.01 76.68 358.01 78.17C358.01 79.75 358.02 81.19 358.05 82.5C358.08 83.81 358.12 85.04 358.17 86.19C357.93 86.14 357.69 86.11 357.42 86.08C357.16 86.06 356.88 86.04 356.6 86.04C356.32 86.04 356.04 86.05 355.78 86.08C355.52 86.1 355.26 86.14 355 86.19L355.01 86.2Z" fill="#D80C18"/>
<path d="M361.1 77.21H360.71C360.43 77.21 360.21 77.21 360.06 77.21C359.91 77.21 359.78 77.21 359.65 77.22C359.66 77.14 359.67 77.07 359.68 77C359.68 76.93 359.68 76.82 359.68 76.67C359.68 76.52 359.68 76.4 359.67 76.32C359.67 76.24 359.66 76.17 359.65 76.11C359.68 76.11 359.72 76.12 359.77 76.13C360.27 76.18 360.63 76.2 360.85 76.2H361.09C361.09 76.09 361.1 75.99 361.11 75.88C361.11 75.77 361.11 75.6 361.11 75.37C361.11 75.09 361.11 74.8 361.09 74.49C361.08 74.18 361.06 73.79 361.03 73.33C361.52 73.14 362.01 72.95 362.48 72.74C362.96 72.53 363.42 72.32 363.87 72.1L364.1 72.28C364.06 73.09 364.03 73.77 364.01 74.31C363.99 74.85 363.98 75.27 363.98 75.55V76.22C364.37 76.22 364.73 76.22 365.07 76.2C365.41 76.19 365.73 76.17 366.05 76.14C366.03 76.3 366.02 76.41 366.01 76.48C366.01 76.55 366.01 76.62 366.01 76.69C366.01 76.81 366.01 76.97 366.04 77.18C366.05 77.21 366.06 77.23 366.05 77.24C365.88 77.24 365.66 77.23 365.39 77.23C365.12 77.23 364.63 77.23 363.94 77.23C363.94 77.33 363.94 77.5 363.94 77.72C363.89 79.19 363.87 80.23 363.87 80.86V81.71C363.87 83.34 363.95 84.35 364.11 84.73C364.27 85.12 364.58 85.31 365.03 85.31C365.26 85.31 365.67 85.23 366.26 85.08H366.27V85.86C365.8 86.07 365.37 86.22 364.97 86.32C364.57 86.42 364.19 86.47 363.82 86.47C362.91 86.47 362.22 86.23 361.74 85.75C361.26 85.27 361.02 84.57 361.02 83.65C361.02 83.62 361.03 83.01 361.05 81.83C361.08 80.65 361.09 79.49 361.09 78.35V77.22L361.1 77.21Z" fill="#D80C18"/>
<path d="M367.62 86.2C367.68 85.45 367.72 84.53 367.75 83.42C367.77 82.32 367.79 80.72 367.79 78.63C367.79 76.41 367.78 74.69 367.75 73.45C367.72 72.21 367.68 71.14 367.62 70.25C367.91 70.31 368.18 70.35 368.43 70.37C368.68 70.4 368.93 70.41 369.16 70.41C369.41 70.41 369.66 70.4 369.92 70.37C370.18 70.34 370.44 70.3 370.72 70.25C370.65 70.83 370.6 71.46 370.56 72.12C370.52 72.79 370.5 73.5 370.5 74.27V77.57C370.89 76.98 371.36 76.54 371.9 76.25C372.45 75.96 373.07 75.81 373.78 75.81C374.29 75.81 374.76 75.9 375.19 76.07C375.62 76.25 375.98 76.51 376.27 76.84C376.52 77.12 376.69 77.48 376.8 77.9C376.9 78.32 376.95 79 376.95 79.95C376.95 80.09 376.95 80.45 376.94 81.05C376.94 81.64 376.94 82.16 376.94 82.61C376.94 83.39 376.94 84.07 376.97 84.63C376.99 85.2 377.02 85.72 377.06 86.2C376.77 86.17 376.49 86.14 376.23 86.12C375.97 86.1 375.72 86.09 375.49 86.09C375.25 86.09 375 86.09 374.75 86.12C374.5 86.14 374.22 86.16 373.92 86.2C373.97 85.6 374.01 84.88 374.03 84.04C374.06 83.2 374.07 82.27 374.07 81.25C374.07 79.71 373.95 78.71 373.71 78.26C373.47 77.81 373.02 77.59 372.38 77.59C371.74 77.59 371.27 77.86 370.99 78.39C370.71 78.92 370.57 79.82 370.57 81.09C370.57 81.75 370.58 82.52 370.61 83.39C370.63 84.26 370.67 85.19 370.71 86.21C370.43 86.18 370.17 86.15 369.91 86.13C369.65 86.11 369.4 86.1 369.16 86.1C368.92 86.1 368.68 86.1 368.42 86.13C368.16 86.15 367.89 86.17 367.61 86.21L367.62 86.2Z" fill="#D80C18"/>
<path d="M226.03 109.93C226.2 108.84 226.35 107.9 226.48 107.11C226.6 106.33 226.69 105.77 226.73 105.44L228.09 95.39C228.23 95.42 228.37 95.44 228.52 95.45C228.67 95.46 228.83 95.47 229 95.47C229.17 95.47 229.34 95.47 229.49 95.45C229.64 95.44 229.8 95.42 229.94 95.39C230.7 97.09 231.49 98.76 232.32 100.41C233.14 102.06 233.99 103.7 234.86 105.33C235.7 103.76 236.52 102.14 237.33 100.49C238.14 98.84 238.93 97.13 239.71 95.39C239.86 95.42 240.02 95.44 240.18 95.45C240.34 95.46 240.51 95.47 240.69 95.47C240.87 95.47 241.04 95.47 241.2 95.45C241.36 95.44 241.52 95.42 241.66 95.39L242.88 105.56C243.01 106.68 243.13 107.57 243.23 108.21C243.33 108.85 243.44 109.42 243.55 109.92C243.2 109.89 242.88 109.86 242.59 109.85C242.3 109.83 242.02 109.82 241.74 109.82C241.46 109.82 241.19 109.82 240.9 109.85C240.6 109.87 240.3 109.89 239.99 109.93C239.99 109.88 239.98 109.81 239.97 109.71C239.91 108.22 239.86 107.3 239.82 106.95L239.13 100.17C238.33 101.69 237.54 103.26 236.74 104.88C235.94 106.49 235.13 108.18 234.3 109.94C234.25 109.93 234.2 109.92 234.14 109.91C234.08 109.91 233.99 109.9 233.85 109.9C233.73 109.9 233.65 109.9 233.59 109.91C233.53 109.91 233.48 109.93 233.43 109.94C232.61 108.21 231.8 106.56 231.01 104.99C230.22 103.42 229.44 101.93 228.68 100.52L228.17 104.94L228.15 105.11C227.89 107.4 227.76 109.02 227.76 109.95C227.6 109.92 227.45 109.89 227.3 109.87C227.15 109.85 227.02 109.84 226.89 109.84C226.75 109.84 226.61 109.84 226.47 109.87C226.33 109.89 226.18 109.91 226.01 109.95L226.03 109.93Z" fill="#D80C18"/>
<path d="M250.87 108.59C250.56 109.1 250.16 109.5 249.67 109.77C249.17 110.05 248.61 110.19 247.99 110.19C247.1 110.19 246.39 109.93 245.89 109.39C245.38 108.86 245.13 108.14 245.13 107.22C245.13 106.55 245.31 105.99 245.67 105.56C246.03 105.12 246.6 104.78 247.36 104.52C247.61 104.44 247.97 104.32 248.44 104.18C249.55 103.85 250.31 103.54 250.72 103.27C250.72 103.23 250.73 103.18 250.74 103.13C250.74 103.08 250.74 103 250.74 102.91C250.74 102.27 250.56 101.75 250.19 101.37C249.82 100.99 249.34 100.8 248.73 100.8C248.25 100.8 247.82 100.93 247.43 101.21C247.04 101.48 246.68 101.89 246.34 102.45C246.24 102.12 246.15 101.85 246.08 101.65C246.01 101.45 245.94 101.26 245.87 101.09C246.5 100.54 247.12 100.14 247.74 99.87C248.36 99.6 249 99.47 249.66 99.47C250.93 99.47 251.91 99.76 252.59 100.35C253.27 100.94 253.62 101.78 253.62 102.87V102.97L253.56 106.68V107.09C253.56 107.96 253.66 108.51 253.85 108.76C254.04 109.01 254.41 109.13 254.97 109.13H255.03V109.66C254.67 109.81 254.3 109.93 253.91 110.01C253.52 110.09 253.15 110.13 252.8 110.13C252.29 110.13 251.87 110 251.54 109.74C251.21 109.48 251 109.1 250.89 108.6L250.87 108.59ZM250.78 104.33C249.8 104.53 249.09 104.84 248.65 105.24C248.22 105.65 248 106.22 248 106.94C248 107.55 248.11 108.01 248.33 108.31C248.55 108.61 248.88 108.77 249.32 108.77C249.79 108.77 250.15 108.6 250.41 108.26C250.66 107.92 250.79 107.43 250.79 106.79V104.32L250.78 104.33Z" fill="#D80C18"/>
<path d="M257.92 110.42L257.94 110.25C257.51 110.12 257.18 109.91 256.94 109.62C256.7 109.33 256.58 108.98 256.58 108.57C256.58 108.09 256.76 107.65 257.13 107.24C257.5 106.83 258.02 106.48 258.71 106.19V105.93C257.8 105.75 257.12 105.4 256.66 104.9C256.2 104.39 255.97 103.73 255.97 102.91C255.97 101.88 256.37 101.05 257.16 100.42C257.95 99.79 259.02 99.48 260.36 99.48C260.48 99.48 260.96 99.51 261.78 99.57C262.6 99.63 263.36 99.66 264.06 99.66C264.34 99.66 264.64 99.66 264.96 99.65C265.28 99.64 265.62 99.62 265.97 99.6V100.64C265.53 100.62 264.94 100.59 264.19 100.57C264.04 100.57 263.93 100.56 263.87 100.56C264.24 100.8 264.51 101.09 264.7 101.45C264.88 101.81 264.97 102.24 264.97 102.73C264.97 103.83 264.55 104.69 263.71 105.31C262.87 105.93 261.69 106.24 260.18 106.24H259.82C259.54 106.27 259.32 106.38 259.14 106.56C258.97 106.75 258.88 106.98 258.88 107.26C258.88 107.9 259.89 108.26 261.9 108.34H262.01C262.07 108.34 262.16 108.35 262.27 108.36C263.56 108.42 264.4 108.56 264.77 108.77C265.2 109.02 265.53 109.36 265.75 109.79C265.98 110.22 266.09 110.72 266.09 111.29C266.09 112.6 265.55 113.67 264.47 114.51C263.39 115.34 261.99 115.76 260.26 115.76C258.84 115.76 257.73 115.52 256.94 115.03C256.14 114.54 255.75 113.87 255.75 113.02C255.75 112.4 255.93 111.87 256.29 111.45C256.65 111.03 257.19 110.69 257.92 110.44V110.42ZM258.86 110.54C258.51 110.72 258.24 110.98 258.05 111.31C257.86 111.64 257.76 112.02 257.76 112.44C257.76 113.17 258 113.75 258.49 114.19C258.98 114.63 259.64 114.84 260.46 114.84C261.42 114.84 262.18 114.64 262.72 114.25C263.27 113.86 263.54 113.31 263.54 112.61C263.54 111.98 263.36 111.51 263.01 111.2C262.65 110.89 262.09 110.72 261.31 110.68L258.86 110.55V110.54ZM258.86 102.84C258.86 103.71 258.99 104.35 259.24 104.76C259.49 105.17 259.89 105.37 260.44 105.37C260.99 105.37 261.42 105.16 261.67 104.73C261.92 104.3 262.04 103.59 262.04 102.6C262.04 101.83 261.91 101.26 261.66 100.89C261.41 100.52 261.02 100.33 260.5 100.33C259.98 100.33 259.58 100.55 259.29 100.98C259 101.42 258.86 102.04 258.86 102.84Z" fill="#D80C18"/>
<path d="M272.53 108.59C272.22 109.1 271.82 109.5 271.33 109.77C270.83 110.05 270.27 110.19 269.65 110.19C268.76 110.19 268.05 109.93 267.55 109.39C267.04 108.86 266.79 108.14 266.79 107.22C266.79 106.55 266.97 105.99 267.33 105.56C267.69 105.12 268.26 104.78 269.02 104.52C269.27 104.44 269.63 104.32 270.1 104.18C271.21 103.85 271.97 103.54 272.38 103.27C272.38 103.23 272.39 103.18 272.4 103.13C272.4 103.08 272.4 103 272.4 102.91C272.4 102.27 272.22 101.75 271.85 101.37C271.48 100.99 271 100.8 270.39 100.8C269.91 100.8 269.48 100.93 269.09 101.21C268.7 101.48 268.34 101.89 268 102.45C267.9 102.12 267.81 101.85 267.74 101.65C267.67 101.45 267.6 101.26 267.53 101.09C268.16 100.54 268.78 100.14 269.4 99.87C270.02 99.6 270.66 99.47 271.32 99.47C272.59 99.47 273.57 99.76 274.25 100.35C274.93 100.94 275.28 101.78 275.28 102.87V102.97L275.22 106.68V107.09C275.22 107.96 275.32 108.51 275.51 108.76C275.7 109.01 276.07 109.13 276.63 109.13H276.69V109.66C276.33 109.81 275.96 109.93 275.57 110.01C275.18 110.09 274.81 110.13 274.46 110.13C273.95 110.13 273.53 110 273.2 109.74C272.87 109.48 272.66 109.1 272.55 108.6L272.53 108.59ZM272.44 104.33C271.46 104.53 270.75 104.84 270.31 105.24C269.88 105.65 269.66 106.22 269.66 106.94C269.66 107.55 269.77 108.01 269.99 108.31C270.21 108.61 270.54 108.77 270.98 108.77C271.45 108.77 271.81 108.6 272.07 108.26C272.32 107.92 272.45 107.43 272.45 106.79V104.32L272.44 104.33Z" fill="#D80C18"/>
<path d="M276.93 109.93V109.59C277.72 108.39 278.96 106.5 280.64 103.93L282.62 100.9C282.18 100.88 281.83 100.87 281.59 100.86C281.34 100.86 281.11 100.86 280.88 100.86C280.31 100.86 279.4 100.88 278.15 100.93C278.04 100.93 277.96 100.93 277.91 100.94C277.92 100.86 277.93 100.79 277.94 100.71C277.94 100.63 277.95 100.52 277.95 100.36C277.95 100.2 277.95 100.08 277.94 100C277.94 99.92 277.92 99.84 277.91 99.77C278.55 99.8 279.21 99.82 279.91 99.83C280.61 99.84 281.35 99.85 282.14 99.85C282.93 99.85 283.67 99.85 284.35 99.83C285.03 99.82 285.67 99.8 286.28 99.77V100.03C285.78 100.78 285.09 101.84 284.2 103.2C283.31 104.57 282.11 106.42 280.61 108.74C281.12 108.76 281.5 108.77 281.76 108.78C282.01 108.78 282.25 108.78 282.48 108.78C283.12 108.78 283.75 108.77 284.36 108.74C284.97 108.72 285.58 108.68 286.17 108.64C286.15 108.77 286.14 108.89 286.14 108.98C286.14 109.08 286.14 109.16 286.14 109.24C286.14 109.32 286.14 109.4 286.14 109.5C286.14 109.6 286.16 109.74 286.17 109.93C285.55 109.9 284.87 109.87 284.15 109.85C283.43 109.83 282.59 109.82 281.64 109.82C280.69 109.82 279.84 109.82 279.08 109.85C278.32 109.87 277.6 109.89 276.92 109.93H276.93Z" fill="#D80C18"/>
<path d="M288.05 95.92C288.05 95.47 288.2 95.09 288.52 94.78C288.83 94.47 289.22 94.31 289.67 94.31C290.12 94.31 290.49 94.47 290.8 94.78C291.11 95.1 291.26 95.48 291.26 95.92C291.26 96.36 291.1 96.75 290.79 97.06C290.48 97.37 290.1 97.52 289.64 97.52C289.18 97.52 288.81 97.37 288.5 97.06C288.19 96.75 288.04 96.37 288.04 95.92H288.05ZM288.07 109.93C288.12 108.84 288.16 107.9 288.18 107.1C288.2 106.3 288.21 105.55 288.21 104.85C288.21 104.05 288.2 103.23 288.17 102.39C288.14 101.56 288.11 100.68 288.06 99.76C288.3 99.78 288.56 99.8 288.82 99.81C289.08 99.81 289.36 99.82 289.63 99.82C289.9 99.82 290.18 99.82 290.45 99.81C290.72 99.8 290.97 99.78 291.2 99.76C291.15 100.68 291.11 101.56 291.09 102.39C291.06 103.23 291.05 104.04 291.05 104.85C291.05 105.55 291.06 106.3 291.09 107.1C291.11 107.9 291.15 108.85 291.2 109.93C290.93 109.9 290.66 109.87 290.4 109.85C290.14 109.83 289.88 109.82 289.62 109.82C289.36 109.82 289.11 109.82 288.85 109.85C288.59 109.87 288.32 109.89 288.04 109.93H288.07Z" fill="#D80C18"/>
<path d="M293.9 109.93C293.96 108.99 294 108.1 294.02 107.27C294.05 106.43 294.06 105.63 294.06 104.86C294.06 104 294.05 103.14 294.02 102.29C293.99 101.44 293.95 100.6 293.9 99.76C294.12 99.79 294.35 99.81 294.59 99.82C294.83 99.83 295.09 99.84 295.36 99.84C295.63 99.84 295.89 99.84 296.12 99.82C296.35 99.81 296.57 99.79 296.78 99.76V101.23C297.21 100.66 297.7 100.23 298.24 99.95C298.78 99.67 299.39 99.53 300.06 99.53C300.58 99.53 301.05 99.62 301.48 99.79C301.91 99.97 302.27 100.23 302.57 100.56C302.81 100.84 302.97 101.18 303.08 101.58C303.18 101.98 303.23 102.68 303.23 103.66C303.23 103.8 303.23 104.16 303.23 104.76C303.23 105.35 303.22 105.87 303.22 106.32C303.22 106.98 303.23 107.61 303.26 108.2C303.28 108.79 303.32 109.36 303.37 109.91C303.07 109.88 302.79 109.85 302.53 109.83C302.27 109.81 302.02 109.8 301.78 109.8C301.54 109.8 301.29 109.8 301.04 109.83C300.79 109.85 300.51 109.87 300.21 109.91C300.26 109.31 300.3 108.59 300.33 107.75C300.36 106.91 300.38 105.98 300.38 104.96C300.38 103.42 300.26 102.42 300.01 101.97C299.77 101.52 299.32 101.3 298.68 101.3C298.04 101.3 297.57 101.57 297.29 102.1C297.01 102.63 296.87 103.53 296.87 104.8C296.87 105.4 296.88 106.12 296.9 106.97C296.92 107.82 296.95 108.8 296.98 109.91C296.72 109.88 296.46 109.85 296.2 109.83C295.94 109.81 295.69 109.8 295.45 109.8C295.21 109.8 294.97 109.8 294.71 109.83C294.45 109.85 294.18 109.87 293.9 109.91V109.93Z" fill="#D80C18"/>
<path d="M308.42 104.87C308.42 106.1 308.71 107.07 309.3 107.79C309.89 108.51 310.67 108.87 311.66 108.87C312.15 108.87 312.62 108.79 313.07 108.62C313.52 108.45 313.96 108.2 314.38 107.86L314.59 108.02L314.12 109.23C313.67 109.54 313.15 109.78 312.55 109.95C311.95 110.12 311.3 110.2 310.6 110.2C308.94 110.2 307.65 109.71 306.71 108.73C305.77 107.75 305.3 106.4 305.3 104.68C305.3 103.13 305.77 101.87 306.7 100.92C307.64 99.96 308.87 99.49 310.41 99.49C311.95 99.49 312.99 99.9 313.77 100.71C314.55 101.52 314.94 102.68 314.94 104.2C314.94 104.38 314.94 104.52 314.94 104.62C314.94 104.72 314.94 104.8 314.92 104.88H308.41L308.42 104.87ZM308.42 103.83H312.02C312.02 103.75 312.02 103.66 312.03 103.54C312.03 103.43 312.04 103.35 312.04 103.32C312.04 102.36 311.9 101.63 311.62 101.14C311.34 100.65 310.92 100.4 310.38 100.4C309.76 100.4 309.27 100.68 308.93 101.24C308.59 101.8 308.42 102.6 308.42 103.64V103.83Z" fill="#D80C18"/>
<path d="M270.04 50.99V53.29H253.26V57.09H248.87L248.92 30.92C248.22 32.02 247.52 33.12 246.77 34.12L245.37 33.07C245.97 31.82 246.52 30.62 246.97 29.37L244.62 31.52C243.87 29.97 242.97 28.32 241.87 26.78C240.97 28.68 239.82 30.52 238.62 32.17H239.47V36.86H247.76V39.11H239.47V40.91C242.47 42.61 245.31 44.35 247.41 46.35L244.46 49.65C243.06 47.55 240.96 45.06 239.47 43.31V57.39H235.18V44.31C233.28 47.16 229.94 51.05 225.84 54L224.79 52.55C228.39 48.95 231.78 44.56 234.13 39.12H225.89V36.87H235.18V32.18H236.48C238.53 28.48 239.58 23.94 240.13 19.4L244.18 20.4C243.93 21.75 243.43 23.2 242.83 24.74C244.58 25.89 246.18 27.14 247.32 28.48C249.07 23.39 249.67 17.99 250.42 10.7L254.96 11.6C254.66 14.9 254.06 18.09 253.16 21.14H269.39V23.39H262.4V30.08H268.14V32.33H262.4V40.12H268.19V42.37H262.4V51.01H270.04V50.99ZM226.69 34.41L225.34 33.26C227.69 29.46 229.43 24.02 230.33 19.18L234.37 20.13C234.12 21.38 233.57 22.83 232.92 24.37C234.82 25.67 236.47 27.07 237.71 28.52L234.86 31.22C234.06 29.62 233.11 27.92 232.06 26.28C230.56 29.33 228.56 32.42 226.67 34.42L226.69 34.41ZM247.66 18.83H226.14V16.58H237.28C235.48 14.68 233.68 13.13 231.79 11.59L232.49 10.04C235.29 10.84 238.68 12.29 240.78 13.79L238.78 16.59H247.67V18.84L247.66 18.83ZM258.1 23.37H253.26V30.06H258.1V23.37ZM258.1 32.31H253.26V40.1H258.1V32.31ZM258.1 42.35H253.26V50.99H258.1V42.35ZM259.4 20.43C259 18.38 257.85 14.04 256.8 11.24L258.4 10.44C260.45 12.69 262.6 16.58 263.49 18.88L259.39 20.43H259.4Z" fill="#D80C18"/>
<path d="M297.57 21.43H280.94V19.18H288.58C286.93 16.33 285.08 13.24 283.94 11.59L285.19 10.34C287.54 11.89 290.83 14.58 292.88 17.18L290.28 19.18H297.57V21.43ZM282.39 28.22V26.12H296.42V28.22H282.39ZM296.42 35.11H282.39V33.01H296.42V35.11ZM301.31 39.75L303.06 40.1C302.76 45.39 301.61 49.79 299.31 52.83L295.96 50.33V56.37H292.16V53.42H286.42V57.07H282.53V39.94H295.96V49.83C298.51 47.23 300.45 44.24 301.3 39.74L301.31 39.75ZM292.12 42.15H286.43V51.24H292.12V42.15ZM308.9 21.43H298.61V19.18H308.9V10.79H313.39V19.18H323.88V21.43H313.39V30.07H323.23V32.32H299.66V30.07H308.9V21.43ZM317.79 44.65C320.09 52.84 320.49 56.04 312.7 56.04C305.41 56.04 304.41 55.49 304.41 50.1V37.12H308.8V49.3C308.8 51.3 309.25 51.95 312.4 51.95C316 51.95 316.05 51.3 316 44.66H317.8L317.79 44.65ZM308 32.47C310.45 33.52 314.99 36.01 316.89 37.96L313.94 41.31C312.19 39.11 309.05 35.77 307.1 33.92L308 32.47ZM325.68 48.5L321.73 50.45C320.48 46.46 319.18 43.01 317.54 39.61L318.94 38.66C321.74 41.56 324.03 44.9 325.68 48.5Z" fill="#D80C18"/>
<path d="M210.23 56.48C209.16 55.26 208 54.52 207.38 54.19C207.23 54.13 207.09 54.05 206.94 53.97C206.25 53.58 205.6 53.04 204.84 52.85C203.68 52.55 202.45 52.69 201.29 52.45C199.65 52.1 198.02 51.69 196.36 51.44C194.29 51.12 192.15 51.04 190.12 51.64C189.21 51.91 188.12 52.27 187.46 53C186.91 53.6 186.92 54.31 186.75 55.06C186.59 55.76 186.5 56.48 186.49 57.2C186.47 59.88 187.5 62.53 188.83 64.81C189.54 66.03 190.37 67.19 191.29 68.26C192.13 69.25 193.12 70.55 194.21 71.28C195.28 71.99 196.01 72.5 196.68 73.59C197.15 74.36 197.21 74.58 198.11 74.93C199.57 75.49 201.24 75.48 202.79 75.59C204.81 75.74 207 75.77 209 75.41C210.52 75.14 210.81 74.06 212.05 73.34C213.21 72.66 213.8 72.55 214.33 71.27C216.74 65.52 213.77 60.63 210.24 56.49L210.23 56.48Z" fill="#D80C18"/>
</g>
<defs>
<clipPath id="clip0_922_889">
<rect width="377.07" height="117.5" fill="white"/>
</clipPath>
</defs>
</svg>
