<svg width="300" height="111" viewBox="0 0 300 111" fill="none" xmlns="http://www.w3.org/2000/svg">
<g clip-path="url(#clip0_703_450)">
<path d="M299.43 0H0V110.12H299.43V0Z" fill="#D80C18"/>
<path d="M72.6 16.72C74.2 21.35 67.74 22.86 64.76 24.08C63.73 24.5 62.7 24.93 61.69 25.4C61 25.72 60.36 26.17 59.65 26.45C58.98 26.72 58.24 26.81 57.53 26.97C55.94 27.32 54.35 27.72 52.78 28.14C49.62 28.99 46.49 29.95 43.35 30.86C41.56 31.37 39.76 31.87 37.95 32.32C36.04 32.79 34.09 32.28 32.43 31.3C30.89 30.39 30.79 28.95 30.08 27.46C29.72 26.71 29.78 25.89 30.47 25.3C30.65 25.15 31.44 25.19 31.69 25.15C32.1 25.09 32.52 25.03 32.93 24.96C33.74 24.83 34.56 24.68 35.37 24.56C36.18 24.44 37 24.34 37.82 24.28C38.72 24.22 39.47 24.44 40.26 23.91C41.1 23.35 41.91 22.8 42.84 22.37C44.62 21.56 46.55 21.13 48.48 20.82C49.16 20.71 49.83 20.62 50.51 20.53C50.86 20.48 51.25 20.55 51.59 20.45C52 20.33 52.11 20.11 52.44 19.85C53.13 19.32 54.08 19.31 54.76 18.78C56.71 17.22 59.31 16.63 60.87 14.68C61.99 13.76 63.42 13.37 64.85 13.29C66.36 13.21 67.89 13.1 69.25 13.85C70.52 14.55 72.07 15.21 72.56 16.69" fill="white"/>
<path d="M125.9 40.74C126.1 40 126.28 39.23 126.27 38.45C126.27 37.65 125.8 36.95 125.74 36.17C125.7 35.54 126.05 34.85 125.31 34.5C123.75 33.4 122.32 35.15 120.76 35.41C119.48 36.05 118.53 37.16 117.45 38.07C116.7 38.71 115.76 39.05 114.96 39.6C114.19 40.13 113.59 40.86 112.84 41.42C111.23 42.62 109.35 43.39 107.69 44.5C106.28 45.44 103.1 45.07 101.55 44.77C98.73 44.23 96.26 42.83 93.65 41.77C92.51 41.31 91.3 40.94 90.26 40.28C89.06 39.51 88.39 38.16 87.19 37.35C86.11 36.63 85.03 35.99 85.34 34.49C86.32 33.45 87.68 33.26 88.98 32.93C93.46 32.08 98.34 32.73 102.7 31.24C105.17 30.59 107.77 30.01 110.18 29.16C110.81 28.94 111.48 28.62 112.16 28.4C112.89 28.15 113.35 27.61 114.03 27.27C115.53 26.52 117.1 26.96 118.61 26.55C120.73 25.97 122.83 25.32 124.92 24.65C126.14 24.26 127.32 23.75 128.57 23.46C129.56 23.23 130.6 23.25 131.48 22.68C133.62 21.3 136.33 21.91 138.59 20.9C140.5 20.05 142.67 19.2 144.7 18.7C145.76 18.44 146.86 18.3 147.95 18.45C149.79 18.69 151.69 19.15 153.52 19.53C155.07 19.86 156.66 20.09 158.04 20.9C158.8 21.34 159.41 21.99 159.79 22.79C159.89 23.8 159.55 24.77 159.11 25.67C158.89 26.12 158.63 26.56 158.39 27C157.61 28.42 156.34 28.75 154.87 29.14C153.39 29.54 151.86 29.69 150.35 29.34C149.55 29.15 148.74 28.76 148.1 28.24C145.52 26.59 142.36 27.05 139.55 27.78C139.16 27.88 138.78 27.99 138.4 28.12C137.99 28.26 137.61 28.32 137.27 28.6C136.95 28.86 136.61 29.06 136.25 29.26C135.31 29.76 134.5 30.19 134.5 31.35C134.5 32.72 134.27 34.3 134.82 35.59C136.06 38.19 134.43 40.79 135.6 43.39C136.12 46.9 137.16 51.84 137.03 55.87C137.03 61.46 137.48 68.42 138.4 73.81C138.61 75.05 139 76.27 139.29 77.5C139.47 78.27 139.52 79.06 139.7 79.83C140.09 81.48 140.48 82.69 140.41 84.41C140.33 86.38 140.1 88.33 139.82 90.28C139.51 92.42 138.85 94.52 136.71 95.47C134.62 97.76 130.91 97.33 128.26 96.44C127.12 96.06 125.69 94.43 125.11 93.4C124.76 92.77 124.81 92.01 124.65 91.31C124.23 89.52 123.5 87.83 124.1 85.97C125.4 71.02 126.7 56.85 125.92 41.96" fill="white"/>
<path d="M53.22 34.4C54.52 35.83 55.1 37.52 55.89 39.21C56.56 39.94 57.4 39.9 58.26 39.58C59.01 39.3 59.83 39.18 60.46 38.66C61.09 38.14 61.61 37.47 62.22 36.93C63.53 35.76 64.93 34.67 66.63 34.11C67.6399 33.78 68.67 33.65 69.73 33.75C71.42 34.4 73.57 34.34 74.41 36.09C75.19 37.2 74.99 38.5 74.6 39.67C73.11 42.73 69.4 43.83 66.8 45.78C64.72 46.88 61.92 47.66 60.88 50C60.82 53.71 63.81 56.69 66.15 58.84C69.73 62.55 73.04 68.2 77.85 70.41C79.27 71.06 80.45 72.4 81.64 73.37C82.29 73.9 82.97 74.42 83.69 74.84C84.51 75.31 85.4 75.49 86.19 76.02C86.98 76.55 88 76.8 88.63 77.55C88.88 77.85 89.32 77.91 89.65 78.09C90.35 78.46 90.82 79.21 91.64 79.38C92.09 79.47 92.49 79.38 92.92 79.57C93.35 79.76 93.73 80.12 94.12 80.37C95.93 81.56 97.79 82.68 99.83 83.42C100.62 83.71 101.47 83.75 102.26 84.05C103.05 84.35 103.5 84.93 104.14 85.39C105.25 86.17 106.75 86.86 107.28 88.2C107.62 89.07 107.17 90.39 106.61 91.07C105.81 92.05 104.34 92.3 103.16 92.48C101.97 92.67 100.74 93.22 99.54 93.35C98.88 93.42 98.2 93.41 97.54 93.46C96.11 93.57 94.6899 93.71 93.27 93.86C90.39 94.15 87.51 94.45 84.61 94.4C83.03 94.37 81.17 94.61 79.75 93.79C77.8 92.67 76.03 90.98 74.24 89.62C71.89 87.83 70.29 85.35 68.61 82.92C66.85 80.39 65.17 77.81 63.4 75.28C61.97 73.24 60.54 70.9 58.6 69.3C57.91 68.74 57.46 67.95 56.78 67.37C56.19 66.87 55.67 66.32 55.15 65.74C54.1 64.57 52.99 63.51 51.34 63.36C50.72 64.28 50.3 65.32 50.05 66.4C49.88 67.13 49.92 67.89 49.79 68.62C49.69 69.24 49.46 69.82 49.34 70.44C49.1 71.77 49.08 73.2 48.4 74.41C47.99 75.14 47.76 75.74 47.57 76.56C47.38 77.37 46.98 78.23 46.66 79C46.48 79.43 46.19 79.81 46 80.24C45.65 81.02 45.46 81.85 45.05 82.63C44.6 83.5 44.09 84.34 43.55 85.15C42.46 86.78 41.2 88.31 39.84 89.72C39.07 90.51 38.27 91.28 37.44 92.01C36.79 92.58 36.24 93.22 35.48 93.67C34.72 94.12 33.85 94.3 33.01 94.56C31.22 95.13 29.61 95.92 27.7 96.02C26.58 96.07 25.46 95.76 24.48 95.22C24.06 94.99 23.32 95.02 22.84 94.84C22.28 94.63 21.73 94.33 21.25 93.97C20.7 93.56 20.15 93.12 19.75 92.56C19.53 92.25 19.33 91.93 19.28 91.55C19.17 90.76 19.31 90.49 18.81 89.83C18.16 88.97 18.51 88.4 18.33 87.47C18.24 87.03 18.03 86.6 17.99 86.15C17.93 85.4 18.56 84.82 18.97 84.27C19.43 83.66 19.83 82.99 20.59 82.74C21.46 82.45 22.69 82.48 23.58 82.66C24.09 82.76 24.58 82.95 25.02 83.22C25.73 83.66 26.05 84.32 26.95 83.8C27.62 83.41 28.02 82.68 28.6 82.18C29.04 81.8 29.21 81.17 29.65 80.74C30.14 80.26 30.6 79.76 31.01 79.22C31.86 78.11 32.5 76.85 32.94 75.52C35.28 73.05 35.54 69.54 34.63 66.16C32.22 65.97 29.69 67.2 27.15 66.36C25.46 65.13 22.99 64.48 22.14 62.59C20.97 61.36 20 59.8 19.8 58.04C20.52 56.09 23.25 56.67 24.81 56.35C26.24 55.76 27.93 55.63 29.36 54.92C30.17 54.52 31.12 54.39 31.94 53.94C32.75 53.5 33.51 52.97 34.28 52.46C35.05 51.95 35.83 51.46 36.67 51.08C37.57 50.68 38.56 50.55 39.44 50.07C40.19 49.66 40.89 49.09 41.54 48.55C42.9 47.42 43.96 45.83 43.73 43.99C43.65 43.37 43.36 42.81 43.36 42.13C43.36 41.45 43.49 40.8 43.63 40.15C43.77 39.5 43.92 38.85 44 38.18C44.11 37.18 43.86 36.51 44.46 35.62C44.99 34.83 45.77 34.18 46.66 33.84C47.37 33.56 48.26 33.71 49.01 33.71C49.61 33.71 50.38 33.29 50.97 33.46C51.33 33.56 51.58 33.88 51.98 33.98C52.41 34.09 52.86 34.07 53.23 34.36" fill="white"/>
<path d="M187.95 66.82L187.73 66.85C187.57 66.31 187.24 65.89 186.76 65.59C186.28 65.29 185.67 65.14 184.95 65.14C183.86 65.14 183.01 65.52 182.4 66.29C181.79 67.06 181.49 68.13 181.49 69.52C181.49 71.01 181.8 72.15 182.42 72.94C183.04 73.72 183.94 74.12 185.12 74.12C185.63 74.12 186.14 74.02 186.66 73.82C187.18 73.62 187.65 73.35 188.07 72.99L188.26 73.03L187.91 74.31C187.43 74.55 186.92 74.72 186.39 74.84C185.86 74.96 185.31 75.01 184.72 75.01C182.94 75.01 181.56 74.53 180.57 73.58C179.58 72.63 179.09 71.29 179.09 69.58C179.09 67.96 179.62 66.66 180.69 65.68C181.76 64.71 183.18 64.22 184.97 64.22C185.53 64.22 186.09 64.28 186.65 64.41C187.21 64.53 187.77 64.72 188.35 64.98C188.26 65.26 188.18 65.55 188.12 65.85C188.05 66.15 188 66.48 187.96 66.82H187.95Z" fill="white"/>
<path d="M189.01 71.18C189.01 69.97 189.35 69.03 190.02 68.35C190.69 67.68 191.63 67.34 192.83 67.34C194.03 67.34 194.98 67.67 195.64 68.34C196.3 69.01 196.63 69.95 196.63 71.18C196.63 72.41 196.29 73.32 195.62 73.99C194.95 74.66 194.01 75 192.81 75C191.61 75 190.67 74.67 190.01 74C189.35 73.33 189.01 72.39 189.01 71.19V71.18ZM191.24 71.18C191.24 72.33 191.36 73.14 191.6 73.61C191.84 74.08 192.24 74.31 192.81 74.31C193.38 74.31 193.78 74.07 194.03 73.6C194.27 73.13 194.39 72.32 194.39 71.17C194.39 70.02 194.27 69.2 194.03 68.73C193.79 68.25 193.38 68.01 192.81 68.01C192.24 68.01 191.85 68.25 191.6 68.72C191.36 69.19 191.24 70.01 191.24 71.17V71.18Z" fill="white"/>
<path d="M197.96 74.81C197.99 74 198.01 73.29 198.03 72.68C198.04 72.07 198.05 71.56 198.05 71.17C198.05 70.78 198.05 70.28 198.03 69.68C198.02 69.08 197.99 68.37 197.96 67.55C198.12 67.57 198.29 67.58 198.46 67.59C198.63 67.59 198.82 67.6 199.02 67.6C199.23 67.6 199.42 67.6 199.59 67.59C199.76 67.59 199.92 67.57 200.08 67.55V68.55C200.39 68.14 200.73 67.85 201.09 67.66C201.45 67.47 201.86 67.38 202.32 67.38C202.83 67.38 203.26 67.5 203.63 67.74C203.99 67.98 204.26 68.33 204.43 68.79C204.73 68.31 205.07 67.95 205.47 67.73C205.86 67.5 206.32 67.38 206.85 67.38C207.22 67.38 207.55 67.44 207.84 67.56C208.14 67.68 208.39 67.86 208.59 68.1C208.8 68.34 208.94 68.65 209.03 69.03C209.11 69.41 209.16 70.1 209.16 71.09V72.03C209.16 72.46 209.16 72.9 209.18 73.35C209.19 73.81 209.21 74.29 209.24 74.79C209.02 74.77 208.81 74.75 208.63 74.73C208.44 74.72 208.26 74.71 208.09 74.71C207.92 74.71 207.74 74.71 207.56 74.73C207.38 74.74 207.19 74.76 206.98 74.79C207.02 74.13 207.06 73.51 207.08 72.95C207.1 72.39 207.11 71.86 207.11 71.37C207.11 70.24 207.02 69.5 206.84 69.15C206.66 68.8 206.35 68.63 205.89 68.63C205.43 68.63 205.12 68.8 204.93 69.15C204.74 69.5 204.64 70.12 204.64 71.01V73.41C204.64 73.64 204.66 74.05 204.69 74.64C204.69 74.71 204.69 74.76 204.69 74.79C204.48 74.77 204.28 74.75 204.09 74.73C203.9 74.72 203.72 74.71 203.55 74.71C203.38 74.71 203.2 74.71 203.02 74.73C202.84 74.74 202.64 74.76 202.42 74.78C202.46 74.21 202.49 73.66 202.51 73.13C202.53 72.6 202.54 72.1 202.54 71.62C202.54 70.29 202.45 69.46 202.28 69.12C202.11 68.78 201.79 68.61 201.33 68.61C200.87 68.61 200.57 68.78 200.38 69.13C200.19 69.48 200.1 70.1 200.1 70.99V73.39C200.1 73.63 200.12 74.04 200.15 74.63C200.15 74.69 200.15 74.74 200.15 74.77C199.96 74.75 199.78 74.73 199.6 74.71C199.42 74.7 199.24 74.69 199.06 74.69C198.9 74.69 198.73 74.69 198.55 74.71C198.37 74.72 198.17 74.74 197.96 74.77V74.81Z" fill="white"/>
<path d="M211.14 74.81C211.17 74 211.19 73.29 211.21 72.68C211.22 72.07 211.23 71.56 211.23 71.17C211.23 70.78 211.23 70.28 211.21 69.68C211.2 69.08 211.17 68.37 211.14 67.55C211.3 67.57 211.47 67.58 211.64 67.59C211.81 67.59 212 67.6 212.2 67.6C212.41 67.6 212.6 67.6 212.77 67.59C212.94 67.59 213.1 67.57 213.26 67.55V68.55C213.57 68.14 213.91 67.85 214.27 67.66C214.63 67.47 215.04 67.38 215.5 67.38C216.01 67.38 216.44 67.5 216.81 67.74C217.17 67.98 217.44 68.33 217.61 68.79C217.91 68.31 218.25 67.95 218.65 67.73C219.04 67.5 219.5 67.38 220.03 67.38C220.4 67.38 220.73 67.44 221.02 67.56C221.32 67.68 221.57 67.86 221.77 68.1C221.98 68.34 222.12 68.65 222.21 69.03C222.29 69.41 222.34 70.1 222.34 71.09V72.03C222.34 72.46 222.34 72.9 222.36 73.35C222.37 73.81 222.39 74.29 222.42 74.79C222.2 74.77 221.99 74.75 221.81 74.73C221.62 74.72 221.44 74.71 221.27 74.71C221.1 74.71 220.92 74.71 220.74 74.73C220.56 74.74 220.37 74.76 220.16 74.79C220.2 74.13 220.24 73.51 220.26 72.95C220.28 72.39 220.29 71.86 220.29 71.37C220.29 70.24 220.2 69.5 220.02 69.15C219.84 68.8 219.53 68.63 219.07 68.63C218.61 68.63 218.3 68.8 218.11 69.15C217.92 69.5 217.82 70.12 217.82 71.01V73.41C217.82 73.64 217.84 74.05 217.87 74.64C217.87 74.71 217.87 74.76 217.87 74.79C217.66 74.77 217.46 74.75 217.27 74.73C217.08 74.72 216.9 74.71 216.73 74.71C216.56 74.71 216.38 74.71 216.2 74.73C216.02 74.74 215.82 74.76 215.6 74.78C215.64 74.21 215.67 73.66 215.69 73.13C215.71 72.6 215.72 72.1 215.72 71.62C215.72 70.29 215.63 69.46 215.46 69.12C215.29 68.78 214.97 68.61 214.51 68.61C214.05 68.61 213.75 68.78 213.56 69.13C213.37 69.48 213.28 70.1 213.28 70.99V73.39C213.28 73.63 213.3 74.04 213.33 74.63C213.33 74.69 213.33 74.74 213.33 74.77C213.14 74.75 212.96 74.73 212.78 74.71C212.6 74.7 212.42 74.69 212.24 74.69C212.08 74.69 211.91 74.69 211.73 74.71C211.55 74.72 211.35 74.74 211.14 74.77V74.81Z" fill="white"/>
<path d="M223.81 71.18C223.81 69.97 224.15 69.03 224.82 68.35C225.49 67.68 226.43 67.34 227.63 67.34C228.83 67.34 229.78 67.67 230.44 68.34C231.1 69.01 231.43 69.95 231.43 71.18C231.43 72.41 231.09 73.32 230.42 73.99C229.75 74.66 228.81 75 227.61 75C226.41 75 225.47 74.67 224.81 74C224.15 73.33 223.81 72.39 223.81 71.19V71.18ZM226.04 71.18C226.04 72.33 226.16 73.14 226.4 73.61C226.64 74.08 227.04 74.31 227.61 74.31C228.18 74.31 228.58 74.07 228.83 73.6C229.07 73.13 229.19 72.32 229.19 71.17C229.19 70.02 229.07 69.2 228.83 68.73C228.59 68.25 228.18 68.01 227.61 68.01C227.04 68.01 226.65 68.25 226.4 68.72C226.16 69.19 226.04 70.01 226.04 71.17V71.18Z" fill="white"/>
<path d="M232.76 74.81C232.8 74.14 232.83 73.5 232.85 72.91C232.87 72.31 232.88 71.74 232.88 71.19C232.88 70.57 232.88 69.96 232.85 69.35C232.83 68.74 232.8 68.14 232.76 67.54C232.92 67.56 233.08 67.57 233.25 67.58C233.42 67.58 233.6 67.59 233.8 67.59C234 67.59 234.18 67.59 234.35 67.58C234.51 67.58 234.67 67.56 234.82 67.54V68.59C235.13 68.18 235.48 67.87 235.87 67.68C236.26 67.48 236.69 67.38 237.17 67.38C237.54 67.38 237.88 67.44 238.19 67.57C238.5 67.7 238.76 67.88 238.97 68.12C239.14 68.32 239.26 68.56 239.33 68.85C239.4 69.14 239.44 69.63 239.44 70.34C239.44 70.44 239.44 70.7 239.44 71.12C239.44 71.54 239.44 71.91 239.44 72.24C239.44 72.71 239.44 73.16 239.47 73.58C239.49 74 239.51 74.41 239.55 74.8C239.34 74.78 239.14 74.76 238.95 74.74C238.76 74.73 238.58 74.72 238.41 74.72C238.24 74.72 238.06 74.72 237.88 74.74C237.7 74.75 237.5 74.77 237.29 74.8C237.32 74.37 237.35 73.86 237.38 73.26C237.4 72.66 237.41 72 237.41 71.26C237.41 70.16 237.32 69.45 237.15 69.13C236.98 68.81 236.66 68.65 236.2 68.65C235.74 68.65 235.41 68.84 235.21 69.22C235.01 69.6 234.91 70.24 234.91 71.15C234.91 71.58 234.91 72.09 234.93 72.7C234.95 73.31 234.96 74.01 234.99 74.8C234.8 74.78 234.62 74.76 234.43 74.74C234.25 74.73 234.07 74.72 233.9 74.72C233.73 74.72 233.56 74.72 233.37 74.74C233.19 74.75 232.99 74.77 232.79 74.8L232.76 74.81Z" fill="white"/>
<path d="M243.64 74.81C243.2 73.14 242.72 71.44 242.2 69.72C241.67 67.99 241.1 66.23 240.48 64.43C240.67 64.45 240.87 64.46 241.09 64.47C241.3 64.47 241.53 64.48 241.78 64.48C242.03 64.48 242.25 64.48 242.45 64.47C242.66 64.47 242.86 64.45 243.05 64.43C243.34 65.7 243.66 66.97 244 68.24C244.34 69.51 244.7 70.77 245.09 72.02C245.57 70.64 246.02 69.33 246.45 68.08C246.88 66.84 247.28 65.62 247.67 64.43C247.79 64.45 247.91 64.46 248.03 64.47C248.15 64.47 248.28 64.48 248.43 64.48C248.58 64.48 248.72 64.48 248.84 64.47C248.97 64.47 249.09 64.45 249.21 64.43C249.57 65.63 249.95 66.86 250.36 68.1C250.77 69.34 251.2 70.61 251.65 71.91C252.08 70.69 252.47 69.46 252.84 68.22C253.21 66.98 253.55 65.71 253.87 64.43C253.97 64.45 254.08 64.46 254.2 64.47C254.31 64.47 254.44 64.48 254.57 64.48C254.7 64.48 254.83 64.48 254.94 64.47C255.05 64.47 255.16 64.45 255.26 64.43C254.72 65.97 254.17 67.6 253.59 69.32C253.02 71.04 252.43 72.87 251.81 74.81C251.67 74.79 251.54 74.77 251.4 74.75C251.27 74.74 251.14 74.73 251.02 74.73C250.91 74.73 250.79 74.73 250.66 74.75C250.53 74.76 250.39 74.78 250.24 74.81C249.89 73.64 249.51 72.44 249.1 71.22C248.69 70 248.26 68.74 247.79 67.46C247.34 68.62 246.89 69.81 246.46 71.04C246.03 72.27 245.6 73.53 245.19 74.82C245.05 74.8 244.92 74.78 244.79 74.76C244.66 74.75 244.54 74.74 244.42 74.74C244.3 74.74 244.18 74.74 244.05 74.76C243.92 74.77 243.79 74.79 243.65 74.82L243.64 74.81Z" fill="white"/>
<path d="M257.8 71.19C257.8 72.07 258.01 72.76 258.43 73.27C258.85 73.78 259.41 74.04 260.12 74.04C260.47 74.04 260.81 73.98 261.13 73.86C261.45 73.74 261.76 73.56 262.06 73.32L262.21 73.43L261.88 74.29C261.56 74.51 261.19 74.68 260.76 74.8C260.33 74.92 259.87 74.98 259.37 74.98C258.19 74.98 257.26 74.63 256.59 73.93C255.92 73.23 255.59 72.27 255.59 71.04C255.59 69.93 255.92 69.04 256.59 68.35C257.26 67.67 258.14 67.33 259.24 67.33C260.34 67.33 261.08 67.62 261.64 68.2C262.2 68.78 262.48 69.61 262.48 70.69C262.48 70.82 262.48 70.92 262.48 70.99C262.48 71.06 262.48 71.12 262.47 71.18H257.82L257.8 71.19ZM257.8 70.45H260.37C260.37 70.4 260.37 70.33 260.37 70.25C260.37 70.17 260.37 70.12 260.37 70.09C260.37 69.4 260.27 68.88 260.07 68.53C259.87 68.18 259.57 68 259.18 68C258.73 68 258.39 68.2 258.14 68.6C257.89 69 257.77 69.57 257.77 70.31V70.44L257.8 70.45Z" fill="white"/>
<path d="M267.5 73.85C267.28 74.22 267 74.5 266.64 74.7C266.29 74.9 265.89 75 265.44 75C264.8 75 264.3 74.81 263.94 74.43C263.58 74.05 263.39 73.54 263.39 72.88C263.39 72.4 263.52 72 263.78 71.69C264.04 71.38 264.44 71.13 264.99 70.95C265.17 70.89 265.43 70.81 265.76 70.71C266.55 70.47 267.09 70.26 267.39 70.06C267.39 70.03 267.39 70 267.4 69.96C267.4 69.92 267.4 69.87 267.4 69.8C267.4 69.34 267.27 68.97 267.01 68.7C266.75 68.43 266.4 68.29 265.96 68.29C265.62 68.29 265.31 68.39 265.03 68.58C264.75 68.77 264.49 69.07 264.26 69.46C264.19 69.22 264.12 69.03 264.07 68.89C264.02 68.75 263.97 68.61 263.92 68.49C264.37 68.1 264.82 67.81 265.26 67.62C265.7 67.43 266.16 67.33 266.63 67.33C267.54 67.33 268.24 67.54 268.73 67.96C269.22 68.38 269.46 68.98 269.46 69.76V69.83L269.41 72.48V72.77C269.41 73.39 269.48 73.79 269.61 73.96C269.75 74.14 270.01 74.22 270.41 74.22H270.45V74.6C270.19 74.71 269.93 74.79 269.65 74.85C269.37 74.91 269.11 74.94 268.86 74.94C268.49 74.94 268.19 74.85 267.96 74.66C267.73 74.48 267.57 74.2 267.49 73.85H267.5ZM267.43 70.81C266.73 70.95 266.22 71.17 265.91 71.46C265.6 71.75 265.44 72.16 265.44 72.68C265.44 73.12 265.52 73.44 265.68 73.66C265.84 73.88 266.07 73.99 266.38 73.99C266.72 73.99 266.98 73.87 267.16 73.63C267.34 73.39 267.43 73.04 267.43 72.58V70.81Z" fill="white"/>
<path d="M271.49 74.81C271.53 73.95 271.56 73.06 271.58 72.13C271.6 71.2 271.61 70.2 271.61 69.14C271.61 68.01 271.6 66.98 271.58 66.05C271.56 65.12 271.53 64.24 271.49 63.41C271.73 63.45 271.94 63.48 272.11 63.49C272.28 63.5 272.45 63.51 272.61 63.51C272.77 63.51 272.94 63.51 273.13 63.48C273.31 63.46 273.52 63.44 273.75 63.4C273.71 64.26 273.68 65.15 273.66 66.08C273.64 67.01 273.63 68.01 273.63 69.07C273.63 70.2 273.63 71.23 273.66 72.16C273.68 73.09 273.71 73.97 273.75 74.8C273.58 74.77 273.4 74.74 273.22 74.72C273.03 74.7 272.84 74.69 272.63 74.69C272.42 74.69 272.23 74.69 272.04 74.72C271.85 74.74 271.67 74.76 271.48 74.8L271.49 74.81Z" fill="white"/>
<path d="M275.83 68.39H275.55C275.35 68.39 275.19 68.39 275.09 68.39C274.98 68.39 274.89 68.39 274.8 68.4C274.8 68.35 274.81 68.29 274.82 68.24C274.82 68.19 274.82 68.11 274.82 68C274.82 67.89 274.82 67.81 274.82 67.75C274.82 67.69 274.82 67.64 274.81 67.6C274.83 67.6 274.86 67.6 274.9 67.61C275.26 67.64 275.52 67.66 275.67 67.66H275.84C275.84 67.58 275.84 67.51 275.85 67.43C275.85 67.35 275.85 67.23 275.85 67.07C275.85 66.87 275.85 66.66 275.84 66.44C275.84 66.22 275.82 65.94 275.8 65.61C276.15 65.48 276.5 65.34 276.84 65.19C277.18 65.04 277.51 64.89 277.83 64.73L277.99 64.86C277.96 65.44 277.94 65.92 277.92 66.31C277.9 66.7 277.9 66.99 277.9 67.2V67.67C278.18 67.67 278.44 67.67 278.67 67.66C278.91 67.66 279.14 67.64 279.37 67.62C279.35 67.73 279.35 67.82 279.34 67.86C279.34 67.91 279.34 67.96 279.34 68.01C279.34 68.09 279.34 68.21 279.36 68.36C279.36 68.38 279.37 68.39 279.36 68.4C279.24 68.4 279.08 68.4 278.89 68.39C278.7 68.39 278.35 68.39 277.85 68.39C277.85 68.46 277.85 68.58 277.85 68.74C277.81 69.79 277.8 70.53 277.8 70.98V71.59C277.8 72.75 277.86 73.47 277.97 73.75C278.08 74.03 278.3 74.17 278.63 74.17C278.79 74.17 279.08 74.12 279.51 74.01V74.57C279.18 74.72 278.87 74.83 278.58 74.9C278.3 74.97 278.02 75 277.76 75C277.11 75 276.62 74.83 276.28 74.48C275.94 74.13 275.77 73.64 275.77 72.98C275.77 72.96 275.77 72.52 275.79 71.68C275.81 70.84 275.82 70.01 275.82 69.2V68.4L275.83 68.39Z" fill="white"/>
<path d="M280.49 74.81C280.53 74.28 280.56 73.61 280.58 72.82C280.6 72.03 280.61 70.89 280.61 69.4C280.61 67.82 280.61 66.58 280.58 65.7C280.56 64.81 280.53 64.05 280.49 63.41C280.7 63.45 280.89 63.48 281.07 63.5C281.25 63.52 281.42 63.53 281.59 63.53C281.77 63.53 281.95 63.53 282.13 63.5C282.31 63.48 282.5 63.45 282.7 63.41C282.65 63.83 282.61 64.27 282.58 64.75C282.55 65.22 282.54 65.74 282.54 66.29V68.65C282.82 68.23 283.15 67.91 283.54 67.7C283.93 67.49 284.38 67.38 284.88 67.38C285.25 67.38 285.58 67.44 285.89 67.57C286.2 67.7 286.45 67.88 286.66 68.12C286.84 68.32 286.96 68.58 287.04 68.88C287.11 69.18 287.15 69.67 287.15 70.34C287.15 70.44 287.15 70.7 287.15 71.12C287.15 71.54 287.15 71.91 287.15 72.24C287.15 72.8 287.15 73.28 287.17 73.68C287.18 74.08 287.21 74.46 287.24 74.8C287.03 74.78 286.83 74.76 286.65 74.74C286.46 74.73 286.29 74.72 286.12 74.72C285.95 74.72 285.77 74.72 285.59 74.74C285.41 74.75 285.21 74.77 285 74.8C285.03 74.37 285.06 73.86 285.08 73.26C285.1 72.66 285.11 72 285.11 71.26C285.11 70.16 285.02 69.45 284.85 69.13C284.68 68.81 284.36 68.65 283.9 68.65C283.44 68.65 283.11 68.84 282.91 69.22C282.71 69.6 282.61 70.24 282.61 71.15C282.61 71.62 282.61 72.17 282.64 72.79C282.66 73.41 282.68 74.08 282.71 74.8C282.51 74.78 282.32 74.76 282.14 74.74C281.96 74.73 281.78 74.72 281.61 74.72C281.44 74.72 281.27 74.72 281.08 74.74C280.9 74.75 280.7 74.77 280.5 74.8L280.49 74.81Z" fill="white"/>
<path d="M179.39 91.75C179.51 90.97 179.62 90.3 179.71 89.74C179.8 89.18 179.86 88.78 179.89 88.55L180.86 81.38C180.96 81.4 181.06 81.41 181.17 81.42C181.28 81.42 181.39 81.43 181.51 81.43C181.63 81.43 181.75 81.43 181.86 81.42C181.97 81.42 182.08 81.4 182.18 81.38C182.72 82.59 183.29 83.79 183.88 84.97C184.47 86.15 185.07 87.32 185.69 88.48C186.29 87.36 186.88 86.2 187.46 85.02C188.04 83.84 188.6 82.62 189.16 81.38C189.27 81.4 189.38 81.41 189.49 81.42C189.6 81.42 189.72 81.43 189.85 81.43C189.98 81.43 190.1 81.43 190.22 81.42C190.34 81.42 190.45 81.4 190.55 81.38L191.42 88.64C191.51 89.44 191.6 90.07 191.67 90.53C191.74 90.99 191.82 91.4 191.9 91.75C191.65 91.73 191.42 91.71 191.21 91.7C191 91.69 190.8 91.68 190.6 91.68C190.4 91.68 190.21 91.68 190 91.7C189.79 91.71 189.57 91.73 189.35 91.76C189.35 91.73 189.35 91.67 189.34 91.6C189.3 90.54 189.26 89.88 189.23 89.63L188.74 84.79C188.17 85.88 187.6 87 187.04 88.15C186.47 89.3 185.89 90.51 185.3 91.76C185.27 91.76 185.23 91.74 185.18 91.74C185.14 91.74 185.07 91.74 184.98 91.74C184.9 91.74 184.83 91.74 184.8 91.74C184.76 91.74 184.72 91.75 184.69 91.76C184.1 90.52 183.53 89.34 182.96 88.23C182.4 87.11 181.84 86.04 181.3 85.04L180.94 88.19L180.92 88.31C180.74 89.95 180.64 91.1 180.64 91.77C180.52 91.75 180.42 91.73 180.31 91.71C180.2 91.7 180.11 91.69 180.02 91.69C179.92 91.69 179.82 91.69 179.72 91.71C179.62 91.72 179.51 91.74 179.39 91.77V91.75Z" fill="white"/>
<path d="M197.12 90.8C196.9 91.17 196.62 91.45 196.26 91.65C195.91 91.85 195.51 91.95 195.06 91.95C194.42 91.95 193.92 91.76 193.56 91.38C193.2 91 193.01 90.49 193.01 89.83C193.01 89.35 193.14 88.95 193.4 88.64C193.66 88.33 194.06 88.08 194.61 87.9C194.79 87.84 195.05 87.76 195.38 87.66C196.17 87.42 196.71 87.21 197.01 87.01C197.01 86.98 197.01 86.95 197.02 86.91C197.02 86.87 197.02 86.82 197.02 86.75C197.02 86.29 196.89 85.92 196.63 85.65C196.37 85.38 196.02 85.24 195.58 85.24C195.24 85.24 194.93 85.34 194.65 85.53C194.37 85.72 194.11 86.02 193.88 86.41C193.81 86.17 193.74 85.98 193.69 85.84C193.64 85.7 193.59 85.56 193.54 85.44C193.99 85.05 194.44 84.76 194.88 84.57C195.32 84.38 195.78 84.28 196.25 84.28C197.16 84.28 197.86 84.49 198.35 84.91C198.84 85.33 199.08 85.93 199.08 86.71V86.78L199.03 89.43V89.72C199.03 90.34 199.1 90.74 199.23 90.91C199.37 91.09 199.63 91.17 200.03 91.17H200.07V91.55C199.81 91.66 199.55 91.74 199.27 91.8C198.99 91.86 198.73 91.89 198.48 91.89C198.11 91.89 197.81 91.8 197.58 91.61C197.35 91.43 197.19 91.15 197.11 90.8H197.12ZM197.05 87.76C196.35 87.9 195.84 88.12 195.53 88.41C195.22 88.7 195.06 89.11 195.06 89.63C195.06 90.07 195.14 90.39 195.3 90.61C195.46 90.83 195.69 90.94 196 90.94C196.34 90.94 196.6 90.82 196.78 90.58C196.96 90.34 197.05 89.99 197.05 89.53V87.76Z" fill="white"/>
<path d="M202.16 92.1V91.98C201.87 91.89 201.63 91.74 201.46 91.53C201.29 91.32 201.2 91.07 201.2 90.78C201.2 90.44 201.33 90.12 201.59 89.83C201.85 89.54 202.23 89.29 202.72 89.08V88.89C202.07 88.76 201.58 88.51 201.25 88.15C200.92 87.79 200.76 87.31 200.76 86.73C200.76 85.99 201.04 85.4 201.61 84.95C202.18 84.5 202.94 84.28 203.89 84.28C203.98 84.28 204.32 84.3 204.9 84.34C205.49 84.38 206.03 84.4 206.53 84.4C206.73 84.4 206.95 84.4 207.17 84.39C207.4 84.39 207.64 84.37 207.89 84.36V85.1C207.58 85.09 207.16 85.07 206.62 85.05C206.51 85.05 206.43 85.05 206.39 85.05C206.65 85.22 206.85 85.43 206.98 85.69C207.11 85.95 207.18 86.25 207.18 86.6C207.18 87.39 206.88 88 206.28 88.44C205.68 88.88 204.84 89.1 203.76 89.1H203.5C203.3 89.12 203.14 89.2 203.02 89.33C202.9 89.46 202.84 89.63 202.84 89.83C202.84 90.29 203.56 90.55 205 90.6H205.08C205.08 90.6 205.19 90.6 205.27 90.61C206.19 90.65 206.79 90.75 207.06 90.9C207.37 91.08 207.6 91.32 207.76 91.63C207.92 91.94 208 92.29 208 92.7C208 93.63 207.61 94.4 206.84 95C206.07 95.6 205.07 95.89 203.83 95.89C202.82 95.89 202.02 95.72 201.46 95.37C200.89 95.02 200.61 94.54 200.61 93.93C200.61 93.48 200.74 93.11 201 92.81C201.26 92.51 201.64 92.27 202.16 92.09V92.1ZM202.83 92.19C202.58 92.32 202.39 92.5 202.25 92.74C202.11 92.98 202.04 93.25 202.04 93.55C202.04 94.07 202.21 94.48 202.56 94.8C202.91 95.11 203.38 95.27 203.97 95.27C204.66 95.27 205.2 95.13 205.59 94.85C205.98 94.57 206.18 94.18 206.18 93.68C206.18 93.23 206.05 92.89 205.8 92.67C205.54 92.45 205.14 92.33 204.59 92.3L202.84 92.2L202.83 92.19ZM202.83 86.69C202.83 87.31 202.92 87.77 203.1 88.06C203.28 88.35 203.57 88.5 203.96 88.5C204.35 88.5 204.66 88.35 204.84 88.04C205.02 87.73 205.11 87.23 205.11 86.52C205.11 85.97 205.02 85.56 204.84 85.3C204.66 85.03 204.38 84.9 204.01 84.9C203.64 84.9 203.35 85.06 203.15 85.37C202.94 85.68 202.84 86.12 202.84 86.7L202.83 86.69Z" fill="white"/>
<path d="M212.59 90.8C212.37 91.17 212.09 91.45 211.73 91.65C211.38 91.85 210.98 91.95 210.53 91.95C209.89 91.95 209.39 91.76 209.03 91.38C208.67 91 208.48 90.49 208.48 89.83C208.48 89.35 208.61 88.95 208.87 88.64C209.13 88.33 209.53 88.08 210.08 87.9C210.26 87.84 210.52 87.76 210.85 87.66C211.64 87.42 212.18 87.21 212.48 87.01C212.48 86.98 212.48 86.95 212.49 86.91C212.49 86.87 212.49 86.82 212.49 86.75C212.49 86.29 212.36 85.92 212.1 85.65C211.84 85.38 211.49 85.24 211.05 85.24C210.71 85.24 210.4 85.34 210.12 85.53C209.84 85.72 209.58 86.02 209.35 86.41C209.28 86.17 209.21 85.98 209.16 85.84C209.11 85.7 209.06 85.56 209.01 85.44C209.46 85.05 209.91 84.76 210.35 84.57C210.79 84.38 211.25 84.28 211.72 84.28C212.63 84.28 213.33 84.49 213.82 84.91C214.31 85.33 214.55 85.93 214.55 86.71V86.78L214.5 89.43V89.72C214.5 90.34 214.57 90.74 214.7 90.91C214.84 91.09 215.1 91.17 215.5 91.17H215.54V91.55C215.28 91.66 215.02 91.74 214.74 91.8C214.46 91.86 214.2 91.89 213.95 91.89C213.58 91.89 213.28 91.8 213.05 91.61C212.82 91.43 212.66 91.15 212.58 90.8H212.59ZM212.52 87.76C211.82 87.9 211.31 88.12 211 88.41C210.69 88.7 210.53 89.11 210.53 89.63C210.53 90.07 210.61 90.39 210.77 90.61C210.93 90.83 211.16 90.94 211.47 90.94C211.81 90.94 212.07 90.82 212.25 90.58C212.43 90.34 212.52 89.99 212.52 89.53V87.76Z" fill="white"/>
<path d="M215.73 91.75V91.51C216.29 90.65 217.18 89.31 218.38 87.47L219.8 85.3C219.48 85.29 219.24 85.28 219.06 85.27C218.88 85.27 218.72 85.27 218.55 85.27C218.14 85.27 217.49 85.29 216.6 85.32C216.52 85.32 216.46 85.32 216.43 85.32C216.43 85.27 216.45 85.21 216.45 85.16C216.45 85.11 216.45 85.02 216.45 84.91C216.45 84.8 216.45 84.71 216.45 84.65C216.45 84.59 216.44 84.54 216.43 84.49C216.88 84.51 217.36 84.52 217.86 84.53C218.36 84.53 218.89 84.54 219.45 84.54C220.01 84.54 220.54 84.54 221.03 84.53C221.51 84.53 221.97 84.51 222.41 84.49V84.68C222.05 85.21 221.56 85.97 220.92 86.95C220.29 87.93 219.43 89.25 218.36 90.91C218.72 90.92 219 90.93 219.18 90.94C219.36 90.94 219.53 90.94 219.7 90.94C220.16 90.94 220.61 90.94 221.05 90.91C221.49 90.89 221.92 90.87 222.35 90.84C222.34 90.93 222.33 91.02 222.33 91.08C222.33 91.15 222.33 91.21 222.33 91.27C222.33 91.33 222.33 91.39 222.33 91.46C222.33 91.53 222.34 91.63 222.35 91.76C221.9 91.74 221.42 91.72 220.91 91.7C220.39 91.69 219.8 91.68 219.12 91.68C218.44 91.68 217.84 91.68 217.29 91.7C216.75 91.71 216.23 91.73 215.75 91.76L215.73 91.75Z" fill="white"/>
<path d="M223.67 81.75C223.67 81.43 223.78 81.16 224 80.93C224.22 80.71 224.5 80.6 224.82 80.6C225.14 80.6 225.4 80.71 225.62 80.94C225.84 81.17 225.95 81.44 225.95 81.75C225.95 82.06 225.84 82.34 225.62 82.56C225.4 82.78 225.12 82.89 224.8 82.89C224.48 82.89 224.21 82.78 223.99 82.56C223.77 82.34 223.66 82.07 223.66 81.75H223.67ZM223.68 91.75C223.72 90.97 223.74 90.3 223.76 89.73C223.78 89.16 223.78 88.62 223.78 88.12C223.78 87.55 223.78 86.96 223.75 86.36C223.73 85.76 223.71 85.14 223.67 84.48C223.84 84.49 224.03 84.51 224.21 84.51C224.4 84.51 224.59 84.52 224.79 84.52C224.99 84.52 225.18 84.52 225.38 84.51C225.57 84.51 225.75 84.49 225.92 84.48C225.89 85.14 225.86 85.77 225.84 86.36C225.82 86.96 225.81 87.54 225.81 88.12C225.81 88.62 225.81 89.16 225.84 89.73C225.86 90.3 225.88 90.98 225.92 91.75C225.73 91.73 225.54 91.71 225.35 91.69C225.16 91.68 224.98 91.67 224.79 91.67C224.6 91.67 224.43 91.67 224.24 91.69C224.05 91.7 223.86 91.72 223.66 91.75H223.68Z" fill="white"/>
<path d="M227.85 91.75C227.89 91.08 227.92 90.44 227.94 89.85C227.96 89.25 227.97 88.68 227.97 88.13C227.97 87.51 227.97 86.9 227.94 86.29C227.92 85.68 227.89 85.08 227.85 84.48C228.01 84.5 228.17 84.51 228.34 84.52C228.51 84.52 228.69 84.53 228.89 84.53C229.09 84.53 229.27 84.53 229.44 84.52C229.6 84.52 229.76 84.5 229.91 84.48V85.53C230.22 85.12 230.57 84.81 230.96 84.62C231.35 84.42 231.78 84.32 232.26 84.32C232.63 84.32 232.97 84.38 233.28 84.51C233.59 84.64 233.85 84.82 234.06 85.06C234.23 85.26 234.35 85.5 234.42 85.79C234.49 86.08 234.53 86.57 234.53 87.28C234.53 87.38 234.53 87.64 234.53 88.06C234.53 88.48 234.53 88.85 234.53 89.18C234.53 89.65 234.53 90.1 234.56 90.52C234.58 90.94 234.6 91.35 234.64 91.74C234.43 91.72 234.23 91.7 234.04 91.68C233.85 91.67 233.67 91.66 233.5 91.66C233.33 91.66 233.15 91.66 232.97 91.68C232.79 91.69 232.59 91.71 232.38 91.74C232.41 91.31 232.44 90.8 232.47 90.2C232.49 89.6 232.5 88.94 232.5 88.2C232.5 87.1 232.41 86.39 232.24 86.07C232.07 85.75 231.75 85.59 231.29 85.59C230.83 85.59 230.5 85.78 230.3 86.16C230.1 86.54 230 87.18 230 88.09C230 88.52 230 89.03 230.02 89.64C230.04 90.25 230.05 90.95 230.08 91.74C229.89 91.72 229.71 91.7 229.52 91.68C229.34 91.67 229.16 91.66 228.99 91.66C228.82 91.66 228.65 91.66 228.46 91.68C228.28 91.69 228.08 91.71 227.88 91.74L227.85 91.75Z" fill="white"/>
<path d="M238.22 88.14C238.22 89.02 238.43 89.71 238.85 90.22C239.27 90.73 239.83 90.99 240.54 90.99C240.89 90.99 241.23 90.93 241.55 90.81C241.87 90.69 242.18 90.51 242.48 90.27L242.63 90.38L242.3 91.24C241.98 91.46 241.61 91.63 241.18 91.75C240.75 91.87 240.29 91.93 239.79 91.93C238.61 91.93 237.68 91.58 237.01 90.88C236.34 90.18 236.01 89.22 236.01 87.99C236.01 86.88 236.34 85.99 237.01 85.3C237.68 84.61 238.56 84.28 239.66 84.28C240.76 84.28 241.5 84.57 242.06 85.15C242.62 85.73 242.9 86.56 242.9 87.64C242.9 87.77 242.9 87.87 242.9 87.94C242.9 88.01 242.9 88.07 242.89 88.13H238.24L238.22 88.14ZM238.22 87.4H240.79C240.79 87.35 240.79 87.28 240.79 87.2C240.79 87.12 240.79 87.07 240.79 87.04C240.79 86.35 240.69 85.83 240.49 85.48C240.29 85.13 239.99 84.95 239.6 84.95C239.15 84.95 238.81 85.15 238.56 85.55C238.31 85.95 238.19 86.52 238.19 87.26V87.39L238.22 87.4Z" fill="white"/>
<path d="M210.81 49.67V51.31H198.83V54.02H195.69L195.73 35.33C195.23 36.11 194.73 36.9 194.2 37.61L193.2 36.86C193.63 35.97 194.02 35.11 194.34 34.22L192.66 35.75C192.12 34.64 191.48 33.47 190.7 32.36C190.06 33.71 189.24 35.03 188.38 36.21H188.99V39.56H194.91V41.16H188.99V42.44C191.13 43.65 193.16 44.9 194.66 46.33L192.56 48.68C191.56 47.18 190.06 45.4 188.99 44.15V54.21H185.92V44.87C184.57 46.9 182.18 49.68 179.25 51.79L178.5 50.76C181.07 48.19 183.49 45.05 185.17 41.17H179.29V39.57H185.92V36.22H186.85C188.31 33.58 189.06 30.34 189.45 27.09L192.34 27.8C192.16 28.76 191.8 29.8 191.38 30.9C192.63 31.72 193.77 32.61 194.59 33.57C195.84 29.93 196.27 26.08 196.8 20.88L200.05 21.52C199.84 23.87 199.41 26.16 198.77 28.33H210.36V29.93H205.37V34.71H209.47V36.31H205.37V41.87H209.51V43.48H205.37V49.65H210.83L210.81 49.67ZM179.86 37.83L178.9 37.01C180.58 34.3 181.82 30.41 182.47 26.95L185.36 27.63C185.18 28.52 184.79 29.56 184.33 30.66C185.69 31.59 186.86 32.59 187.75 33.62L185.72 35.55C185.15 34.41 184.47 33.2 183.72 32.02C182.65 34.19 181.22 36.41 179.87 37.83H179.86ZM194.84 26.7H179.47V25.1H187.42C186.14 23.74 184.85 22.64 183.5 21.53L184 20.42C186 20.99 188.42 22.02 189.92 23.09L188.49 25.09H194.84V26.69V26.7ZM202.29 29.95H198.83V34.73H202.29V29.95ZM202.29 36.33H198.83V41.89H202.29V36.33ZM202.29 43.5H198.83V49.67H202.29V43.5ZM203.22 27.84C202.93 26.38 202.11 23.28 201.37 21.28L202.51 20.71C203.97 22.31 205.51 25.1 206.15 26.74L203.23 27.85L203.22 27.84Z" fill="white"/>
<path d="M230.47 28.56H218.6V26.95H224.06C222.88 24.92 221.56 22.71 220.74 21.53L221.63 20.64C223.31 21.75 225.66 23.67 227.12 25.53L225.27 26.96H230.48V28.57L230.47 28.56ZM219.63 33.41V31.91H229.65V33.41H219.63ZM229.65 38.33H219.63V36.83H229.65V38.33ZM233.14 41.65L234.39 41.9C234.18 45.68 233.36 48.82 231.72 50.99L229.33 49.21V53.53H226.62V51.43H222.52V54.03H219.74V41.8H229.33V48.86C231.15 47.01 232.54 44.87 233.15 41.66L233.14 41.65ZM226.58 43.36H222.51V49.85H226.58V43.36ZM238.56 28.56H231.21V26.95H238.56V20.96H241.77V26.95H249.26V28.56H241.77V34.73H248.79V36.33H231.96V34.73H238.56V28.56ZM244.91 45.14C246.55 50.99 246.84 53.27 241.27 53.27C236.06 53.27 235.35 52.88 235.35 49.03V39.76H238.49V48.46C238.49 49.89 238.81 50.35 241.06 50.35C243.63 50.35 243.66 49.89 243.63 45.14H244.91ZM237.92 36.44C239.67 37.19 242.91 38.97 244.27 40.36L242.17 42.75C240.92 41.18 238.67 38.79 237.28 37.47L237.92 36.44ZM250.54 47.89L247.72 49.28C246.83 46.43 245.9 43.97 244.72 41.54L245.72 40.86C247.72 42.93 249.36 45.32 250.53 47.88L250.54 47.89Z" fill="white"/>
<path d="M168.1 53.58C167.33 52.71 166.51 52.18 166.07 51.94C165.96 51.89 165.86 51.84 165.76 51.78C165.27 51.5 164.8 51.12 164.26 50.98C163.44 50.77 162.55 50.87 161.72 50.69C160.55 50.44 159.38 50.15 158.2 49.97C156.72 49.74 155.19 49.68 153.75 50.12C153.1 50.31 152.32 50.57 151.85 51.09C151.46 51.52 151.47 52.03 151.34 52.56C151.22 53.06 151.16 53.57 151.15 54.09C151.13 56 151.87 57.89 152.82 59.53C153.33 60.4 153.92 61.23 154.58 62C155.18 62.7 155.89 63.64 156.66 64.15C157.42 64.66 157.94 65.02 158.43 65.8C158.77 66.35 158.81 66.51 159.45 66.76C160.5 67.16 161.69 67.15 162.79 67.23C164.23 67.33 165.79 67.36 167.22 67.1C168.31 66.91 168.51 66.14 169.4 65.62C170.23 65.14 170.65 65.06 171.03 64.14C172.75 60.03 170.63 56.54 168.11 53.58H168.1Z" fill="white"/>
</g>
<defs>
<clipPath id="clip0_703_450">
<rect width="299.43" height="110.12" fill="white"/>
</clipPath>
</defs>
</svg>
