<?xml version="1.0" encoding="utf-8"?>
<!-- Generator: Adobe Illustrator 27.2.0, SVG Export Plug-In . SVG Version: 6.00 Build 0)  -->
<svg version="1.1" id="圖層_1" xmlns="http://www.w3.org/2000/svg" xmlns:xlink="http://www.w3.org/1999/xlink" x="0px" y="0px"
	 viewBox="0 0 75.3 39" style="enable-background:new 0 0 75.3 39;" xml:space="preserve">
<style type="text/css">
	.st0{fill:none;}
	.st1{clip-path:url(#SVGID_00000053529638562292578850000000106413099953337478_);}
	.st2{fill:#D1B158;}
</style>
<rect y="0" class="st0" width="75.3" height="39"/>
<g>
	<defs>
		<rect id="SVGID_1_" x="15.4" y="7.9" width="44.4" height="23.2"/>
	</defs>
	<clipPath id="SVGID_00000042012686606888309780000011615175968095358382_">
		<use xlink:href="#SVGID_1_"  style="overflow:visible;"/>
	</clipPath>
	<g style="clip-path:url(#SVGID_00000042012686606888309780000011615175968095358382_);">
		<path class="st2" d="M36.2,16.9c0.1,0,0.1,0,0.2,0.1c0,0,0.1,0.1,0.1,0.2v9.7c0,3.1-0.3,3.5-2.4,3.6v0.3h10.6v-0.3
			c-2.5,0-2.8-0.4-2.8-3.6v-9.7c0-0.1,0-0.1,0.1-0.2c0,0,0.1-0.1,0.2-0.1h2.3l1.1-1.4h-3.4c-0.1,0-0.1,0-0.2-0.1
			c0,0-0.1-0.1-0.1-0.2v-3.8c0-1.1,0.1-1.7,0.5-2.2c0.3-0.5,0.8-0.8,1.3-0.8c0.2,0,0.3,0.1,0.5,0.1c0.1,0.1,0.3,0.2,0.4,0.4
			c0.2,0.3,0.2,0.7,0.3,1.7c0.1,1.2,0.1,1.7,0.3,2.2c0.3,0.6,0.9,1.1,1.6,1.3l2.8-3.6c-0.8-1.5-2.8-2.5-5-2.5
			c-2.2,0-3.3,0.8-6.2,4.5l-3.5,4.4H36.2z"/>
		<path class="st2" d="M36,26.1v-8.8h-1.3c-0.1,0-0.2,0-0.2-0.1c-0.1,0-0.1-0.1-0.2-0.2c0-0.1-0.1-0.2,0-0.2c0-0.1,0-0.2,0.1-0.2
			l1.5-1.9c-0.6-0.8-1.3-1.5-2.1-2.2c-2.1-1.7-4.5-2.6-7.2-2.6c-2.7,0-5,0.9-7.2,2.6c-2.5,2-3.9,4.8-3.9,8c0,3.2,1.3,5.9,3.9,8
			c2.1,1.7,4.5,2.6,7.2,2.6C30.5,31.1,34,29.1,36,26.1z M30,28.3c-0.6,1.5-1.9,2.4-3.5,2.4c-3.1,0-4.5-3-4.5-10.2
			c0-7.2,1.3-10.2,4.5-10.2c3.2,0,4.5,3.1,4.5,10.3C31,23.9,30.7,26.5,30,28.3z"/>
		<path class="st2" d="M54.6,7.9c-2.2,0-3.3,0.9-6.1,4.5l-3.4,4.4h1.7v9.9c0,2.7-0.2,3.4-1.7,3.6c0,0,0,0,0,0.1v0.3h9.7v-0.3
			c-2.5,0-2.8-0.4-2.8-3.6v-9.9h2.5l0.8-1.4h-3.3v-4.1c0-1.1,0.1-1.7,0.4-2.2c0.3-0.5,0.8-0.8,1.2-0.8c0.2,0,0.3,0.1,0.5,0.2
			c0.2,0.1,0.3,0.2,0.4,0.4c0.2,0.3,0.2,0.7,0.3,1.7c0.1,1.3,0.1,1.7,0.3,2.2c0.4,0.8,1.3,1.3,2.3,1.3c1.3,0,2.3-0.9,2.3-2.3
			C59.9,9.6,57.5,7.9,54.6,7.9z"/>
	</g>
</g>
</svg>
