<?xml version="1.0" encoding="utf-8"?>
<!-- Generator: Adobe Illustrator 27.2.0, SVG Export Plug-In . SVG Version: 6.00 Build 0)  -->
<svg version="1.1" id="圖層_1" xmlns="http://www.w3.org/2000/svg" xmlns:xlink="http://www.w3.org/1999/xlink" x="0px" y="0px"
	 viewBox="0 0 105 38.6" style="enable-background:new 0 0 105 38.6;" xml:space="preserve">
<style type="text/css">
	.st0{clip-path:url(#SVGID_00000160180777151720544310000000442911295353102219_);}
	.st1{fill:none;}
	.st2{fill:#ABCD01;}
</style>
<g>
	<defs>
		<rect id="SVGID_1_" width="105" height="38.6"/>
	</defs>
	<clipPath id="SVGID_00000041273816216081130290000017718343993848525489_">
		<use xlink:href="#SVGID_1_"  style="overflow:visible;"/>
	</clipPath>
	<g style="clip-path:url(#SVGID_00000041273816216081130290000017718343993848525489_);">
		<path class="st1" d="M105,0H0v38.6h105V0z"/>
		<path class="st2" d="M27.3,24.5c-0.2-0.3-0.8-0.3-1-0.2l0,0v0c-0.7,1.6-2.6,4.4-7.1,4.4c-6,0-10.1-4-10.1-9.9
			c0-4.5,2.5-9.3,9.6-9.3c3.9,0,6.2,1.5,6.9,4.4v0l0,0c0.3,0.2,0.9,0.2,1.1-0.1l0,0v-0.1c-0.3-1.8-0.4-3.8-0.5-4.5V9.3h-0.1
			c-0.3,0-0.5,0-0.8-0.1l-0.1,0c-1.7-0.4-4.3-0.8-6.1-0.8c-3.6,0-6.9,0.9-9.3,2.6l0.1,0.1L9.8,11c-2.8,1.9-4.4,5-4.4,8.3
			c0,3.6,1.7,6.6,4.9,8.6c2.3,1.4,5.1,2.1,8.6,2.1c2.2,0,4.7-0.5,5.5-0.7c0.4-0.1,0.8-0.2,1.2-0.3h0l0,0c0.5-0.6,1.4-2.7,1.7-4.3v0
			V24.5z"/>
		<path class="st2" d="M37.7,18.1L35,16.5c-1.1-0.6-2.9-1.9-2.9-3.7c0-0.8,0.3-3.3,4-3.3c3.1,0,4.1,1.8,4.6,3.4l0,0.1
			c0.1,0.1,0.2,0.2,0.4,0.1c0.2,0,0.5-0.1,0.6-0.2l0,0v0c0-1.4-0.3-3.1-0.6-3.8l0-0.1H41c-0.2,0-0.7-0.1-1.2-0.2
			c-0.8-0.2-2.1-0.4-3.2-0.4c-4.3,0-7.1,2.2-7.1,5.4c0,2.6,2,4.4,3.8,5.4l3.3,1.9c2.4,1.4,2.8,2.9,2.8,4.2c0,1.7-1.3,3.4-4.2,3.4
			c-3.6,0-5.1-2.5-5.8-4.5l0,0c-0.1-0.1-0.2-0.2-0.4-0.2c-0.2,0-0.5,0.1-0.6,0.2l0,0v0.1c0.1,1.4,0.5,3.7,0.9,4.4l0,0l0,0
			c0.7,0.3,2.5,1.1,5.4,1.1h0.1c4.4,0,7.3-2.4,7.3-5.8C42.1,21.7,40.6,19.7,37.7,18.1z"/>
		<path class="st2" d="M65.2,29.2c0-0.1-0.1-0.2-0.2-0.3h0c-0.9-0.1-1.7-0.4-2.3-0.8c-2.4-1.8-4.3-4.4-6.9-8.2
			c-0.2-0.3-0.3-0.5-0.2-0.6c1-0.4,4.3-1.9,4.3-5.2c0-2.5-1.6-3.8-2.9-4.4c-1.7-0.8-3.9-0.9-5.8-0.9c-3.1,0-5.5,0.1-7.6,0.3h0
			c-0.2,0.1-0.3,0.2-0.3,0.4c0,0.2,0.1,0.4,0.2,0.5l1.1,0.1c1.3,0.1,1.4,0.5,1.4,3.5v11.1c0,3.2-0.1,3.5-2,3.8l-0.9,0.1l0,0
			c-0.2,0.2-0.2,0.4-0.1,0.6c0,0.2,0.1,0.3,0.2,0.4h0h0c1.5-0.1,2.8-0.1,4.3-0.1c1.3,0,2.5,0,4.1,0.1h0h0c0.2-0.1,0.2-0.3,0.2-0.4
			c0-0.2,0-0.4-0.2-0.5l0,0l-0.8-0.1c-1.9-0.2-2-0.5-2-3.8v-3.9c0-0.5,0-0.6,1.5-0.6c1.4,0,1.9,0.3,2.3,0.9c0.5,0.7,1.1,1.5,1.7,2.4
			c0.6,0.9,1.2,1.7,1.6,2.3c2.3,3,4.1,3.9,7.2,3.9c0.6,0,1.2-0.1,1.5-0.2l0,0C65.1,29.5,65.2,29.4,65.2,29.2z M49,10.8
			c0-0.8,0-0.9,2.1-0.9c4,0,5.4,2.5,5.4,4.6c0,1.7-0.5,2.9-1.7,3.7c-1,0.7-2.4,0.8-3.5,0.8c-1.8,0-2.2-0.1-2.3-0.1
			C49,18.9,49,18.5,49,18v-0.1L49,10.8L49,10.8z"/>
		<path class="st2" d="M87.6,26.5c-2.9-1-4.6-2.6-5.2-4.7h4c0.4,0,0.5-0.1,0.7-0.2l0-0.1l-1.6-1.1l-0.8,1h-2.5c0.1-1,0.2-2,0.2-3.1
			V18h4.5c0.4,0,0.5-0.1,0.7-0.2l0-0.1L86,16.6l-0.8,1h-9.1l0.1,0.4h4.6c0,1.2,0,2.3-0.1,3.3h-4l0.1,0.4h3.9c-0.3,1.9-1.1,4-4.6,5.8
			l-0.1,0l0.2,0.3l0.1,0c3.6-1.3,5.3-3,5.9-5.9c0.5,2.8,2,4.8,4.3,5.9l0.1,0.1l0-0.1c0.1-0.7,0.4-1,1.1-1.1h0.1V26.5L87.6,26.5z"/>
		<path class="st2" d="M98,16.5v-0.2l-0.9,1.2h-9.1l0.1,0.4h4.7v10h0.3c0.7,0,1.2-0.3,1.2-0.5v-6.6c1.1,0.7,2.3,1.7,2.9,2.7v0h0
			c0.2,0.1,0.3,0.1,0.5,0.1c0.4,0,0.7-0.3,0.7-0.8c0-0.5-0.3-1-0.9-1.4c-0.7-0.5-1.8-0.9-3.2-1V18h4.6c0.4,0,0.5-0.1,0.7-0.3l0-0.1
			L98,16.5z"/>
		<path class="st2" d="M74.3,19.8c-0.2-0.5-0.4-0.9-0.8-1.3c-0.4-0.4-0.8-0.7-1.4-0.9c-0.6-0.2-1.3-0.3-2-0.3
			c-0.9,0-1.7,0.2-2.5,0.4c-0.8,0.3-1.4,0.7-1.9,1.2c-0.5,0.5-0.9,1.1-1.2,1.7c-0.3,0.7-0.4,1.3-0.4,2c0,0.8,0.2,1.5,0.5,2.1
			c0.3,0.6,0.7,1.1,1.3,1.5c0.5,0.4,1.1,0.7,1.8,0.9c0.7,0.2,1.3,0.3,2,0.3c0.8,0,1.4-0.1,2.1-0.3c0.6-0.2,1.1-0.5,1.6-0.9l0,0v-0.1
			l-0.3-0.4l-0.1,0.1c-0.4,0.3-0.9,0.6-1.5,0.7c-0.5,0.2-1.2,0.3-1.9,0.3c-0.6,0-1.2-0.1-1.7-0.3c-0.5-0.2-1-0.4-1.4-0.8
			c-0.4-0.4-0.7-0.8-0.9-1.4c-0.2-0.5-0.3-1.1-0.3-1.9c0-0.7,0.1-1.4,0.4-2c0.3-0.6,0.7-1.1,1.1-1.5c0.5-0.4,1-0.7,1.5-0.9
			c0.6-0.2,1.1-0.3,1.7-0.3c0.6,0,1.2,0.1,1.7,0.3c0.5,0.2,0.9,0.4,1.2,0.7c0.3,0.3,0.6,0.7,0.7,1c0.2,0.4,0.2,0.8,0.2,1.3
			c0,0.9-0.2,1.7-0.7,2.2c-0.4,0.5-1,0.8-1.7,0.8c-0.2,0-0.3-0.1-0.4-0.1c-0.1-0.1-0.2-0.2-0.2-0.4c0-0.1,0-0.2,0-0.3
			c0-0.1,0.1-0.2,0.1-0.3l1.3-3.3h-1.1l-0.3,0.6c-0.1-0.2-0.2-0.3-0.3-0.5c-0.2-0.1-0.4-0.2-0.7-0.2c-0.5,0-0.9,0.1-1.3,0.4
			c-0.4,0.2-0.7,0.5-1,0.9c-0.3,0.3-0.5,0.7-0.6,1c-0.2,0.4-0.2,0.7-0.2,1c0,0.3,0.1,0.6,0.1,0.8c0.1,0.2,0.2,0.4,0.4,0.5
			c0.2,0.1,0.3,0.2,0.5,0.3c0.2,0.1,0.4,0.1,0.6,0.1c0.3,0,0.6-0.1,0.9-0.3c0.3-0.2,0.5-0.4,0.7-0.6c0.1,0.3,0.2,0.5,0.4,0.7
			c0.3,0.2,0.6,0.3,1,0.3c0.9,0,1.7-0.3,2.3-1c0.6-0.7,0.9-1.5,0.9-2.5C74.6,20.8,74.5,20.3,74.3,19.8z M70.7,21.2l-0.8,2
			c-0.2,0.3-0.4,0.6-0.7,0.8c-0.2,0.2-0.5,0.3-0.8,0.3c-0.2,0-0.3-0.1-0.4-0.2c-0.1-0.2-0.1-0.4-0.1-0.8c0-0.3,0.1-0.6,0.1-0.9
			c0.1-0.3,0.2-0.7,0.4-1c0.2-0.3,0.3-0.5,0.6-0.7c0.2-0.2,0.5-0.3,0.7-0.3c0.3,0,0.4,0.1,0.5,0.2C70.6,20.6,70.7,20.9,70.7,21.2z"
			/>
	</g>
</g>
</svg>
