<?xml version="1.0" encoding="utf-8"?>
<!-- Generator: Adobe Illustrator 27.2.0, SVG Export Plug-In . SVG Version: 6.00 Build 0)  -->
<svg version="1.1" id="圖層_1" xmlns="http://www.w3.org/2000/svg" xmlns:xlink="http://www.w3.org/1999/xlink" x="0px" y="0px"
	 viewBox="0 0 79.8 38" style="enable-background:new 0 0 79.8 38;" xml:space="preserve">
<style type="text/css">
	.st0{fill:none;}
	.st1{fill:#3C00B4;}
</style>
<rect class="st0" width="79.8" height="38"/>
<path class="st1" d="M22.4,14.2h-5.5c0.7,1,1.6,1.9,2.6,2.8c1.1,0.9,2.1,1.5,3.2,2c-0.3,0.3-0.7,0.7-1.1,1.3c-1-0.5-2-1.2-2.9-2.1
	c-1-0.9-1.8-1.8-2.6-2.8v5.7h-1.5v-5.6c-0.7,1-1.6,1.9-2.6,2.7c-1,0.8-1.9,1.5-2.9,2c-0.3-0.5-0.7-0.9-1.1-1.3
	c1.1-0.5,2.1-1.2,3.2-2c1-0.9,1.9-1.8,2.6-2.8H8.5v-1.5h6.1v-2.5h-5V8.7h5V6.2h1.5v2.6h5.1v1.5h-5.1v2.5h6.2L22.4,14.2L22.4,14.2z"
	/>
<path class="st1" d="M38.6,14.5l-1,1c-0.4-0.4-1.1-1.1-2.3-2.1c-0.4,0.7-0.8,1.3-1.2,1.7c-0.4-0.3-0.8-0.6-1.2-0.8
	c0.7,1,1.6,1.9,2.7,2.8c1.1,0.8,2.2,1.5,3.4,2c-0.4,0.3-0.8,0.8-1.1,1.4c-2.1-1-3.9-2.5-5.5-4.5v5.2h-1.6v-5.1
	c-1.6,2-3.4,3.5-5.5,4.5c-0.4-0.6-0.7-1-1-1.3c1.3-0.5,2.5-1.3,3.7-2.3s2.1-2.1,2.8-3.2V9.9h-5.9V8.3h5.9V6.2h1.5v2.1h6.1v1.5h-6.1
	v3.7c0.1,0.2,0.3,0.5,0.4,0.7c1-0.9,1.8-2.3,2.2-4.2l1.4,0.3c-0.1,0.7-0.3,1.3-0.6,1.8C37.3,13.2,38.2,14,38.6,14.5L38.6,14.5z
	 M27.6,10l1.4,0.3c-0.1,0.6-0.3,1.2-0.6,1.8c0.8,0.7,1.3,1.2,1.7,1.6l-1,1.1c-0.2-0.3-0.6-0.7-1.3-1.4c-0.5,1-1.2,1.8-1.9,2.4
	c-0.3-0.4-0.7-0.7-1.1-1C26.2,13.8,27.1,12.2,27.6,10L27.6,10z"/>
<path class="st1" d="M53.4,11.6l1.3,0.2c-0.5,2.1-1.2,3.9-2.2,5.5c0.4,1.4,0.7,2.2,1.1,2.2c0.3,0,0.4-0.9,0.5-2.6
	c0.3,0.4,0.7,0.6,1,0.8c-0.1,1.2-0.3,2.1-0.5,2.5s-0.6,0.7-1.2,0.7c-0.8,0-1.4-0.7-1.9-2.1c-0.7,0.9-1.6,1.7-2.4,2.3
	c-0.2-0.3-0.5-0.6-1-1c1.2-0.8,2.2-1.7,3-2.9c-0.4-1.7-0.6-4.2-0.7-7.2H47v2h2.9c0,0.3,0,0.4,0,0.5c0,1.9-0.1,3.3-0.1,4
	c0,0.8-0.1,1.2-0.3,1.4c-0.2,0.3-0.5,0.4-0.8,0.5s-0.8,0.1-1.4,0c0-0.5-0.2-0.9-0.3-1.3c0.3,0,0.7,0.1,1.1,0.1
	c0.2,0,0.3-0.1,0.4-0.2c0.1-0.2,0.2-1.5,0.2-3.9h-1.6v0.6c0,3.4-0.7,5.9-2,7.4c-0.1-0.1-0.3-0.3-0.5-0.5s-0.4-0.3-0.6-0.4
	c0.7-0.8,1.1-1.8,1.4-3c-0.2,0.1-1.6,0.7-4.3,1.8l-0.5-1.5c0.3-0.1,0.9-0.3,1.8-0.6v-5.4h-1.6v-1.4h1.5V6.3h1.4V10h1.4v1.5h-1.4v4.9
	l1.4-0.5l0.3,1.3c0.2-1,0.3-2.2,0.3-3.5V8.5h4.7c0-0.8,0-1.6,0-2.4h1.4c0,0.5,0,1.3,0,2.4h1.7c-0.4-0.5-0.9-1.1-1.6-1.7l1-0.6
	c0.8,0.6,1.3,1.3,1.7,1.9l-0.7,0.4H55v1.4h-3.2c0.1,1.9,0.2,3.6,0.4,5.3C52.7,14.2,53.1,13,53.4,11.6L53.4,11.6z"/>
<path class="st1" d="M71.1,9.8h-6.4v2h5v5.6c0,0.8-0.2,1.3-0.7,1.5c-0.4,0.2-1.4,0.3-2.8,0.3c-0.1-0.5-0.3-1-0.5-1.5
	c0.4,0,0.9,0,1.3,0c0.5,0,0.7,0,0.8,0c0.1,0,0.2,0,0.3-0.1c0,0,0.1-0.1,0.1-0.2v-4.1h-3.5v7.9h-1.5v-7.9H60v5.9h-1.5v-7.4h4.7v-2
	h-6.3V8.3h6.3V6.1h1.6v2.2h6.4v1.5H71.1z"/>
<path class="st1" d="M54.4,30.6c-0.5,0-0.9-0.1-1.3-0.3c-0.4-0.2-0.7-0.5-1-0.9c-0.2-0.4-0.4-0.9-0.4-1.5c0-0.5,0.1-1,0.3-1.4
	s0.4-0.8,0.7-1.1c0.3-0.3,0.6-0.5,1-0.7c0.4-0.2,0.8-0.2,1.2-0.2c0.8,0,1.4,0.2,1.8,0.7s0.7,1.1,0.7,1.9c0,0.3,0,0.6-0.1,0.9
	s-0.2,0.5-0.4,0.6c-0.2,0.2-0.3,0.3-0.5,0.4s-0.4,0.1-0.5,0.1c-0.2,0-0.4,0-0.5-0.2c-0.1-0.1-0.2-0.2-0.3-0.4l0,0
	c-0.1,0.2-0.3,0.3-0.4,0.4C54.5,29,54.4,29,54.2,29c-0.3,0-0.5-0.1-0.7-0.3c-0.2-0.2-0.3-0.5-0.3-0.8c0-0.5,0.1-0.9,0.4-1.2
	c0.3-0.4,0.6-0.6,1-0.6c0.3,0,0.5,0.1,0.6,0.4l0,0l0.1-0.3h0.5l-0.3,1.6c-0.1,0.5,0,0.8,0.4,0.8c0.2,0,0.5-0.1,0.7-0.4
	s0.3-0.6,0.3-1.1c0-0.6-0.2-1.1-0.5-1.5S55.5,25,54.9,25c-0.3,0-0.6,0.1-1,0.2c-0.3,0.1-0.6,0.3-0.8,0.6c-0.2,0.2-0.4,0.6-0.6,0.9
	c-0.1,0.4-0.2,0.8-0.2,1.2c0,0.7,0.2,1.3,0.6,1.7c0.4,0.4,0.9,0.6,1.6,0.6c0.4,0,0.8-0.1,1.2-0.3l0.2,0.5
	C55.4,30.4,54.9,30.6,54.4,30.6L54.4,30.6z M54.3,28.4c0.2,0,0.4-0.1,0.6-0.4l0.2-1.2c-0.1-0.2-0.3-0.3-0.4-0.3
	c-0.3,0-0.5,0.1-0.6,0.4c-0.2,0.3-0.3,0.6-0.3,0.9C53.8,28.2,54,28.4,54.3,28.4L54.3,28.4z"/>
<path class="st1" d="M64,27.5h-2.3c0.4,1.3,1.3,2.1,2.6,2.4c-0.2,0.2-0.3,0.4-0.4,0.6c-0.6-0.2-1.2-0.5-1.6-0.8
	c-0.4-0.4-0.8-0.9-1-1.5c-0.4,1.1-1.3,1.9-2.7,2.3c0-0.1-0.1-0.2-0.2-0.3s-0.1-0.2-0.2-0.3c0.4-0.1,0.8-0.3,1.1-0.5
	c0.3-0.2,0.6-0.4,0.8-0.6c0.2-0.2,0.3-0.4,0.4-0.7c0.1-0.2,0.2-0.5,0.2-0.7h-2.2v-0.6h2.3c0-0.1,0-0.2,0-0.3v-1h-2.5v-0.6H64v0.6
	h-2.6v1.1c0,0.1,0,0.2,0,0.3h2.4L64,27.5L64,27.5z"/>
<path class="st1" d="M70.9,25.5h-2.7v1.1l0.1-0.1c0.4,0.2,0.8,0.4,1.3,0.7c0.4,0.3,0.8,0.5,1,0.7l-0.4,0.6c-0.4-0.4-1.1-0.8-1.9-1.3
	v3.3h-0.7v-5h-2.4v-0.6H71v0.6H70.9z"/>
<path class="st1" d="M9.6,24.3h3.2v0.8h-2.3v1.7h2.3v0.7h-2.3v2.8H9.6C9.6,30.3,9.6,24.3,9.6,24.3z"/>
<path class="st1" d="M16.1,30.3v-0.5c-0.2,0.2-0.4,0.3-0.6,0.4s-0.4,0.2-0.6,0.2s-0.5-0.1-0.7-0.2s-0.4-0.3-0.5-0.5
	s-0.2-0.6-0.2-1.1v-2.3h0.8v2.2c0,0.4,0.1,0.7,0.2,0.9s0.3,0.2,0.6,0.2c0.4,0,0.7-0.2,0.9-0.5v-2.8h0.8v3.9L16.1,30.3L16.1,30.3z"/>
<path class="st1" d="M17.4,27l1.5-1.4v0.8h1.2v0.7h-1.2V29c0,0.5,0.2,0.7,0.6,0.7c0.3,0,0.6-0.1,0.9-0.3v0.7c-0.3,0.2-0.6,0.3-1,0.3
	s-0.7-0.1-0.9-0.3c-0.1-0.1-0.1-0.1-0.2-0.2c0-0.1-0.1-0.2-0.1-0.3c0-0.1,0-0.4,0-0.7v-1.7L17.4,27L17.4,27L17.4,27z"/>
<path class="st1" d="M23.4,30.3v-0.5c-0.2,0.2-0.4,0.3-0.6,0.4c-0.2,0.1-0.4,0.2-0.6,0.2c-0.2,0-0.5-0.1-0.7-0.2s-0.4-0.3-0.5-0.5
	s-0.2-0.6-0.2-1.1v-2.3h0.8v2.2c0,0.4,0.1,0.7,0.2,0.9c0.1,0.2,0.3,0.2,0.6,0.2c0.4,0,0.7-0.2,0.9-0.5v-2.8h0.8v3.9L23.4,30.3
	L23.4,30.3z"/>
<path class="st1" d="M26.1,26.3v0.9v-0.1c0.4-0.6,0.8-0.9,1.1-0.9s0.6,0.1,0.9,0.4l-0.3,0.8C27.5,27.1,27.3,27,27,27
	s-0.5,0.1-0.7,0.4c-0.2,0.2-0.3,0.5-0.3,0.9v2.1h-0.8v-3.9h0.9V26.3z"/>
<path class="st1" d="M31.9,28.4h-2.8c0,0.4,0.1,0.7,0.4,0.9c0.2,0.2,0.5,0.3,0.9,0.3c0.5,0,1-0.2,1.4-0.5v0.8
	c-0.2,0.2-0.5,0.3-0.7,0.3c-0.2,0.1-0.5,0.1-0.8,0.1c-0.4,0-0.8-0.1-1.1-0.3c-0.3-0.2-0.5-0.4-0.6-0.7c-0.2-0.3-0.2-0.7-0.2-1.1
	c0-0.6,0.2-1.1,0.5-1.5s0.8-0.6,1.3-0.6s0.9,0.2,1.3,0.5C31.8,27.2,31.9,27.7,31.9,28.4L31.9,28.4L31.9,28.4z M29.2,27.9h2
	c0-0.3-0.1-0.5-0.3-0.7s-0.4-0.3-0.7-0.3s-0.5,0.1-0.7,0.3C29.3,27.4,29.2,27.6,29.2,27.9L29.2,27.9z"/>
<path class="st1" d="M40.5,28.9v0.9c-0.6,0.3-1.4,0.5-2.2,0.5c-0.7,0-1.2-0.1-1.7-0.4s-0.8-0.6-1.1-1.1s-0.4-1-0.4-1.5
	c0-0.9,0.3-1.6,0.9-2.2c0.6-0.6,1.4-0.9,2.3-0.9c0.6,0,1.3,0.2,2.1,0.5v0.9C39.7,25.2,39,25,38.3,25s-1.3,0.2-1.7,0.6
	c-0.5,0.4-0.7,1-0.7,1.6s0.2,1.2,0.7,1.6c0.4,0.4,1,0.6,1.7,0.6C39,29.6,39.8,29.3,40.5,28.9L40.5,28.9z"/>
<path class="st1" d="M41.8,24.7c0.1,0,0.2,0,0.3,0.1s0.1,0.2,0.1,0.3c0,0.1,0,0.2-0.1,0.3c-0.1,0.1-0.2,0.1-0.3,0.1s-0.2,0-0.3-0.1
	s-0.1-0.2-0.1-0.3c0-0.1,0-0.2,0.1-0.3C41.6,24.7,41.7,24.7,41.8,24.7z M41.4,26.3h0.8v3.9h-0.8V26.3z"/>
<path class="st1" d="M42.8,27l1.5-1.4v0.8h1.2v0.7h-1.2V29c0,0.5,0.2,0.7,0.6,0.7c0.3,0,0.6-0.1,0.9-0.3v0.7c-0.3,0.2-0.6,0.3-1,0.3
	s-0.7-0.1-0.9-0.3c-0.1-0.1-0.1-0.1-0.2-0.2c0-0.1-0.1-0.2-0.1-0.3c0-0.1,0-0.4,0-0.7v-1.7L42.8,27L42.8,27L42.8,27z"/>
<path class="st1" d="M48.7,26.3h0.9l-2.8,5.9h-0.9l1.3-2.9l-1.5-3.1h0.9l1.1,2.2L48.7,26.3z"/>
</svg>
