<?xml version="1.0" encoding="utf-8"?>
<!-- Generator: Adobe Illustrator 27.2.0, SVG Export Plug-In . SVG Version: 6.00 Build 0)  -->
<svg version="1.1" id="圖層_1" xmlns="http://www.w3.org/2000/svg" xmlns:xlink="http://www.w3.org/1999/xlink" x="0px" y="0px"
	 viewBox="0 0 120 44" style="enable-background:new 0 0 120 44;" xml:space="preserve">
<style type="text/css">
	.st0{clip-path:url(#SVGID_00000155116356809335029530000000837981935690420615_);}
	.st1{fill:none;}
	.st2{fill-rule:evenodd;clip-rule:evenodd;fill:#FF9900;}
	.st3{fill-rule:evenodd;clip-rule:evenodd;}
</style>
<g>
	<defs>
		<rect id="SVGID_1_" width="120" height="44"/>
	</defs>
	<clipPath id="SVGID_00000176762888020373065290000000745048058552124848_">
		<use xlink:href="#SVGID_1_"  style="overflow:visible;"/>
	</clipPath>
	<g style="clip-path:url(#SVGID_00000176762888020373065290000000745048058552124848_);">
		<rect class="st1" width="120" height="44"/>
		<path class="st2" d="M60.1,20.8c23.4,0,43.4,7.5,50.7,17.9c-7.9-9.7-27.6-16.6-50.7-16.6S17.3,29,9.4,38.7
			C16.7,28.3,36.7,20.8,60.1,20.8"/>
		<path class="st3" d="M72.5,7.1h-2.8l0.7-1.6L70,5.3l-0.8,1.8h-0.1v0h-0.1v4h0.4v0h1v1l-0.2-0.1l0,0l-1.1-0.5L69,11.9l1.1,0.5
			l-1.7,4.4l0.4,0.2l1.7-4.3v4.7h0.4v-4.7l1.7,4.3l0.4-0.2l-1.7-4.4l1.1-0.5l-0.2-0.4L71,12l0,0L70.8,12v-0.9h0.8v0H72V7.5h0.5V7.1z
			 M49.9,7.9L51,5.5l0.4,0.2l-0.5,1.1h1.4l0.1-0.3l0.4,0.2l-0.9,2.2H53V8.7h0.4v5.3H54v0.4h-2l1.9,3l-0.3,0.2l-2-3.1l-2,3.1
			l-0.3-0.2l1.9-3h-2v-0.4h0.7V8.7h0.4v0.2h1.1l0.7-1.7h-1.4v0l-0.6,1.3l-0.4-0.2h-1.1v3.3l0.5-0.5l0.3,0.3l-0.8,0.9v5.1h-0.4v0
			l-1-0.5l0.2-0.4l0.8,0.4v-4.2l-0.6,0.7l-0.3-0.3l0.9-1.1V8.4h-0.8V7.9h0.8V5.6h0.4v2.3H49.9z M53,9.3v4.6h-1.3V9.3H53z M51.4,9.3
			v4.6h-1.1V9.3H51.4z M52.5,11.5c0-0.2-0.1-0.3-0.3-0.3c-0.2,0-0.3,0.1-0.3,0.3c0,0.2,0.1,0.3,0.3,0.3
			C52.4,11.8,52.5,11.7,52.5,11.5z M66.7,12.2h-0.9l0,0l-0.1,0h0v0L65.4,12l2.1-3.4h-3.2V8.2h1.9l1.1-2.6l0.4,0.2l-1.1,2.4h1.3v0.4
			h0l0,0L66,11.8h1.8l-0.6-1.1l0.3-0.2l1.6,2.7l-0.3,0.2l-0.7-1.2h-1v5.1h-0.4v-3.9L65.2,15l-0.3-0.3l1.8-2V12.2z M69.5,10.6h2.1
			V9.3h-2.1V10.6z M71.6,7.5h-2.1v1.3h2.1V7.5z M68,13.9c0-0.2-0.1-0.3-0.3-0.3s-0.3,0.1-0.3,0.3s0.1,0.3,0.3,0.3S68,14,68,13.9z
			 M56.7,6.1h0.4v0.6h4.7V6.1h0.4v11h-0.4v-1.5h-4.7V17h-0.4V6.1z M57.1,15.1V11h4.7v4.1H57.1z M61.8,7.1v3.6h-4.7V7.1H61.8z"/>
		<path d="M79.1,33.1c0-1.3,0.4-2.4,1.3-3.3s1.9-1.3,3.2-1.3v0.7c-1.1,0-2,0.4-2.7,1.1c-0.7,0.7-1.1,1.7-1.1,2.8
			c0,1,0.3,1.8,0.9,2.5c0.6,0.7,1.3,1.1,2.3,1.4v-6.1h0.7v6.9c-1.3-0.1-2.4-0.6-3.2-1.4C79.5,35.5,79.1,34.5,79.1,33.1L79.1,33.1z
			 M76,37.8v-7l-1.9-1.2v8.2h-0.7v-9.4L76,30v-1.4h0.7v9.2H76z M69.9,37.8v-9.2h0.7v9.2H69.9z M64.6,37.1c0.8,0,1.3,0,1.6-0.1
			c0.5-0.2,0.8-0.6,0.8-1.2c0-0.5-0.2-1-0.5-1.7c-0.3-0.7-0.7-1.3-1-1.9c-0.4-0.7-0.6-1.3-0.6-1.8c0-0.6,0.2-1,0.5-1.3
			c0.4-0.3,0.8-0.4,1.4-0.4h0.5v0.7c-0.6,0-1,0-1.2,0.1c-0.4,0.1-0.6,0.5-0.6,0.9c0,0.5,0.2,1.1,0.5,1.8c0.3,0.6,0.7,1.2,1,1.8
			c0.4,0.7,0.6,1.4,0.6,1.9c0,0.7-0.2,1.2-0.7,1.5c-0.4,0.3-1,0.5-1.6,0.5h-0.7L64.6,37.1L64.6,37.1z M59.9,37.1
			c0.8,0,1.3,0,1.6-0.1c0.5-0.2,0.8-0.6,0.8-1.2c0-0.5-0.2-1-0.5-1.7c-0.3-0.7-0.7-1.3-1-1.9c-0.4-0.7-0.6-1.3-0.6-1.8
			c0-0.6,0.2-1,0.5-1.3c0.4-0.3,0.8-0.4,1.4-0.4h0.5v0.7c-0.6,0-1,0-1.2,0.1c-0.4,0.1-0.6,0.5-0.6,0.9c0,0.5,0.2,1.1,0.5,1.8
			c0.3,0.6,0.7,1.2,1,1.8c0.4,0.7,0.6,1.4,0.6,1.9c0,0.7-0.2,1.2-0.7,1.5c-0.4,0.3-1,0.5-1.6,0.5h-0.7L59.9,37.1L59.9,37.1z
			 M49.4,33.2c0,1.1,0.4,2.1,1.2,2.9c0.8,0.8,1.7,1.2,2.8,1.2c1.1,0,2-0.4,2.8-1.2c0.8-0.8,1.2-1.7,1.2-2.8c0-1.2-0.4-2.2-1.2-2.9
			c-0.8-0.8-1.8-1.2-2.9-1.2c-1.1,0-2,0.4-2.7,1.2C49.7,31.1,49.4,32.1,49.4,33.2L49.4,33.2z M58,33.2c0,1.3-0.5,2.4-1.4,3.3
			c-0.9,0.9-2,1.4-3.3,1.4c-1.3,0-2.4-0.4-3.3-1.3s-1.4-2-1.4-3.3c0-1.3,0.5-2.5,1.4-3.4c0.9-0.9,2-1.4,3.4-1.4
			c1.3,0,2.3,0.5,3.2,1.4S58,31.9,58,33.2L58,33.2z M45.9,32.3c0-0.8-0.3-1.5-0.8-2.1c-0.5-0.6-1.2-0.9-2-1v6c0.8-0.1,1.5-0.4,2-0.9
			C45.6,33.8,45.9,33.1,45.9,32.3L45.9,32.3z M45.4,37.8l-2.3-2v2h-0.7v-9.2h0.5c1,0,1.9,0.3,2.6,1c0.7,0.7,1.1,1.6,1.1,2.6
			c0,0.8-0.2,1.5-0.7,2.1c-0.4,0.6-1.1,1.1-1.8,1.4l2.4,2L45.4,37.8L45.4,37.8z M35.7,33.2c0-1.3,0.4-2.4,1.3-3.3
			c0.9-0.9,1.9-1.3,3.2-1.3v0.7c-1.1,0-2,0.4-2.7,1.1c-0.8,0.8-1.1,1.7-1.1,2.8c0,1.1,0.4,2,1.1,2.8c0.7,0.8,1.7,1.1,2.7,1.1v0.7
			c-1.2,0-2.3-0.4-3.2-1.3C36.1,35.6,35.7,34.5,35.7,33.2L35.7,33.2z"/>
	</g>
</g>
</svg>
