<?xml version="1.0" encoding="utf-8"?>
<!-- Generator: Adobe Illustrator 27.2.0, SVG Export Plug-In . SVG Version: 6.00 Build 0)  -->
<svg version="1.1" id="圖層_1" xmlns="http://www.w3.org/2000/svg" xmlns:xlink="http://www.w3.org/1999/xlink" x="0px" y="0px"
	 viewBox="0 0 106 39" style="enable-background:new 0 0 106 39;" xml:space="preserve">
<style type="text/css">
	.st0{clip-path:url(#SVGID_00000145042369966717839020000001075845828748425374_);}
	.st1{fill:none;}
	.st2{fill:#3A9AAF;}
</style>
<g>
	<defs>
		<rect id="SVGID_1_" x="0.5" y="0" width="105" height="38.6"/>
	</defs>
	<clipPath id="SVGID_00000030473275038432022670000010422379810763074717_">
		<use xlink:href="#SVGID_1_"  style="overflow:visible;"/>
	</clipPath>
	<g style="clip-path:url(#SVGID_00000030473275038432022670000010422379810763074717_);">
		<path class="st1" d="M105.5,0H0.5v38.6h105V0z"/>
		<path class="st2" d="M19.8,20.7c0.1-0.3,0.2-0.4,0.5-0.3L19.8,20.7z"/>
		<path class="st2" d="M89.1,18.5c-0.1,0-0.1,0.1-0.1,0.1l0.1,0.1C89.1,18.6,89.1,18.6,89.1,18.5C89.1,18.5,89.1,18.5,89.1,18.5z"/>
		<path class="st2" d="M88.6,18.9c0.1-0.1,0.2-0.2,0.3-0.2c0,0,0.1,0,0.1-0.1l-0.2,0c-0.1,0.1-0.2,0.1-0.2,0.2l-0.1,0.1
			C88.5,18.9,88.5,18.9,88.6,18.9C88.6,18.9,88.6,18.9,88.6,18.9z"/>
		<path class="st2" d="M84.2,32L84.2,32c0.1,0,0.1,0,0.2,0c0.1,0,0.1,0,0.2,0c0,0,0.1,0,0.1,0c0.1,0,0.2,0.1,0.3,0.1l0.1,0
			c0.1,0,0.1,0.1,0.1,0.1v-0.1h0.4c0,0-0.1,0-0.1,0c-0.1-0.1-0.2-0.1-0.3-0.1c-0.1,0-0.1,0-0.1,0c-0.1,0-0.3-0.1-0.4-0.1
			c-0.2,0-0.4-0.1-0.5-0.1c-0.1,0-0.2-0.1-0.2-0.1h0c-0.1,0.1-0.1,0.1-0.1,0.1s-0.1,0-0.1,0v0.1h-0.1l0.4,0.3L84.2,32L84.2,32z"/>
		<path class="st2" d="M95.8,14.1c0.1-0.1,0.2-0.1,0.3-0.1c0.1,0,0.3-0.1,0.4-0.1l0,0h0.1l0.2-0.1v0c0-0.1,0-0.1,0-0.1
			c0-0.1,0-0.3,0.1-0.4c0.1-0.2,0.1-0.3,0.1-0.5c0-0.1-0.1-0.2-0.1-0.3c-0.1-0.1-0.3-0.1-0.4-0.2c-0.1,0-0.2,0-0.3-0.1
			c-0.1,0-0.2-0.1-0.2,0c-0.1,0-0.2,0.1-0.3,0.1c-0.1,0-0.2,0.1-0.3,0.1c-0.2,0-0.4,0.1-0.6,0.1c-0.3,0.1-0.7,0.1-1,0.2
			c-0.3,0.1-0.6,0.1-0.8,0.2c-0.1,0-0.2,0.1-0.4,0.1c-0.3,0.1-0.7,0.2-1.1,0.3c-0.1,0-0.1,0-0.1,0l-0.1,0v-0.1c0-0.1,0-0.1,0-0.2
			c0-0.1,0-0.2,0.1-0.3c0-0.1,0.1-0.2,0.1-0.3c0.1-0.4,0.2-0.8,0.2-1.2c0-0.3-0.1-0.6-0.1-0.9c-0.1-0.4,0-0.5,0.3-0.7
			c0.1-0.1,0.2-0.1,0.2-0.2V9.2l0.4-0.1c0,0,0.1,0,0.1-0.1c0.1-0.1,0.1-0.1,0.2-0.1c0.1,0,0.2-0.1,0.2-0.2c0.1-0.1,0.1-0.1,0.2-0.2
			c0,0,0-0.1,0-0.1c0,0,0-0.1,0-0.1c0,0,0-0.1,0-0.1c0,0,0-0.1,0-0.1c0-0.2,0.1-0.3,0.1-0.5c0-0.1,0.1-0.2,0.2-0.2l0.1,0l0.1,0
			c0.1,0,0.1,0,0.1-0.1c0,0,0,0,0.1-0.1c-0.1,0-0.1-0.1-0.1-0.1c-0.2-0.1-0.3-0.1-0.4,0c-0.1,0.1-0.3,0.2-0.4,0.2l-0.1,0.1
			c-0.1,0.1-0.2,0.1-0.3,0.2c-0.2,0.1-0.4,0.2-0.6,0.3C91.6,8,91.5,8,91.3,8.1c-0.1,0.1-0.2,0.1-0.3,0.2c-0.1,0-0.1,0-0.2,0
			l-0.1-0.1l0.1-0.1h0C90.9,8.1,90.9,8,91,8c0.1-0.2,0.2-0.4,0.2-0.6V7.3c0-0.3,0.1-0.5-0.2-0.7c-0.1,0-0.1-0.1-0.1-0.1v0
			c-0.2-0.3-0.4-0.6-0.8-0.8c-0.4-0.2-0.8-0.3-1.2-0.3c-0.1,0-0.1,0-0.1,0c-0.2,0-0.4,0-0.6,0.1c-0.1,0.1-0.3,0.2-0.5,0.3l-0.1,0.1
			c0,0,0.1,0,0.1,0.1C87.7,6,87.8,6,87.8,6c0.1,0.1,0.2,0.1,0.3,0.2c0.2,0.2,0.4,0.4,0.6,0.6C88.8,6.9,88.9,7,89,7.1
			c0.1,0.1,0.2,0.3,0.2,0.4c0,0.1-0.1,0.2-0.2,0.4c-0.3,0.3-0.6,0.5-0.8,0.7c0,0,0,0,0,0c0.1-0.1,0.2-0.1,0.3-0.2
			c0.2-0.1,0.5-0.1,0.7-0.1c0.2,0,0.4,0,0.6,0.1c0.1,0,0.2,0,0.2,0c0.1,0,0.1,0,0.2,0l0.3,0.1l-0.2,0.2l0.7-0.2l-0.3,0.3
			c0,0-0.1,0.1-0.1,0.1c-0.1,0.1-0.1,0.1-0.1,0.1C90.4,9,90.2,9,90.1,9.1c-0.2,0.1-0.3,0.2-0.5,0.2l-0.4,0.2
			c-0.4,0.2-0.8,0.4-1.2,0.6c-0.1,0-0.1,0-0.1,0c0,0-0.1,0-0.1,0l-0.2,0l0.1-0.1c-0.1,0-0.2,0.1-0.3,0.1l-0.1,0.1
			c-0.2,0.1-0.4,0.2-0.7,0.3c-0.2,0.1-0.3,0.1-0.5,0.2c-0.4,0.2-0.8,0.4-1.3,0.5c-0.3,0.1-0.6,0.1-1,0v0c-0.1,0.1-0.1,0.3-0.1,0.5
			c0,0,0,0.1,0,0.1c0,0.1,0.1,0.1,0.1,0.1c0.1,0.1,0.1,0.3,0.1,0.5c0,0.1,0.1,0.2,0.2,0.3c0.3,0.3,0.6,0.4,1,0.5
			c0.2,0,0.4,0,0.6-0.1l0.1,0c0.2-0.1,0.5-0.1,0.6-0.3c0-0.1,0.2-0.2,0.2-0.1c0.1,0,0.3,0,0.4-0.1c0.1-0.1,0.2-0.1,0.3-0.1
			c0.1,0,0.2-0.1,0.3-0.2c0.1,0,0.1-0.1,0.2-0.1l0.1-0.1v0.2c0,0,0,0,0,0.1c0,0,0,0.1,0,0.1c-0.2,0.5-0.2,1-0.2,1.5
			c0,0.1,0,0.3,0,0.4c0,0.1,0,0.2-0.1,0.3c0,0.1,0,0.2,0,0.3c0,0.4-0.1,0.8-0.1,1.2c0,0.1,0,0.2,0,0.3c0,0.1,0,0.2,0,0.3
			c0,0.1,0,0.2,0,0.2c0,0.1,0,0.2,0,0.3c0,0.2,0,0.5,0,0.7c0,0.2,0,0.3,0,0.5c0,0,0,0.1,0,0.1c0,0.2,0,0.4-0.2,0.5c0,0,0,0-0.1,0
			c0,0,0,0-0.1,0c-0.1,0-0.1,0.1-0.2,0.1c-0.1,0.1-0.2,0.1-0.3,0.2c-0.2,0.1-0.3,0.2-0.5,0.3c-0.2,0.1-0.3,0.3-0.5,0.4
			c-0.1,0.1-0.2,0.1-0.3,0.2c-0.1,0.1-0.1,0.1-0.2,0.1c-0.1,0-0.1,0.1-0.1,0.1c-0.1,0.1-0.2,0.1-0.2,0.2c-0.3,0.2-0.5,0.4-0.7,0.7
			c-0.1,0.1,0,0.5,0.1,0.6c0.1,0,0.1,0.1,0.2,0.1c0,0,0.1,0,0.1,0c0.3,0.1,0.6,0.1,0.8,0c0.1,0,0.1,0,0.2,0c0-0.1,0.1-0.1,0.1-0.1
			c0.1,0,0.1,0,0.2,0c0,0,0,0,0,0l0.1-0.2L86,22c0,0,0,0,0,0c0,0,0.1-0.1,0.1-0.1h0h0.1c0.1,0,0.2,0,0.3,0c0.2-0.1,0.3-0.1,0.5-0.2
			c0.1-0.1,0.3-0.1,0.4-0.2c0.1-0.1,0.3-0.1,0.4-0.1c0.2-0.1,0.4-0.1,0.6-0.2c0.2-0.1,0.4-0.1,0.6-0.2c0.2-0.1,0.5-0.2,0.7-0.3
			c0.2-0.1,0.4-0.2,0.6-0.2c0.1,0,0.2-0.1,0.2-0.1c0.1,0,0.1,0,0.1,0c0,0,0,0,0.1,0h0.2l-0.1,0.1c0,0,0,0,0,0.1c0,0,0,0.1-0.1,0.1
			c-0.1,0.1-0.2,0.2-0.3,0.3c-0.2,0.2-0.4,0.4-0.6,0.6c-0.2,0.2-0.4,0.4-0.6,0.6l-0.2,0.2c-0.1,0.1-0.2,0.2-0.3,0.3l-0.1,0.1
			c-0.1,0.1-0.2,0.3-0.4,0.4c-0.1,0.1-0.1,0.1-0.2,0.2c-0.2,0.2-0.3,0.3-0.5,0.5c-0.4,0.4-0.6,0.7-0.5,1.2c0,0.1,0.1,0.2,0.2,0.3
			c0.1,0.1,0.2,0.1,0.3,0.1l0.5-0.2l0-0.1l0.2,0.1c0.3-0.5,0.6-0.9,1.1-1.1c0.5-0.2,0.9-0.2,1.3-0.2c0.1,0,0.2,0,0.3,0h0.2L91,24.1
			c-0.1,0.1-0.1,0.2-0.2,0.3c-0.1,0.1-0.2,0.2-0.3,0.3c-0.1,0.1-0.2,0.2-0.3,0.3c-0.1,0.1-0.1,0.1-0.1,0.2c-0.1,0.1-0.2,0.3-0.3,0.3
			c-0.2,0.1-0.3,0.2-0.3,0.5c0,0.1-0.1,0.1-0.1,0.1c-0.1,0.1-0.1,0.3-0.1,0.4c0.2,0.2,0.3,0.5,0.6,0.5h0.1c0.1,0,0.2,0,0.3,0
			c0,0,0.1,0,0.1-0.1c0,0,0.1-0.1,0.1-0.1c0.1,0,0.1-0.1,0.1-0.1c0.1-0.1,0.3-0.2,0.4-0.2c0.1-0.1,0.3-0.1,0.5-0.1
			c0.1,0,0.2,0.1,0.3,0.1c0.1,0.1,0.2,0.1,0.2,0.1c0.3,0.1,0.5,0.3,0.7,0.5c0.1,0.1,0.1,0.1,0.1,0.1c0.1,0.1,0.2,0.3,0.2,0.5
			c0,0.1-0.1,0.2-0.1,0.2c0,0-0.1,0.1-0.1,0.1c0,0.1,0,0.1-0.1,0.2c0,0.1-0.1,0.2-0.1,0.3c-0.3,0.5-0.6,1-1.1,1.4c0,0,0,0,0,0
			c0,0,0,0.1,0,0.1c-0.1,0.1-0.1,0.2-0.2,0.3l-0.1,0.2l-0.1-0.1c-0.1,0.1-0.1,0.1-0.2,0.2c-0.2,0.2-0.4,0.3-0.6,0.5
			c-0.1,0.1-0.3,0.2-0.5,0.3c0,0,0,0,0,0l0.3,0.1l-0.3,0.1c-0.1,0-0.1,0.1-0.2,0.1c-0.1,0-0.2,0.1-0.3,0.1c0,0,0,0.1-0.1,0.1l0,0v0
			c0,0.1,0,0.1-0.1,0.1c-0.1,0.1-0.3,0.1-0.4,0.2l0.1,0.1l-0.1,0.1c-0.3,0.4-0.8,0.4-1.2,0.4h-0.1v0c-0.1,0-0.1,0-0.2,0l-0.2,0
			c-0.2,0-0.3-0.1-0.5-0.1c-0.1,0-0.1,0-0.2,0c-0.1,0-0.2,0-0.2,0c-0.1,0-0.1-0.1-0.2-0.1l0,0l-0.1,0v0.1l-0.5,0.1c0,0,0.1,0,0.1,0
			c0.1,0,0.2,0.1,0.3,0.2c0.1,0.1,0.1,0.1,0.2,0.1c0,0,0.1,0,0.1,0c0,0,0.1,0,0.1,0.1l0.1,0.1l-0.1,0.1l0.3,0h0l0.3,0
			c0,0,0.1-0.1,0.1-0.1c0.2,0,0.5,0,0.7,0.1h0.1l0,0.2l-0.4,0.1c0.2,0,0.3,0.1,0.5,0.1c0.1,0,0.1,0.1,0.1,0.1v0l0,0.1l0.2,0v-0.1
			l0.1,0c0.1,0,0.1,0,0.1,0c0.1,0,0.2,0.1,0.2,0c0.1,0,0.1,0,0.2,0c0,0,0.1,0,0.1,0c0,0,0,0,0-0.1l0-0.1h0.3h0c0,0,0,0-0.1,0
			c-0.1,0-0.1-0.1-0.2-0.1l-0.1,0c-0.3,0.2-0.5,0-0.6-0.1L87.9,33l0.7,0.2H89c0.1,0,0.2,0,0.2,0c0.1,0,0.2,0,0.3,0
			c0.2,0,0.4,0,0.5-0.1h0.1c0,0,0.1,0,0.1,0c0.1,0,0.1,0,0.2,0c0.1,0,0.2,0,0.4,0V33c0-0.1,0.1-0.1,0.2-0.2c0.1-0.1,0.2-0.1,0.3,0
			c0,0,0,0,0,0c0,0,0,0,0,0c0,0,0,0,0-0.1c0,0,0.1-0.1,0.1-0.1c0.1-0.1,0.1-0.1,0.1-0.1c0,0,0.1-0.1,0.1-0.1c0,0,0.1,0,0.1-0.1
			c0.1,0,0.1-0.1,0.1-0.1c0.1-0.1,0.2-0.2,0.2-0.2c0.1,0,0.1-0.1,0.1-0.1c0.1-0.1,0.2-0.2,0.3-0.2c0.1,0,0.2-0.2,0.2-0.2
			c0.1-0.1,0.1-0.1,0.1-0.2c0.1-0.1,0.1-0.2,0.2-0.3c0.2-0.2,0.3-0.4,0.4-0.7c0.1-0.1,0.1-0.2,0.2-0.4c0.1-0.1,0.1-0.2,0.1-0.3
			c0-0.1,0-0.1,0.1-0.2c0-0.1,0-0.1,0-0.1c0-0.1,0.1-0.1,0.1-0.2c0.1-0.2,0.1-0.4,0.2-0.5c0.3-0.5,0.3-0.9,0.1-1.4
			c-0.2-0.3-0.5-0.5-0.8-0.7l-0.1-0.1c-0.3-0.2-0.5-0.3-0.8-0.5c-0.2-0.1-0.3-0.2-0.5-0.3c-0.1,0-0.1-0.1-0.1-0.2c0-0.1,0-0.1,0-0.1
			c0.3-0.4,0.7-0.7,1.1-1c0.3-0.2,0.5-0.3,0.6-0.6c0,0,0-0.1,0-0.1c0-0.1,0-0.1,0-0.2c0.1-0.2,0-0.3-0.1-0.5c0-0.1-0.1-0.1-0.1-0.2
			c-0.1-0.2-0.2-0.2-0.4-0.3c-0.1,0-0.1,0-0.1-0.1c-0.1-0.1-0.3-0.1-0.5-0.1c-0.1,0-0.2,0.1-0.3,0.1s-0.2,0.1-0.3,0.1
			c-0.4,0.1-0.7,0.1-1.1,0.2l-0.6,0.1l0.1-0.2c0,0,0-0.1,0.1-0.1c0-0.1,0.1-0.1,0.1-0.2c0.2-0.2,0.4-0.3,0.6-0.5
			c0.2-0.1,0.3-0.2,0.5-0.4c0.1-0.1,0.3-0.2,0.4-0.4c0.1-0.1,0.2-0.2,0.3-0.2c0.1-0.1,0.1-0.1,0.2-0.1c0.1-0.1,0.2-0.2,0.4-0.3
			c0.2-0.1,0.4-0.2,0.6-0.3c0.1,0,0.2-0.1,0.3-0.1c0.1,0,0.2-0.1,0.2-0.1l0.1-0.1c0.2-0.1,0.3-0.2,0.3-0.4c0-0.3,0-0.6-0.1-1
			c-0.1-0.3-0.3-0.5-0.7-0.6v0l-0.1,0l-0.1,0.1c-0.1,0.1-0.2,0.2-0.3,0.2c-0.1,0.1-0.2,0.1-0.3,0.1c-0.2,0.1-0.4,0.1-0.6,0.1l-0.2,0
			c-0.2,0-0.5,0.1-0.7-0.2c-0.1-0.1-0.1-0.2-0.1-0.3c0,0,0-0.1,0-0.1V18c0-0.1-0.1-0.2-0.1-0.4c0-0.1,0.1-0.2,0.1-0.2
			c0.1-0.1,0.2,0,0.3,0c0.1,0.1,0.1,0,0.1,0c0,0,0.1-0.1,0.1-0.1l-0.1-0.1l0.1-0.1c0.2-0.1,0.5-0.2,0.7-0.3l-0.1-0.1l0.1,0
			c0,0,0,0,0.1,0c0,0,0.1,0,0.1,0c0,0,0.1,0,0.1,0v0c0.1-0.2,0.2-0.2,0.3-0.2c0,0,0.1,0,0.1,0c0.5-0.2,0.7-0.5,1-0.8l0.1-0.1
			c0.2-0.3,0.5-0.6,0.8-0.8c0.1-0.1,0.2-0.1,0.2-0.1C95.3,14.4,95.5,14.3,95.8,14.1z M88.1,20.1L86.9,20l0.3-0.2
			c0.1,0,0.1-0.1,0.1-0.1c0,0,0-0.1-0.1-0.1l-0.1-0.2l0.9,0.5L88.1,20.1z M90.1,11.3c0,0.3-0.1,0.6-0.1,0.8c0,0.1,0,0.2,0,0.3
			c0,0.1,0,0.1,0,0.2c0,0.1,0,0.1,0,0.1c0,0.1,0,0.3,0,0.4c0,0.1-0.1,0.2-0.1,0.3c0,0.1-0.1,0.2-0.1,0.2c0,0.1,0,0.2,0,0.3
			c0,0.1,0,0.2,0,0.2c0,0.2-0.1,0.4-0.1,0.6c0,0.2-0.1,0.4-0.1,0.6c0,0.1,0,0.1,0,0.2c0,0,0,0.1,0,0.1v0l0.2,0.1v0.3
			c0,0.2,0,0.5,0,0.7c0,0.1-0.1,0.1-0.1,0.2c0,0,0,0,0,0l-0.1,0.1v0c-0.1,0.2-0.2,0.2-0.4,0.3c-0.1,0-0.1,0.1-0.1,0.1
			c0,0-0.1,0.1-0.1,0.1l0.1,0l0.1,0.2L88.9,18l0.2-0.1L89,18c0.1,0,0.1,0,0.2,0c0,0,0.1,0,0.1,0l0.5-0.3L89.5,18
			c0.1,0,0.1,0.1,0.2,0.1c0,0,0.1,0.1,0.1,0.1c0,0,0.1,0.1,0.1,0.1c0.1,0.1,0.1,0.2,0.1,0.3c-0.1,0.1-0.2,0.2-0.3,0.3
			c0,0-0.1,0-0.1,0l0.1,0.2l-1.3,0.5l-0.1-0.1c-0.1-0.1-0.2-0.3-0.1-0.5l0.1,0.1c0,0,0-0.1,0.1-0.1l0-0.2c0-0.1,0-0.2,0.1-0.3
			c0,0,0.1,0,0.1-0.1l-0.1-0.1l-0.1,0.1l-0.2-0.2l0.1-0.1l-0.1,0V18c0-0.1,0-0.2,0-0.4c0-0.3-0.1-0.6-0.1-0.9c0-0.3,0-0.7,0.1-1
			c0.1-0.5,0.1-0.9,0-1.3c0-0.2,0-0.3,0-0.5c0-0.1,0-0.2,0-0.2c0-0.1,0-0.3,0-0.4c0-0.2,0-0.4,0.1-0.6c0-0.3,0.1-0.6,0.1-0.9
			c0-0.1,0.2-0.2,0.2-0.2c0,0,0.1,0,0.1-0.1l-0.2-0.2l0.3,0v-0.1l0.2,0c0.1,0,0.2-0.1,0.4-0.1c0.1,0,0.1-0.1,0.1-0.1
			c0.1-0.2,0.3-0.2,0.5-0.2l0.1,0V11.3z M93.8,14C93.8,14.1,93.8,14.1,93.8,14c-0.2,0.2-0.4,0.4-0.7,0.6l0,0c-0.4,0.3-0.8,0.7-1.2,1
			c-0.2,0.2-0.4,0.3-0.7,0.5c-0.1,0.1-0.1,0.1-0.2,0.1H91l0-0.1l0-0.2c0-0.1,0-0.3-0.1-0.4c0,0,0,0,0-0.1c0-0.1-0.1-0.2,0.1-0.3
			c0-0.1,0-0.2,0-0.3c0-0.1,0-0.1,0-0.1c0-0.1,0-0.1,0-0.2c0-0.1,0-0.2,0-0.2c0-0.1,0.2-0.2,0.2-0.2c0.1,0,0.1,0,0.2,0
			c0.1,0,0.1,0,0.1,0c0.2,0,0.4-0.1,0.6-0.1c0.4-0.1,0.7-0.2,1.1-0.2l0.5-0.1l0.3,0.4L93.8,14z"/>
		<path class="st2" d="M83.3,31.5L83.3,31.5L83.3,31.5L83.3,31.5z"/>
		<path class="st2" d="M83.7,32.2c0,0.1,0,0.1,0,0.1v0v0c0,0,0.1,0,0.1,0l0.2,0c0,0,0,0,0-0.1l-0.1-0.2L83.7,32.2z"/>
		<path class="st2" d="M86.1,32.1L86.1,32.1L86.1,32.1L86.1,32.1L86.1,32.1z"/>
		<path class="st2" d="M42,22.1c0,0,0,0.1,0,0.1c0,0,0,0,0,0.1c0.1,0,0.2-0.1,0.2-0.1l-0.1-0.1C42.1,22.1,42,22.1,42,22.1z"/>
		<path class="st2" d="M42.8,22.1L42.8,22.1L42.8,22.1L42.8,22.1z"/>
		<path class="st2" d="M42.8,25.3C42.8,25.3,42.8,25.3,42.8,25.3c-0.1,0-0.1,0.1-0.2,0.1l0,0L42.8,25.3z"/>
		<path class="st2" d="M50.4,13c0,0,0-0.1,0.1-0.1c0.1-0.1,0.1-0.2,0.1-0.3c0-0.3-0.1-0.5-0.3-0.7c0,0-0.1-0.1-0.1-0.1
			c-0.1-0.1-0.1-0.1-0.1-0.1c-0.1,0-0.1,0-0.1,0l0,0.1l-1.6,0.1l0.1-0.1c0-0.1,0.1-0.1,0.1-0.2c0-0.1,0.1-0.2,0.1-0.2
			c0,0,0-0.1,0-0.1c0,0,0,0,0-0.1l0,0l0.5-0.7c0,0,0,0,0-0.1c0-0.1,0-0.1,0-0.2c0-0.1,0-0.3,0.1-0.4c0.1,0,0.1-0.1,0.1-0.1L49,9.4
			l0.4-0.2c0,0,0,0,0-0.1c0,0,0-0.1,0-0.2c0,0,0.1-0.1,0.1-0.1c0.1,0,0.1,0,0.1-0.1c0-0.1,0.1-0.2,0.2-0.2l0,0c0-0.1,0-0.1,0-0.1
			c0-0.1,0.1-0.1,0.1-0.2c0,0,0.1,0,0.1-0.1C50,8.2,50.1,8.1,50.2,8c0.1-0.1,0.2-0.3,0.3-0.4c0,0,0-0.1,0-0.1c0,0,0-0.1,0-0.1v0l0,0
			c0,0,0-0.1,0.1-0.1c0,0,0,0,0-0.1c0-0.1,0-0.1,0-0.1c0-0.2,0-0.3,0-0.5c-0.1-0.3-0.2-0.6-0.4-0.8C50.1,5.8,50,5.8,50,5.8
			c-0.3,0.1-0.5,0.3-0.5,0.5c0,0.1-0.1,0.2-0.1,0.3c-0.1,0.1-0.2,0.3-0.2,0.4c-0.1,0.1-0.2,0.3-0.2,0.4c-0.1,0.1-0.1,0.2-0.2,0.3
			c-0.1,0.2-0.2,0.4-0.3,0.6c-0.1,0.1-0.1,0.2-0.2,0.2C48.1,8.6,48,8.8,48,8.9c-0.1,0.2-0.1,0.3-0.2,0.5c-0.1,0.2-0.1,0.4-0.2,0.5
			c0,0.1-0.1,0.2-0.1,0.3c-0.1,0.2-0.2,0.5-0.4,0.6c0,0,0,0.1,0,0.1c0,0.1-0.1,0.2-0.1,0.3c-0.1,0.2-0.2,0.4-0.2,0.6
			c-0.1,0.3-0.2,0.6-0.3,0.9c-0.1,0.2,0,0.4,0.1,0.5c0.1,0.1,0.1,0.1,0.2,0.1c0,0,0.1,0,0.1,0.1c0,0,0,0,0.1,0
			c0.1,0,0.2,0.1,0.2,0.1c0,0,0,0.1,0,0.1s0.1,0,0.1,0l0.1,0c0.1,0,0.2,0,0.2,0c0.1,0.1,0.2,0.1,0.4,0c0.1-0.1,0.1-0.1,0.2-0.1
			c0.1-0.1,0.3-0.3,0.6-0.2l0.1,0l-0.1,0.1c0,0,0,0.1,0,0.1c0,0.1-0.1,0.2-0.1,0.2c-0.1,0.2-0.2,0.3-0.3,0.5
			c-0.1,0.2-0.3,0.5-0.5,0.7c-0.1,0.2-0.2,0.3-0.3,0.5c-0.1,0.2-0.2,0.3-0.3,0.5c-0.3,0.4-0.6,0.8-1,1.2c-0.1,0.1-0.2,0.2-0.3,0.2
			c-0.1,0.1-0.2,0.1-0.2,0.2c-0.1,0.2-0.3,0.3-0.4,0.5c-0.2,0.2-0.3,0.3-0.5,0.5c-0.2,0.2-0.3,0.3-0.5,0.5c-0.1,0.1-0.2,0.2-0.3,0.3
			c0,0,0,0,0,0.1c0,0,0,0.1-0.1,0.1c-0.1,0.1-0.1,0.1-0.2,0.2c0,0-0.1,0-0.1,0.1c0,0-0.1,0-0.1,0c-0.2,0.2-0.3,0.3-0.5,0.5
			c-0.1,0.1-0.2,0.2-0.3,0.4c-0.1,0.1-0.2,0.3-0.4,0.4c-0.1,0.1-0.2,0.2-0.3,0.3c-0.1,0.1-0.2,0.2-0.3,0.3c-0.1,0.1-0.2,0.3-0.4,0.4
			c-0.1,0.1-0.1,0.1-0.2,0.2c-0.2,0.2-0.3,0.3-0.5,0.5c-0.1,0.1-0.2,0.3-0.2,0.4c-0.1,0.2-0.3,0.4-0.3,0.6c0,0.1,0,0.1-0.1,0.1
			l-0.1,0.1c-0.1,0.1-0.1,0.1-0.1,0.2c-0.1,0.2-0.2,0.3-0.3,0.5l-0.1,0.1c-0.1,0.1-0.1,0.2-0.1,0.4c0,0.2,0,0.3,0.1,0.5l0,0.1
			c0,0,0.1,0.1,0.1,0.1c0.1,0,0.1,0.1,0.1,0.1c0.1,0.1,0.2,0.1,0.2,0.2c0.1,0.1,0.2,0.2,0.2,0.3c0,0,0,0.1,0.1,0.1l0.3-0.1l0,0.1
			c0,0,0,0,0,0.1c0,0,0,0.1,0,0.1c0.1,0.1,0.1,0.1,0.1,0.1c0.2,0,0.3,0,0.5,0c0.3-0.1,0.5-0.1,0.7-0.4l0.1-0.2l0.1,0.2
			c0,0,0.1,0,0.1-0.1c0.2-0.1,0.2-0.1,0.3-0.3v-0.3l0.1,0.1c0.1-0.2,0.2-0.2,0.3-0.3c0.1-0.1,0.2-0.1,0.2-0.2l0.2-0.2l0,0.3
			c0,0.2-0.1,0.3-0.2,0.3l0.1,0.1l0,0.1c0,0.1-0.1,0.2-0.1,0.3L43.1,26c-0.1,0.3-0.2,0.6-0.2,0.9c0,0.1-0.1,0.3-0.2,0.4
			c-0.1,0.1-0.1,0.2-0.1,0.3c-0.1,0.3-0.3,0.5-0.6,0.7c-0.3,0.2-0.7,0.4-1.1,0.5l-0.1,0.1c-0.3,0.1-0.6,0.3-0.8,0.4
			c-0.1,0.1-0.3,0.1-0.4,0.2c0,0-0.1,0-0.1,0.1c-0.1,0-0.2,0.1-0.2,0.1c-0.1,0.1-0.1,0.1-0.2,0.2l0.7,0l0,0.2L39.4,30l0.1,0.1
			l0.2-0.1l0.1,0.2c0.1,0,0.2,0.1,0.3,0.1l0.2,0.1l-0.1,0v0.1l0.1,0.2h0.1l0.1,0.2l-0.2,0.1c0,0,0.1,0.1,0.1,0.1c0,0,0,0,0.1-0.1
			l0-0.1h0.1c0.1,0,0.2-0.1,0.4-0.1c0,0,0,0,0.1,0c0.1,0,0.2,0,0.3,0c0.1,0,0.2,0,0.3,0h0.1c0.1,0,0.3,0,0.4-0.1
			c0.1,0,0.1-0.1,0.2-0.1c0.1-0.1,0.2-0.1,0.3-0.1c0.3-0.1,0.6-0.2,0.8-0.3c0.1-0.1,0.1-0.1,0.2-0.2c0.1-0.1,0.1-0.1,0.1-0.1
			c0.3-0.3,0.6-0.7,0.8-1c0.2-0.5,0.5-1.1,0.6-1.7c0-0.2,0.1-0.3,0.1-0.5c0.1-0.3,0.1-0.5,0.2-0.8c0-0.1,0-0.2,0-0.3
			c0-0.2,0-0.3,0.1-0.5c0-0.1,0.1-0.2,0.1-0.2c0-0.1,0.1-0.2,0.1-0.3l0.1-0.1c0.1-0.2,0.3-0.5,0.4-0.7c0-0.1,0.1-0.1,0.2-0.1
			c0.1,0,0.1-0.1,0.2-0.1c0.1-0.1,0.3-0.1,0.4-0.2c0.2-0.1,0.3-0.2,0.5-0.2c0.2-0.1,0.5-0.2,0.6-0.3c0.1,0,0.1,0,0.1,0
			c0.1-0.1,0.1-0.1,0.1-0.1l0.2-0.1c0.4-0.2,0.7-0.4,1.1-0.6c0,0,0.1,0,0.1-0.1c0,0,0,0,0-0.1c-0.1-0.1-0.1-0.2-0.1-0.3
			c0,0,0-0.1,0-0.1c0-0.1,0-0.1,0-0.1c0,0,0-0.1,0-0.1c0-0.1,0-0.1,0-0.1c0-0.1,0-0.2,0-0.3c0-0.1-0.1-0.2-0.2-0.3
			c-0.1-0.1-0.1-0.2-0.1-0.2c-0.1-0.1-0.2-0.2-0.3-0.1h-0.1l-0.1-0.1l-0.2-0.1c0,0,0,0.1,0,0.1c0,0.1-0.1,0.1-0.2,0.1h0
			c0,0-0.1,0-0.1,0c-0.1,0.1-0.2,0.1-0.2,0.2c-0.1,0.1-0.3,0.2-0.4,0.3c-0.2,0.2-0.5,0.3-0.7,0.5c-0.1,0.1-0.2,0.1-0.3,0.2l-0.1,0
			l-0.2-0.1v-0.1c0-0.1,0-0.1,0-0.1c0-0.1,0.1-0.2,0.1-0.2c0-0.1,0.1-0.3,0.1-0.4c0-0.1,0.1-0.3,0.1-0.4c0-0.2,0.1-0.3,0.1-0.5
			c0-0.1,0-0.2-0.1-0.3c-0.1-0.1-0.1-0.1-0.2-0.1c0,0-0.1,0-0.1,0l-0.1,0l-0.3-0.3l0.1-0.1c0,0,0,0,0.1-0.1c0.1-0.1,0.1-0.1,0.2-0.1
			c0.1,0,0.1,0,0.2-0.1c0,0,0,0,0-0.1l-0.2-0.1l0.2-0.1c0.1,0,0.1,0,0.1-0.1c0.1,0,0.2-0.1,0.2-0.1c0.1-0.1,0.1-0.2,0.2-0.3
			c0,0,0.1-0.1,0.1-0.1c0.1-0.1,0.2-0.2,0.3-0.2c0.1,0,0.1-0.1,0.1-0.1c0.1-0.1,0.1-0.1,0.2-0.1c0,0,0.1,0,0.1,0
			c0.2-0.2,0.5-0.5,0.7-0.7c0.1-0.1,0.1-0.1,0.1-0.2c0-0.1,0.1-0.1,0.1-0.2c0.2-0.4,0.4-0.8,0.7-1.2c0.1-0.2,0.2-0.4,0.3-0.6
			c0.1-0.1,0.2-0.3,0.2-0.4c0.1-0.1,0.1-0.2,0.1-0.3C50.1,13.7,50.2,13.4,50.4,13z M44.8,20.9c0,0.1-0.1,0.1-0.1,0.2
			c-0.1,0.2-0.1,0.4-0.3,0.5c0,0,0,0,0,0.1c0,0,0,0.1-0.1,0.1c-0.1,0.1-0.1,0.2-0.1,0.2c-0.1,0.1-0.1,0.1-0.1,0.2l0,0
			c0,0.1-0.1,0.1-0.1,0.2c0,0.2-0.2,0.3-0.3,0.4l0,0c0,0-0.1,0-0.1,0.1c0,0,0.1,0,0.1,0c0,0,0,0,0.1,0l0.2,0l-0.1,0.1l0,0
			c0,0-0.1,0.1-0.1,0.1c-0.1,0-0.1,0.1-0.2,0.1h0l0,0.2L43,23.2c-0.3,0.1-0.6,0.3-0.8,0.4c-0.1,0-0.1,0-0.2,0c0,0-0.1,0-0.1,0
			l-0.2,0l0.2-0.2l-0.4,0l0.2-0.3c0-0.1,0.1-0.1,0.1-0.1c0-0.1,0.1-0.1,0.1-0.2l0-0.1c0,0,0,0,0,0h-0.1v-0.1c0-0.1,0.1-0.2,0.1-0.2
			c0.1-0.1,0.1-0.1,0.1-0.1c-0.2,0.2-0.3,0.5-0.5,0.7c0,0-0.1,0.1-0.1,0.1l-0.1,0.1l0-0.1c-0.1-0.3,0.1-0.5,0.2-0.6c0,0,0,0,0,0
			h-0.2l0.1-0.1c0,0,0-0.1,0.1-0.1l0.3-0.2c0-0.1,0-0.1,0-0.1c0,0,0,0,0,0v-0.1l0.1,0c0.1-0.1,0.2-0.2,0.3-0.3v0h0
			c0.2-0.2,0.3-0.4,0.5-0.6c0,0,0.1-0.1,0.1,0c0-0.1,0-0.1,0.1-0.2c0.1-0.1,0.2-0.2,0.3-0.2l0.3,0L43,20.9h0.1L43,21
			c-0.1,0.1-0.1,0.1-0.2,0.2c-0.1,0.2-0.3,0.3-0.5,0.4c0,0.1,0,0.1,0,0.2l0.3-0.2l0,0.1l0.2-0.1l0.1,0.2l0.1-0.1l0.1,0.1l0-0.1
			c0,0,0.1,0,0.1,0c0,0,0,0,0,0l0,0c0.1-0.1,0.1-0.1,0.2-0.2c0-0.1,0-0.2,0-0.2c0,0,0,0,0.1,0l0-0.1c0.1-0.1,0.2-0.2,0.3-0.3
			c0.1,0,0.1-0.1,0.2-0.1l-0.1-0.2l0.1,0c0.2-0.1,0.4-0.1,0.6-0.2c0.1,0,0.1,0.1,0.1,0.1C44.8,20.8,44.8,20.9,44.8,20.9z"/>
		<path class="st2" d="M26.8,8.8c0-0.2,0.1-0.4,0-0.6c0-0.2-0.1-0.5,0-0.8c0,0,0-0.1,0-0.1l0-0.1c0-0.1-0.1-0.1-0.1-0.2
			c0,0,0-0.1-0.1-0.1c0,0,0,0,0-0.1c0,0,0,0,0-0.1l-0.2-0.4c0-0.1-0.1-0.1-0.1-0.2c0-0.1-0.1-0.1-0.1-0.1C26.1,6.2,26,6.2,26,6
			c0-0.1-0.2-0.2-0.2-0.2c-0.1,0-0.2,0-0.3-0.1c-0.1,0-0.1,0-0.2,0c0,0-0.1,0-0.1,0.1c-0.1,0.1-0.2,0.1-0.2,0.2
			C25.1,6,25,6.1,24.9,6.2c-0.1,0.1-0.2,0.2-0.3,0.3c-0.2,0.1-0.3,0.3-0.4,0.4c0,0.1-0.1,0.1-0.1,0.1C24.1,7.2,24,7.2,24,7.3
			c-0.1,0.2-0.2,0.4-0.2,0.6l-0.1,0.2v0c0.1,0.2-0.1,0.4-0.1,0.5c0,0-0.1,0.1-0.1,0.1c0,0,0,0.1,0,0.1c0,0.1-0.1,0.1-0.1,0.1
			c0,0,0,0.1,0,0.1c0,0.1,0,0.3-0.2,0.4c0,0,0,0-0.1,0.1l0.2,0.1l-0.5,1h0l-1.1,3.3l0.1,0.1l-0.1,0.1c-0.1,0.1-0.1,0.1-0.1,0.3
			c0,0.1,0,0.2,0,0.2c-0.1,0.3-0.2,0.7-0.3,1c-0.1,0.2-0.1,0.3-0.1,0.5c0,0.1-0.1,0.2-0.1,0.4c-0.1,0.2-0.2,0.5-0.2,0.7
			c-0.1,0.5-0.3,0.7-0.6,1l-0.1,0.1c-0.1,0.1-0.1,0.1-0.2,0.1c-0.1,0-0.1,0-0.1,0.1c-0.2,0.2-0.5,0.3-0.7,0.5l-0.3,0.2l-0.1,0.1
			l-0.2-0.2l0.1-0.1c0.1-0.1,0.1-0.2,0.1-0.3c0,0,0-0.1,0-0.1v-0.1c0-0.1-0.1-0.2,0.1-0.3c0-0.2,0.1-0.4,0.1-0.6
			c0-0.1,0.1-0.1,0.1-0.2c0.1-0.3,0.2-0.6,0.3-0.9l0.1-0.4c0.1-0.2,0.2-0.5,0.1-0.7c-0.1-0.1-0.1-0.2-0.2-0.3c0-0.1-0.1-0.1-0.1-0.2
			c-0.1-0.1-0.1-0.1-0.2-0.1c-0.3,0-0.5,0.1-0.6,0.2c0,0-0.1,0.1-0.1,0.1c0,0,0,0.1-0.1,0.1c-0.1,0.1-0.1,0.2-0.2,0.4
			c0,0.1-0.1,0.2-0.1,0.2c0,0.1-0.1,0.2-0.1,0.2c0,0.1-0.1,0.2-0.1,0.3c-0.1,0.2-0.2,0.4-0.3,0.7c0,0.1-0.1,0.2-0.1,0.3
			c0,0.2-0.1,0.4-0.2,0.5c-0.1,0.2-0.1,0.3-0.1,0.5c0,0.2,0,0.3-0.1,0.5c0,0.1,0,0.1,0,0.2c0,0.1,0,0.3-0.2,0.4
			c0.1,0.1,0,0.2-0.1,0.3c0,0.1-0.1,0.1-0.1,0.2c0,0,0,0.1,0.1,0.1c0,0,0,0,0.1,0.1l0.1,0.1L17,20c-0.1,0.1-0.2,0.1-0.2,0.2
			c0,0.1,0,0.1,0,0.2c0.1,0.1,0.1,0.3,0.2,0.4c0.1,0.2,0.1,0.4,0.3,0.5c0.2,0.1,0.3,0.2,0.5,0.3c0.1,0.1,0.2,0.1,0.3,0.1
			c0,0,0.1,0,0.1,0c0,0,0,0,0.1,0c0.1-0.1,0.2-0.1,0.2-0.1c0,0,0.1,0,0.1,0s0,0,0,0c0,0-0.1-0.1-0.1-0.2c0-0.1,0.1-0.1,0.1-0.1
			c-0.1-0.1-0.1-0.2-0.1-0.4c0-0.2,0.1-0.3,0.1-0.5v0c0.1-0.1,0.1-0.2,0.2-0.2c0.1,0,0.1,0,0.2,0c0,0,0,0,0,0c0,0,0.1,0,0.1-0.1
			c0.1-0.1,0.1-0.1,0.1-0.1c0-0.1,0.2-0.2,0.2-0.2c0.1,0,0.1,0.1,0.2,0.1l0,0c0,0,0,0.1,0.1,0.1l0.1,0.1l-0.2,0.1l0.2,0.2
			c0,0,0,0,0.1-0.1c0.1-0.1,0.2-0.2,0.4-0.3c0,0,0.1,0,0.1-0.1c0.1-0.1,0.2-0.2,0.4-0.1c0.1,0.1,0.2,0.1,0.2,0.2c0,0,0,0,0.1,0
			c0.1,0,0.2,0,0.3,0c0.1,0,0.2,0.1,0.3,0.1c0,0,0.1,0,0.1,0l0.3-0.2v0.2c0.1-0.3,0.2-0.5,0.2-0.7l0-0.1c0.1-0.3,0.1-0.6,0.5-0.7h0
			c0-0.2,0.2-0.2,0.3-0.2c0,0,0.1,0,0.1,0H23v0.1c0,0.1,0,0.1,0,0.1c0,0.1,0,0.2,0,0.3c0,0.1,0,0.2-0.1,0.3c0,0,0,0,0,0
			c0,0,0.1,0.1,0.1,0.1c0.1,0,0.1,0.1,0.1,0.1c0.1,0.1,0.2,0.1,0.3,0.2l0.1-0.1c0.1,0,0.1-0.1,0.1-0.1c0,0,0.1,0,0.1,0
			c0,0,0.1,0,0.1-0.1c0.1-0.1,0.2-0.3,0.4-0.4l0.2-0.2c0,0,0.1,0,0.1-0.1l0,0l0.1-0.2c0.1-0.2,0.2-0.5,0.3-0.7
			c0.2-0.5,0.4-0.9,0.5-1.3c0.1-0.3,0.2-0.6,0.2-0.8c0-0.1,0.1-0.2,0.1-0.3c0.1-0.5,0.4-0.9,0.6-1.3c0.1-0.2,0.2-0.4,0.3-0.6
			c0.2-0.3,0.1-0.6-0.1-0.9c-0.1-0.1-0.2-0.2-0.3-0.2c-0.1,0-0.1-0.1-0.2-0.1L26,12.6c-0.1,0.1-0.2,0.2-0.2,0.3
			c-0.2,0.3-0.4,0.6-0.6,1L25,14.1c-0.2,0.3-0.4,0.6-0.6,0.9c-0.1,0.1-0.1,0.2-0.2,0.3c-0.1,0.2-0.2,0.3-0.3,0.5
			c-0.2,0.3-0.6,0.5-0.9,0.7c-0.1,0-0.1,0-0.1,0l-0.3-0.1l0-0.1c0,0,0,0,0-0.1c0-0.1,0-0.1,0-0.1c0-0.1,0.1-0.1,0.1-0.2
			c0.1-0.1,0.1-0.2,0.1-0.3c0-0.2,0-0.3,0.1-0.4c0-0.1,0-0.1,0.1-0.1c0-0.1,0.1-0.2,0.1-0.2c0.1-0.1,0.1-0.2,0.1-0.3
			c0-0.1,0.1-0.1,0.1-0.2c0,0,0.1-0.1,0.1-0.1c0-0.2,0.1-0.3,0.2-0.4c0,0,0-0.1,0-0.1c-0.1-0.1-0.2-0.1-0.2-0.2
			c0-0.1,0.1-0.1,0.1-0.2c0,0,0.1,0,0.1-0.1l0.1-0.1l0,0.1c0,0,0,0,0-0.1c0-0.1,0-0.2,0.1-0.3c0.2-0.1,0.2-0.2,0.3-0.3
			c0,0,0-0.1,0-0.1c0.1-0.3,0.3-0.6,0.5-1c0.2-0.4,0.5-0.7,0.8-1c0.3-0.3,0.6-0.6,1-0.7c0.1-0.1,0.2-0.1,0.2-0.2
			c0-0.1,0.1-0.3,0.1-0.4C26.7,9.1,26.8,8.9,26.8,8.8z"/>
		<path class="st2" d="M19.2,20.4L19.2,20.4C19.2,20.4,19.2,20.4,19.2,20.4z"/>
		<path class="st2" d="M61.2,19.1L61.2,19.1h0.2h0C61.4,19.1,61.3,19.1,61.2,19.1L61.2,19.1z"/>
		<path class="st2" d="M65.5,12.3c0.1-0.1,0.1-0.1,0.2-0.1c0.2,0,0.2-0.1,0.3-0.2l0.1-0.1h0c0.1,0,0.2-0.1,0.2-0.1
			c0.4-0.4,0.7-0.7,1.1-1c0.1,0,0.1-0.1,0.1-0.1c0.1-0.5,0.1-0.9-0.1-1.3c-0.2-0.7-0.6-1.4-1-1.9c-0.3-0.4-0.6-0.8-1.2-1.1
			c0,0-0.1,0-0.1,0c-0.2,0.1-0.3,0.3-0.3,0.4c0,0.6-0.2,1.2-0.6,1.7C64.1,8.6,64,8.8,63.9,9c-0.1,0.2-0.2,0.5-0.4,0.7
			c-0.1,0.1-0.2,0.1-0.2,0.2c0,0-0.1,0-0.1,0.1c0,0.1,0,0.1-0.1,0.1c-0.2,0.1-0.2,0.3-0.3,0.5c0,0.1-0.1,0.1-0.1,0.1
			c-0.1,0.1-0.1,0.1-0.2,0.2c0,0-0.1,0-0.1,0.1l0,0c0,0.2-0.1,0.3-0.2,0.5l-0.1,0.1c-0.1,0.1-0.2,0.2-0.3,0.3
			c-0.1,0.1-0.2,0.3-0.3,0.4l0,0l0.2-0.1v0.1v0c0,0,0,0.1,0,0.1c-0.1,0.2-0.2,0.4-0.4,0.6c0,0.1-0.1,0.1-0.2,0.1c0,0,0,0,0,0
			s0,0.1,0,0.1c0,0,0,0.1,0,0.1l-0.2,0.3l0-0.1c0,0,0,0,0,0c0,0,0,0,0,0l-0.1,0.1l-0.1-0.1c0,0-0.1,0-0.1,0s0,0,0,0.1c0,0,0,0,0,0.1
			c-0.1,0.2-0.2,0.3-0.3,0.5c-0.2,0.3-0.4,0.6-0.5,0.9c0,0.1-0.1,0.1-0.1,0.1l-0.1,0.1l0,0c0,0,0,0,0,0.1c0,0,0,0.1-0.1,0.1
			c0,0,0,0.1,0,0.1c0,0-0.1,0.1-0.1,0.1c-0.1,0.1-0.1,0.1-0.1,0.2c0,0.1,0,0.1,0,0.1c0,0.2-0.1,0.5-0.3,0.7
			c-0.1,0.1-0.2,0.3-0.2,0.5v0.1c0,0.1-0.1,0.2-0.2,0.3c-0.1,0.1-0.1,0.1-0.1,0.2c-0.1,0.1-0.1,0.2-0.2,0.3c0.1-0.1,0.2-0.2,0.2-0.4
			c0-0.1,0.1-0.1,0.1-0.1c0.1-0.1,0.1-0.2,0.2-0.3l0.1-0.2l0.2,0l0,0.1c0,0,0,0,0,0.1c0,0.1,0.1,0.1,0,0.2c-0.2,0.2-0.3,0.5-0.4,0.8
			c0,0.1-0.1,0.2-0.1,0.3c-0.1,0.1-0.2,0.2-0.2,0.3c-0.1,0.1-0.1,0.1-0.2,0h0v-0.1l-0.1,0l0.1-0.1c0-0.1,0-0.1,0.1-0.2
			c0,0.1-0.1,0.1-0.1,0.2l-0.1,0.3c-0.1,0.2-0.2,0.3-0.2,0.5c-0.1,0.1-0.1,0.2-0.2,0.4c-0.1,0.1-0.1,0.2-0.1,0.3l-0.1,0.1
			c0,0.1,0,0.1-0.1,0.1c0,0.1-0.1,0.1-0.1,0.2c0,0.1-0.1,0.1-0.2,0.1h0l-0.3,0.8c-0.2,0.4-0.4,0.8-0.3,1.4c0,0.1,0.1,0.2,0.1,0.3v0
			c0.1,0,0.1,0,0.1,0c0.1,0.1,0.1,0.1,0.1,0.2c0,0,0,0.1,0,0.1c0.1,0.1,0.1,0.1,0.1,0.2c0,0.1,0,0.1,0.1,0.1c0,0,0.1,0,0.1,0
			c0,0,0,0,0.1,0c0,0,0.1,0,0.1,0c0,0,0.1,0.1,0.1,0.1c0.2-0.1,0.3,0,0.5,0l0,0c0,0,0,0,0-0.1c0.1-0.1,0.2-0.1,0.2-0.1c0,0,0,0,0,0
			c0.1,0,0.3,0,0.4,0c0.1,0,0.1,0,0.2,0h0.1l0,0.3l0.1,0l0.7-0.9h-0.1l0.1-0.4l0.1,0c0.1,0,0.1,0,0.1-0.1c0-0.2,0.2-0.3,0.3-0.3
			c0.1,0,0.1,0,0.1,0c0,0,0.1-0.1,0.1-0.2c0,0,0,0,0,0c0-0.1,0-0.1,0-0.2s0.2-0.2,0.2-0.2l0.2-0.2c0,0,0,0,0,0c0,0,0,0,0-0.1h0
			l0.1-0.2c0,0,0,0,0-0.1c0-0.1,0.1-0.1,0.2-0.1c0.1,0,0.1,0,0.1-0.1c0,0,0.1-0.1,0.1-0.1c0,0,0.1-0.1,0.1-0.1c0,0,0.1,0,0.1-0.1
			c0.1-0.1,0.2-0.2,0.2-0.2c0,0,0-0.1,0.1-0.1c0-0.1,0.1-0.1,0.1-0.2c0,0,0.1-0.1,0.1-0.1c0.1-0.1,0.1-0.1,0.1-0.1c0,0,0,0,0-0.1
			c-0.3,0.3-0.7,0.6-1.1,0.9l-0.1,0.1l-0.1-0.1l-0.1,0v0.1h-0.1l-0.5,0.6l0-0.2c0-0.1,0-0.1,0-0.1c0.1-0.2,0.2-0.3,0.4-0.4
			c0-0.2,0.1-0.3,0.3-0.3c0,0,0.1,0,0.1,0c0.1,0,0.1-0.1,0.2-0.1c0.1-0.1,0.1-0.2,0.2-0.3c0,0,0,0,0,0l-0.3-0.1L60.8,20v-0.2
			c0-0.2,0.2-0.5,0.3-0.6l0,0C61,19.1,61,19,61,18.9c0-0.1,0.1-0.2,0.1-0.2c0,0,0.1-0.1,0.1-0.1c0.1-0.1,0.1-0.2,0.2-0.2
			c0.1,0,0.1,0.1,0.2,0.1l0.1,0l-0.3-0.1l0-0.1c0.1-0.2,0.3-0.2,0.5-0.3c0,0,0.1,0,0.1,0l-0.4-0.3l0.2-0.3c0,0-0.1,0-0.1,0
			c0,0-0.1-0.1-0.1-0.2c0.1-0.2,0.1-0.4,0.3-0.5c0.1-0.1,0.1-0.1,0-0.1l0-0.1l0.2-0.4c0,0,0,0-0.1,0L62,16.2L61.9,16l0.1,0
			c0,0,0.1-0.1,0.1-0.1c0.1-0.1,0.1-0.1,0.2-0.1c0.1,0,0.1,0,0.1,0l0.4-0.4l-0.5-0.1l-0.1,0.1l-0.1-0.1l-0.5,0.5l0.6-1.1l0.2,0.2
			l-0.2,0.3l0.2-0.1c0.1,0,0.1-0.1,0.1-0.1c0.1-0.1,0.2-0.3,0.5-0.2c0.1-0.1,0.2-0.1,0.2-0.2c0-0.1,0.1-0.2,0.2-0.1c0,0,0.1,0,0.1,0
			s0-0.1,0-0.1c0-0.2,0.1-0.3,0.2-0.4c0,0,0.1,0,0.1-0.1l0,0c0.1-0.1,0.1-0.1,0.2-0.2l0-0.1c0.1-0.1,0.1-0.2,0.3-0.3l-0.1-0.1
			l0.1-0.1c0.1,0,0.1-0.1,0.2-0.1c0.1-0.1,0.2-0.2,0.5-0.2c0.1,0,0.3-0.1,0.3-0.2C65.3,12.4,65.4,12.4,65.5,12.3
			C65.5,12.3,65.5,12.3,65.5,12.3C65.5,12.3,65.5,12.3,65.5,12.3z M60.8,18.2L60.8,18.2l-0.5-0.5l0.3,0.1c0.2,0.1,0.3,0.1,0.4,0.2
			C61,18.1,60.9,18.1,60.8,18.2z M63.3,13.8c0,0.1-0.1,0.1-0.1,0.1l-0.1,0l0-0.1c0-0.1,0-0.1,0-0.1c0-0.1,0-0.1,0-0.2l0-0.1l0.5-0.3
			l0.2,0.1l-0.1,0.2C63.5,13.5,63.4,13.6,63.3,13.8z M63.7,13.9l-0.2-0.1l0.1-0.2c0.1-0.1,0.2-0.3,0.3-0.4c0.1-0.1,0.1-0.1,0.2-0.1
			c0,0,0,0,0.1,0h0.1l0.1,0.2L63.7,13.9z"/>
		<path class="st2" d="M61.4,19.5L61.4,19.5c0.1,0.1,0.1,0.1,0.1,0.1c0,0,0,0,0.1-0.1c0.1-0.1,0.1-0.1,0.2-0.2l-0.1,0.1l0.1-0.4
			c-0.1,0-0.1,0-0.2,0c0,0,0,0-0.1,0l-0.5,0.6L61.4,19.5z"/>
		<path class="st2" d="M70.3,16L70.3,16c0.1-0.1,0.1-0.1,0.1-0.2c0-0.1,0.1-0.2,0.2-0.2c0.1,0,0.1-0.1,0.1-0.1c0,0,0.1-0.1,0.1-0.1
			c0,0,0.1,0,0.1-0.1c0.1,0,0.1-0.1,0.1-0.1c0.1-0.2,0.2-0.4,0.3-0.5c0.2-0.1,0.3-0.3,0.3-0.5c0-0.1,0.1-0.2,0.1-0.2
			c0.2-0.3,0-0.7-0.2-1l0-0.1c-0.1-0.1-0.2-0.2-0.3-0.3c0,0-0.1-0.1-0.1-0.1c-0.2,0.1-0.3,0.2-0.4,0.2c0,0.1-0.1,0.1-0.1,0.1
			c-0.3,0.1-0.6,0.1-0.9,0l0,0.2h-0.1c-0.1,0-0.2,0-0.2,0c0,0,0,0.1,0,0.1c0,0.1-0.1,0.2-0.2,0.2c-0.1,0-0.1,0-0.2,0
			c0,0-0.1,0-0.1,0c-0.1,0-0.1,0-0.2,0.1h0l0,0.1c0,0.1-0.1,0.1-0.1,0.1c-0.1,0-0.2,0-0.2-0.1c0,0,0,0,0,0s0,0-0.1,0.1
			c0,0-0.1,0.1-0.1,0.1c0,0-0.1,0-0.1,0.1C68.2,13.9,68,14,67.9,14c-0.2,0-0.2,0.1-0.2,0.2l0,0.1l-0.1-0.1c0,0.1-0.1,0.1-0.1,0.1
			c-0.1,0.1-0.2,0.1-0.2,0.1c-0.1,0-0.1,0.1-0.2,0.1l0,0c0,0-0.1,0.1-0.1,0.1c-0.2,0.1-0.4,0.2-0.6,0.3l0.5-0.1l-0.4,0.2
			c-0.1,0-0.1,0.1-0.1,0.1c-0.1,0.1-0.3,0.2-0.5,0.1c0,0,0,0-0.1,0c-0.1,0-0.1,0.1-0.1,0.1c-0.1,0.1-0.2,0.2-0.3,0.2
			c0,0-0.1,0-0.1,0h0c0,0,0,0,0,0l0,0l0,0.1c0,0,0,0.1-0.1,0.1c-0.1,0-0.1,0.1-0.2,0.1c-0.1,0.1-0.3,0.3-0.5,0.2c0,0,0,0,0,0l0,0
			l-1,0.6c0,0,0.1,0.1,0.1,0.1c0,0.1,0,0.1-0.1,0.1l0.2,0l-0.1,0.1c0,0,0,0,0,0.1c0,0.1,0,0.1-0.1,0.2c0,0.1-0.1,0.1-0.1,0.1
			c0,0-0.1,0-0.1,0.1c-0.1,0.1-0.1,0.1-0.1,0.2c-0.1,0.1-0.1,0.2-0.2,0.3c-0.1,0.1-0.1,0.1-0.2,0.2H63l0.1,0.2
			c0.1-0.1,0.2-0.1,0.4,0l0.2,0.1l-0.4,0.3l0.1,0.1c0.1-0.1,0.2-0.1,0.3-0.1l0.7-0.6l0.2,0.1l0,0.1c0,0,0,0.1,0,0.1
			c0,0.1,0,0.1-0.1,0.1h0c0.2-0.1,0.4-0.2,0.6-0.3c0.1,0,0.1-0.1,0.2-0.1c0.1-0.1,0.2-0.2,0.5-0.2c0.1,0,0.2-0.1,0.3-0.2
			c0.1-0.1,0.1-0.1,0.2-0.1l0.1-0.1l0,0.2c0,0,0,0,0,0.1c0,0.1,0,0.1,0,0.2l0,0c-0.1,0.2-0.2,0.3-0.3,0.5c-0.1,0.2-0.3,0.3-0.5,0.5
			c0,0-0.1,0.1-0.1,0.1c-0.1,0.1-0.2,0.2-0.4,0.2v0v0c0,0.1-0.1,0.3-0.3,0.3c0,0-0.1,0.1-0.1,0.1c-0.2,0.2-0.3,0.5-0.5,0.7l-1,1.5
			c-0.1,0.2-0.2,0.4-0.3,0.6c-0.1,0.2-0.2,0.4-0.3,0.6c-0.2,0.3-0.4,0.6-0.5,1c-0.1,0.3-0.3,0.7-0.4,1l-0.1,0.3c0,0.1,0,0.1,0,0.1
			c0,0.1,0,0.1-0.1,0.2c-0.2,0.4-0.2,0.5-0.1,1c0,0.1,0,0.1-0.1,0.1l0,0.1c0,0.1-0.1,0.2-0.1,0.4c0,0.2,0,0.3,0,0.5
			c0,0.1,0,0.2,0,0.2c0,0.1,0,0.1,0,0.2c0,0.1,0,0.2,0,0.3c0,0.1,0,0.2,0,0.3c0,0.1,0,0.1,0,0.1c0,0,0,0,0,0.1c0,0,0,0.1,0,0.1
			c0,0.1,0,0.1,0.1,0.2c0,0.1,0.1,0.3,0.1,0.4c0,0.3,0.2,0.5,0.4,0.5c0.1,0,0.1,0.1,0.2,0.1c0,0,0.1,0.1,0.1,0.1
			c0.1,0.1,0.2,0.1,0.3,0.1c0.1,0,0.2,0,0.2,0c0,0,0.1,0,0.1,0l0.1-0.1l0.1,0c0.1,0,0.1,0,0.1,0.1c0.1-0.1,0.2-0.2,0.3-0.2
			c0.1,0,0.2,0,0.3,0.1c0,0,0,0,0,0c0,0,0-0.1,0-0.1c0-0.1,0-0.1,0-0.2c0-0.1,0.1-0.2,0-0.3c-0.2-0.3-0.2-0.6-0.1-0.9
			c0-0.1,0-0.3,0-0.3c0-0.1-0.1-0.1-0.1-0.2c0,0-0.1-0.1-0.1-0.1c-0.1-0.1-0.2-0.3-0.1-0.6c0,0,0,0,0-0.1v0c0-0.1,0-0.2,0-0.2
			c0-0.2,0-0.3,0-0.5c0.1-0.3,0.1-0.6,0.2-0.8l0.1-0.2c0-0.1,0.1-0.2,0.1-0.3c0,0,0-0.1,0-0.1l-0.2-0.2l0.2-0.1c0,0,0,0,0-0.1
			c0.1-0.2,0.1-0.3,0.2-0.3c0.1,0,0.1,0,0.1-0.1c0,0,0,0,0-0.1c0.1-0.2,0.1-0.3,0.2-0.5c0-0.1,0.1-0.1,0.1-0.1l0,0
			c0-0.1,0.1-0.2,0.1-0.2l-0.1,0l0.2-0.1c-0.1-0.1-0.1-0.1,0-0.1c0.1-0.1,0.1-0.2,0.2-0.3c0.1-0.1,0.1-0.1,0.2-0.2
			c0,0,0.1-0.1,0.1-0.1l0,0h0.1c0,0,0,0,0,0s0,0,0-0.1c0-0.1,0-0.2,0-0.3c0.1-0.2,0.2-0.4,0.3-0.6c0.1-0.1,0.2-0.1,0.2-0.1
			c0.1,0,0.3-0.1,0.3-0.2c0,0,0,0,0-0.1c0,0,0-0.1,0-0.1c0,0,0,0,0-0.1c0,0,0,0,0-0.1l-0.1-0.2l0.3,0.1c0.1,0,0.2-0.1,0.2-0.3
			c0-0.1,0-0.1,0.1-0.2l0,0h0.1c0,0,0,0,0.1,0c0-0.1,0-0.1,0-0.2v-0.1h0.1c0,0,0.1,0,0.1,0c0,0,0.1,0,0.1,0c0,0,0-0.1,0.1-0.1
			c0.1-0.1,0.1-0.2,0.2-0.3c0.1,0,0.1-0.1,0.2-0.1c0,0,0.1-0.1,0.1-0.1l0.1-0.1h0l-0.1-0.2l0.5-0.1c0-0.1,0-0.1,0.1-0.2
			c0.1,0,0.1-0.1,0.1-0.1c0.1-0.1,0.1-0.1,0.2-0.1c0.1-0.1,0.2-0.2,0.3-0.3c0.1-0.1,0.2-0.2,0.2-0.2c0,0,0,0,0.1-0.1l-0.1,0l0.1-0.2
			c0,0,0.1-0.1,0.1-0.1c0.3-0.2,0.3-0.2,0.3-0.4v-0.1h0.1c0,0,0,0,0.1-0.1c0-0.1,0.1-0.1,0.2-0.1c0.1,0,0.1,0,0.1,0s0-0.1,0-0.1
			c0,0,0-0.1,0-0.1l0-0.1l0.4-0.3v0c0,0,0,0,0-0.1c0-0.1,0-0.1,0-0.1c0-0.1,0.2-0.2,0.2-0.2c0,0,0,0,0.1,0
			C70.2,16.2,70.3,16.1,70.3,16z M64.3,22.7c-0.1,0.1-0.1,0.2-0.2,0.3C64,23.2,64,23.3,64,23.4c0,0.1-0.1,0.1-0.1,0.2
			c0,0.1-0.1,0.1-0.1,0.2c-0.1,0.1-0.2,0.2-0.2,0.3c0,0.2-0.1,0.3-0.2,0.4c0,0-0.1,0-0.1,0.1l-0.3,0.3l0.2-0.4
			c0.3-0.7,0.7-1.4,1.1-1.9l0.1-0.1l0.1,0.1h0.1L64.3,22.7z M64.6,21.1c0,0-0.1,0.1-0.1,0.1c-0.1,0.1-0.1,0.2-0.1,0.2
			c-0.1,0.1-0.2,0.2-0.2,0.3c-0.2,0.3-0.4,0.5-0.5,0.8c0,0.1-0.1,0.1-0.1,0.2c-0.1,0.2-0.2,0.3-0.3,0.5c-0.1,0.1-0.1,0.2-0.1,0.2
			c0,0.1,0,0.1-0.1,0.2v0c0,0.1,0,0.1-0.1,0.1c-0.1,0-0.1,0.1-0.2,0.1l-0.2,0.1v-0.1c0,0,0,0,0-0.1c0-0.1,0-0.1,0-0.2
			c0.1-0.1,0.2-0.3,0.2-0.4C63,23.1,63,23,63.1,23c0.1-0.2,0.2-0.3,0.3-0.5c0.2-0.3,0.3-0.6,0.5-0.8c0.1-0.2,0.2-0.3,0.3-0.5
			c0.1-0.1,0.1-0.2,0.2-0.2l0.1-0.1l0.2,0.1L64.6,21.1z M66.8,16l0.3-0.4c0.2-0.3,0.5-0.5,0.7-0.4l0.2,0.1L66.8,16z"/>
		<path class="st2" d="M28.7,26.6C28.7,26.6,28.7,26.6,28.7,26.6l0.4,0.1c0.1,0,0.1,0,0.1,0c0.1,0,0.1,0,0.1,0c0.1,0,0.1,0,0.2,0
			c0.1,0,0.3,0,0.4,0.1c0.2,0.1,0.3,0.2,0.5,0.3c0,0,0.1,0.1,0.1,0.1c0.1,0.1,0.2,0.2,0.4,0.3c0.2,0.1,0.3,0.3,0.5,0.4
			c0.2,0.2,0.3,0.3,0.5,0.5c0.1,0.1,0.2,0.2,0.3,0.3c0.1,0.1,0.1,0.1,0.2,0.2c0.1,0.1,0.1,0.1,0.2,0.2c0.1,0.1,0.1,0.1,0.2,0.2
			c0.1,0.1,0.3,0.3,0.4,0.4c0.2,0.1,0.4,0.2,0.7,0.2c0.2,0,0.3-0.1,0.5-0.2c0.1,0,0.1-0.1,0.2-0.1c0.1,0,0.1-0.1,0.2-0.2
			c0-0.1,0.1-0.1,0.1-0.2c0.1-0.2,0.1-0.4,0.1-0.5c-0.2-0.4-0.3-0.8-0.7-1.1c-0.1-0.1-0.1-0.1-0.2-0.2c-0.1-0.1-0.1-0.1-0.1-0.1
			c0-0.1-0.1-0.1-0.1-0.2c-0.1-0.1-0.2-0.1-0.2-0.2c-0.2-0.1-0.3-0.2-0.4-0.4c-0.2-0.2-0.4-0.5-0.7-0.7c-0.1-0.1-0.2-0.3-0.2-0.5
			c0.2-0.3,0.4-0.6,0.6-0.8c0.4-0.5,0.6-1,0.6-1.6c0-0.4-0.1-0.8-0.2-1.1l0-0.1c-0.1-0.3-0.2-0.7-0.5-0.9c-0.1-0.1-0.1-0.1-0.2-0.2
			c-0.1-0.1-0.2-0.2-0.2-0.2c-0.5-0.3-1.1-0.3-1.6-0.3c-0.3,0-0.7,0.1-1,0.1c-0.1,0-0.1,0-0.2,0c0,0-0.1,0-0.1,0h-0.1l0.1-0.2
			c0-0.1,0.1-0.1,0.1-0.2c0-0.1,0.1-0.2,0.1-0.2c0.2-0.4,0.4-0.8,0.8-1l0.1-0.2c0.1-0.2,0.3-0.3,0.4-0.5c0,0,0-0.1,0.1-0.1
			c0-0.1,0-0.1,0.1-0.2c0.1-0.1,0.1-0.3,0.2-0.4c0.1-0.2,0.3-0.5,0.3-0.7c0.3-0.7,0.5-1.4,0.7-2.1c0.1-0.5,0.2-1,0.2-1.4
			c0.1-0.5-0.1-0.9-0.3-1.5c-0.1-0.3-0.2-0.5-0.5-0.7c-0.3-0.2-0.6-0.3-1-0.2c0.4,0.5,0.6,1,0.5,1.6c0,0.3-0.1,0.7-0.2,1
			c0,0.2-0.1,0.3-0.1,0.5c0,0,0,0.1,0,0.1c0,0.1,0,0.1,0,0.2c0,0.1-0.1,0.2-0.1,0.3c-0.1,0.1-0.1,0.3-0.2,0.4
			c-0.1,0.2-0.1,0.5-0.2,0.7c0,0.1-0.1,0.2-0.1,0.3c-0.1,0.1-0.1,0.2-0.1,0.3c0,0.2-0.1,0.3-0.2,0.5c0,0.1-0.1,0.1-0.1,0.2l-0.3,0.5
			c-0.2,0.4-0.4,0.7-0.6,1.1c-0.1,0.1-0.1,0.2-0.1,0.3l0,0.1c0,0.1-0.1,0.1-0.1,0.2c-0.1,0.2-0.1,0.3-0.1,0.5
			c-0.1,0.6-0.2,1.2-0.4,1.6c0,0.1-0.1,0.2,0,0.2c0,0.1,0.1,0.1,0.2,0.1h0c0.1,0,0.1,0,0.2,0.1c0.2,0.2,0.3,0.3,0.5,0.2h0
			c0,0,0.1,0,0.1,0c0.1-0.2,0.1-0.3,0.1-0.5c0.1-0.5,0.3-0.7,0.8-0.7c0.1,0,0.3,0,0.5,0.1c0.4,0.1,0.7,0.2,1,0.5
			c0.4,0.4,0.3,0.9,0.3,1.3c-0.1,0.6-0.3,1-0.6,1.4c-0.2,0.2-0.3,0.5-0.6,0.7c-0.2,0.2-0.4,0.2-0.5,0.1c-0.2-0.1-0.3-0.1-0.5-0.1
			c-0.2,0-0.3-0.1-0.5-0.1c-0.1,0-0.2,0-0.4-0.1c0.3,0.2,0.5,0.4,0.6,0.8c0.1,0.2,0,0.4,0,0.5c-0.1,0.1-0.2,0.2-0.4,0.2
			c0,0-0.1,0-0.1,0c-0.1,0-0.1,0-0.2,0.1c-0.2,0.1-0.3,0.1-0.5,0.1c-0.2,0-0.4-0.1-0.6-0.1c0.1,0,0.1,0,0.1,0.1
			c0.2,0.1,0.5,0.2,0.7,0.3c0.1,0,0.1,0.1,0.2,0.1C28.6,26.6,28.6,26.6,28.7,26.6C28.7,26.5,28.7,26.5,28.7,26.6z"/>
		<path class="st2" d="M72.1,22.5C72.1,22.5,72.1,22.4,72.1,22.5c-0.1-0.1-0.1-0.2-0.1-0.3c0,0,0-0.1,0-0.1l0-0.1L71.9,22l0.1-0.1
			c0,0,0,0,0-0.1c0-0.1,0-0.1-0.1-0.2c-0.1-0.2-0.3-0.3-0.5-0.4l-0.1,0c-0.2-0.1-0.5-0.1-0.7-0.2h-0.1c-0.6-0.1-1.2,0-1.8,0h-0.1
			c-0.1,0-0.2,0-0.2,0c-0.1,0.2-0.3,0.2-0.5,0.2c-0.1,0-0.1,0-0.1,0c-0.1,0-0.2,0-0.3,0l-0.1,0c-0.1,0-0.3,0.1-0.4,0.1
			c-0.1,0-0.2,0-0.2,0.1c-0.1,0-0.2,0-0.3,0.2c-0.1,0.1-0.2,0.1-0.3,0.1c-0.1,0-0.2-0.1-0.2-0.1l-0.2,0.1c-0.2,0-0.3,0.1-0.5,0.1
			l0,0c0,0,0,0,0,0c0.1,0.1,0.2,0.2,0.3,0.3c0,0,0.1,0.1,0.1,0.1c0.1,0.1,0.2,0.1,0.3,0.2c0.1,0.1,0.3,0.1,0.4,0.2
			c0.1,0,0.1,0.1,0.2,0.1c0.1,0.1,0.2,0.1,0.2,0.1c0.2,0,0.4,0.1,0.5,0.1c0.2,0.1,0.4,0.1,0.7,0.1h0.1c0.2,0,0.5,0,0.7,0
			c0.1,0,0.2,0,0.4,0h0.2l-0.1,0.2c0,0.1-0.1,0.1-0.1,0.1c-0.1,0.1-0.1,0.2-0.2,0.3c-0.5,0.4-1,0.8-1.5,1.2
			c-0.2,0.2-0.4,0.3-0.6,0.5c-0.3,0.2-0.6,0.3-0.8,0.5l-0.1,0.1c-0.1,0-0.1,0.1-0.2,0.1c-0.1,0-0.2,0.1-0.2,0.1
			c-0.1,0.1-0.1,0.1-0.2,0.1c-0.1,0.1-0.2,0.1-0.2,0.2c0,0.1-0.1,0.1-0.2,0.1c-0.1,0-0.1,0-0.2,0c-0.1,0-0.2,0-0.3,0l0,0
			c0,0,0,0-0.1,0l0,0c0,0-0.1,0.1-0.1,0.1c-0.1,0-0.1,0-0.2,0c-0.1,0-0.1,0-0.2,0c0,0.1,0.1,0.1,0,0.1c0,0.1-0.1,0.1-0.1,0.2
			c0,0,0,0,0,0c0,0.1,0.1,0.1,0,0.2c0,0,0,0.1,0,0.1c0,0,0.1,0,0.1,0h0c0.1,0,0.2,0,0.2,0.1c0.1,0.1,0.3,0.2,0.4,0.3l0.2,0.1
			c0,0,0.1,0,0.1,0c0.2,0,0.3,0.2,0.3,0.3c0,0.1,0,0.1,0.1,0.2c0.1,0,0.1,0.1,0.2,0.2c0,0,0,0.1,0.1,0.1c0,0,0,0.1,0,0.1
			c0,0,0,0,0,0c0.2,0.1,0.3,0.2,0.4,0.1c0.1,0,0.1,0,0.2,0c0,0,0.1,0,0.1,0c0,0,0,0,0.1,0c0,0,0.1,0,0.1,0c0.1,0,0.1,0,0.2,0
			c0.1,0,0.1,0,0.2,0c0.1,0,0.2,0,0.3,0.1c0.1,0,0.2,0.1,0.3,0.1c0.1,0,0.1,0,0.1,0c0.1,0,0.2,0.1,0.3,0.1c0.1,0,0.2,0.1,0.3,0.1
			c0.1,0,0.1,0,0.2,0c0.1,0,0.1,0,0.2,0.1c0.1,0,0.2,0,0.3,0c0.2,0,0.4,0,0.6,0.1c0.1,0.1,0.3,0.1,0.4,0.1c0.1,0,0.2,0,0.3,0
			c0,0,0.1,0,0.1,0c0,0,0.1,0,0.1,0c0.1,0,0.1,0,0.2-0.1l0.4-0.1c0,0,0.1,0,0.1,0l0.2-0.1c0-0.1,0-0.1,0-0.1c0-0.1,0-0.3,0-0.4
			c0-0.1,0.1-0.3,0.1-0.4c0-0.1,0.1-0.2,0.1-0.2c0.1-0.2,0-0.2-0.1-0.3l0,0c-0.2-0.2-0.4-0.4-0.7-0.5c-0.1-0.1-0.2-0.1-0.3-0.2
			c-0.1-0.1-0.2-0.2-0.3-0.2c-0.1,0-0.1-0.1-0.1-0.1l0-0.1l0-0.1c0.1-0.1,0.2-0.2,0.2-0.3c0-0.1,0.1-0.2,0.2-0.2
			c0,0,0.1-0.1,0.1-0.1c0.2-0.3,0.5-0.5,0.7-0.6l0,0l-0.1-0.2H71c0.2,0,0.3-0.1,0.4-0.3c0.1-0.2,0.1-0.3,0.3-0.4L71.6,24l0.1-0.2
			c0.1-0.1,0.1-0.2,0.2-0.3c0,0,0-0.1,0-0.1c0-0.1,0-0.1,0.1-0.2C72,23.2,72,23.1,72,23c0-0.1,0-0.2,0-0.3
			C72.2,22.6,72.1,22.6,72.1,22.5z"/>
		<path class="st2" d="M24.1,21.5c0.1-0.1,0.1-0.2,0.1-0.3c0-0.1-0.1-0.2-0.1-0.3c0-0.1,0-0.2,0-0.2c0-0.1,0-0.2-0.1-0.3l-0.1-0.1
			l0-0.1c0,0,0,0-0.1,0h-0.2v-0.1h-0.1c0,0-0.1-0.1-0.2-0.1c-0.1,0-0.2,0-0.2,0c-0.1,0-0.2,0-0.3,0c-0.1,0-0.1,0-0.2,0
			c-0.1,0-0.3,0-0.4,0.1l0,0c-0.3,0.2-0.6,0.3-0.6,0.7c0,0.1-0.1,0.2-0.1,0.2c-0.1,0.1-0.1,0.1-0.2,0.2c-0.2,0.2-0.5,0.4-0.7,0.5
			c-0.4,0.2-0.8,0.5-1.2,0.7c-0.3,0.2-0.5,0.3-0.8,0.5c-0.1,0.1-0.2,0.1-0.3,0.2c-0.1,0.1-0.2,0.1-0.3,0.2c-0.2,0.1-0.5,0.2-0.7,0.4
			l-0.1,0.1c0,0.1,0,0.1,0,0.2s0,0.1,0,0.2c0.1,0.1,0.1,0.1,0.2,0.2l0.1,0.1c0.2,0.2,0.5,0.3,0.7,0.2c0.1,0,0.2-0.1,0.2-0.1
			c0.1,0,0.2-0.1,0.2-0.1c0.2-0.2,0.4-0.2,0.6-0.2c0.1,0,0.3-0.1,0.4-0.1c0.1-0.1,0.3-0.1,0.5-0.1c0.1,0,0.1,0,0.2,0h0.2l-0.1,0.2
			h0.1l-0.1,0.1c-0.1,0.2-0.1,0.3-0.2,0.4c-0.1,0.2-0.2,0.4-0.2,0.6c-0.1,0.3-0.2,0.6-0.3,0.8c0,0.1-0.1,0.2-0.1,0.3
			c-0.1,0.1-0.1,0.3-0.1,0.4c-0.1,0.3-0.3,0.6-0.4,0.9c0,0.1-0.1,0.2-0.1,0.2c-0.1,0.2-0.2,0.4-0.3,0.6c-0.1,0.2-0.3,0.3-0.4,0.5
			c-0.1,0.1-0.2,0.2-0.2,0.3c0,0,0,0,0,0.1l0,0.2c0,0.2,0,0.3,0.1,0.5v0.1c0,0.1,0.1,0.3,0.1,0.3c0.2,0.1,0.3,0.3,0.4,0.5
			c0,0,0.1-0.1,0.1-0.1c0.1-0.1,0.2-0.1,0.2-0.2c0-0.1,0.1-0.2,0.2-0.2c0.1,0,0.2,0,0.4,0c0.1,0,0.2,0,0.2,0l-0.1-0.1l0.3-0.4
			l0.1,0.2c0-0.1,0.1-0.1,0.1-0.2c0,0,0-0.1,0.1-0.1c0-0.1,0-0.1,0.1-0.1c0.1-0.1,0.1-0.2,0.2-0.4c0.1-0.1,0.1-0.2,0.2-0.3l0.1-0.1
			c-0.1,0-0.1,0-0.1-0.1c-0.1-0.1,0-0.2,0-0.2l0-0.1l0.2,0c0,0,0,0,0-0.1c0-0.1,0-0.1,0-0.2c0,0,0,0,0-0.1c0-0.1,0-0.2,0.2-0.3
			c0,0,0.1,0,0.1-0.1c0-0.1,0.1-0.2,0.2-0.3h0v0c0,0,0-0.1,0-0.1c0,0,0-0.1,0-0.1c0.1-0.1,0.2-0.3,0.2-0.5c0.1-0.2,0.1-0.4,0.2-0.6
			c0-0.1,0.1-0.1,0.1-0.1c-0.1,0-0.1-0.1-0.1-0.1c0-0.1,0-0.2,0.1-0.3c0.1-0.1,0.1-0.3,0.2-0.5l0-0.1c0,0,0-0.1,0-0.1
			c0-0.1,0-0.1,0-0.2c0-0.1,0.1-0.2,0.1-0.3c0-0.1,0.1-0.2,0.1-0.3c0.1-0.2,0.1-0.3,0.2-0.5c0.1-0.2,0.1-0.3,0.2-0.5
			c0-0.1,0.1-0.2,0.2-0.3c0.1-0.2,0.3-0.2,0.4-0.3c0.2-0.1,0.3-0.2,0.4-0.3c0.1-0.1,0.1-0.2,0.3-0.2c0-0.1,0.1-0.2,0.2-0.3
			C24,21.6,24,21.6,24.1,21.5z"/>
		<path class="st2" d="M54.9,29.8l-0.3-0.3h0.1l0,0l0.1-0.2l0.4,0.1l0,0l0.1-0.1l0.1,0l-0.1,0l0.1-0.2c0,0-0.1-0.1-0.1-0.1
			c-0.1,0-0.1-0.1-0.1-0.1c-0.1,0-0.1-0.1-0.2-0.1c-0.4-0.1-0.7-0.3-1.1-0.4c-0.1,0-0.1,0-0.2-0.1c0,0-0.1,0-0.1,0
			c-0.1,0-0.2-0.1-0.3-0.1c-0.2-0.1-0.5-0.1-0.7-0.2c-0.2-0.1-0.4-0.2-0.5-0.3c-0.1-0.1-0.2-0.1-0.2-0.2c-0.1,0-0.1-0.1-0.2-0.1
			l-0.4-0.2c-0.1,0-0.1,0-0.1,0c-0.1,0-0.1-0.1-0.2-0.2c-0.2-0.1-0.5-0.2-0.7-0.3c-0.1-0.1-0.3-0.2-0.4-0.3
			c-0.1-0.1-0.1-0.1-0.1-0.1c0,0-0.1,0-0.1-0.1c-0.1,0-0.1-0.1-0.2-0.1c-0.1-0.1-0.2-0.2-0.3-0.3C49.1,26,49.1,26,49,26
			c-0.1-0.1-0.2-0.2-0.2-0.2c-0.1-0.1-0.2-0.2-0.3-0.2c-0.1-0.1-0.3-0.2-0.4-0.2c-0.2-0.2-0.4-0.3-0.7-0.3c-0.1,0-0.1,0-0.2-0.1
			c-0.1-0.1-0.1-0.1-0.1-0.1s0,0,0,0c0.2,0.1,0.2,0.3,0.2,0.4c0,0,0,0,0,0.1c0,0,0,0.1,0,0.1c0.2,0.1,0.2,0.2,0.2,0.3
			c0,0,0,0.1,0,0.1c0.1,0.2,0.1,0.3,0.1,0.5l0,0.1c0,0.1,0,0.2,0,0.3c0,0.1,0,0.2,0.1,0.3c0.1,0.2,0.1,0.3,0.2,0.5
			c0.1,0.1,0.1,0.3,0.1,0.4c0,0.1,0.1,0.2,0.1,0.3c0,0.1,0,0.1,0.1,0.2c0,0,0,0.1,0.1,0.1c0,0,0,0.1,0,0.1c0,0,0,0.1,0,0.1
			c0,0.1,0,0.1,0.1,0.2c0,0,0.1,0.1,0.1,0.1l0,0c0.1,0.1,0.1,0.1,0.1,0.2c0,0.1,0.1,0.2,0.2,0.2c0.1,0.1,0.3,0.1,0.4,0.3
			c0.1,0.1,0.1,0.1,0.1,0.2v0c0,0,0.1,0,0.1,0c0.1,0,0.2,0,0.3,0.2c0.1,0.1,0.2,0.2,0.4,0.3c0.1,0.1,0.2,0.1,0.4,0.1
			c0.1,0,0.1,0.1,0.2,0.1c0.1,0,0.1,0,0.1,0.1c0.2,0.1,0.4,0.2,0.6,0.1c0,0,0,0,0.1,0c0-0.1,0-0.1,0.1-0.1c0.1,0,0.1,0,0.2-0.1
			c0.2-0.1,0.3-0.1,0.5-0.1c0.3,0,0.5,0,0.8-0.1c0.1,0,0.2,0,0.2-0.1c0.2-0.1,0.4,0,0.6,0h0l-0.1-0.1l0.2-0.1c0.1,0,0.2,0,0.3,0
			c0.1,0,0.1,0,0.2,0l0,0l0-0.2H54.9z"/>
		<path class="st2" d="M38.2,18c0-0.1,0.1-0.2,0.1-0.4c0-0.1,0-0.1,0-0.2c0-0.2,0-0.3,0.1-0.5c0.1-0.2,0.1-0.3,0.2-0.5
			c0-0.1,0.1-0.2,0.1-0.3c0.1-0.2,0.1-0.3,0.2-0.5c0-0.1,0.1-0.3,0.1-0.4c0.1-0.1,0.1-0.3,0.2-0.4c0.1-0.1,0.1-0.2,0.1-0.4
			c0.1-0.2,0.2-0.5,0.2-0.7c0.1-0.2,0.1-0.4,0.2-0.6c0.1-0.3,0.2-0.7,0.4-1.1c0.1-0.3,0.2-0.5,0.3-0.8c0.1-0.2,0.1-0.3,0.2-0.5
			c0.1-0.2,0.2-0.4,0.3-0.6c0.2-0.6,0.4-1,0.5-1.4c0.2-0.5,0.3-0.9,0.4-1.4c0-0.1,0-0.2-0.1-0.3c-0.1-0.1-0.2-0.2-0.3-0.2
			c0,0-0.1,0.1-0.1,0.1c0,0.1,0,0.1,0,0.2c0,0.1,0,0.2-0.1,0.3c-0.1,0.2-0.2,0.5-0.3,0.7c-0.1,0.1-0.1,0.2-0.1,0.3L40.5,9
			c-0.2,0.4-0.4,0.8-0.6,1.3c-0.1,0.2-0.2,0.5-0.3,0.7c-0.1,0.2-0.1,0.3-0.2,0.5c-0.1,0.1-0.1,0.2-0.2,0.4c-0.1,0.2-0.2,0.4-0.2,0.6
			c-0.1,0.2-0.2,0.5-0.3,0.8c-0.1,0.2-0.1,0.4-0.2,0.6c-0.1,0.2-0.2,0.5-0.3,0.7c-0.1,0.2-0.1,0.3-0.2,0.5C38,14.9,38,15,38,15
			c0,0.1,0,0.1-0.1,0.2c0,0.1-0.1,0.1-0.1,0.2c-0.1,0.1-0.1,0.2-0.1,0.3c0,0.1-0.1,0.2-0.1,0.3c0,0.1-0.1,0.3-0.1,0.4
			c0,0.1-0.1,0.2-0.1,0.2c0,0.1-0.1,0.1-0.1,0.2c0,0.1,0,0.1,0,0.2c0,0.1,0,0.1-0.1,0.2c-0.1,0.2-0.1,0.3-0.2,0.5
			c0,0.1-0.1,0.2-0.1,0.3c0,0,0,0.1,0,0.1l-0.1,0.4l0.1,0.1l-0.1,0.1c0,0,0,0.1-0.1,0.1c0,0.1-0.1,0.1-0.1,0.2c0,0.1,0,0.1,0,0.2
			c0,0.1,0,0.1,0,0.1c0,0.1,0,0.2-0.1,0.3c0,0.1,0,0.1,0,0.2v0.1l0.2,0.2l-0.2,0c0.1,0.3,0,0.7-0.1,0.9l-0.1,0.8l-0.1-0.2v0.1
			l-0.1,0.1c0.1,0.1,0.1,0.3-0.1,0.4c0,0,0,0.1,0,0.1c0,0.2,0,0.3,0,0.5c0,0,0,0.1,0,0.1c0,0.1,0,0.1,0.1,0.2c0.1,0,0.1,0.1,0.1,0.1
			v0c0,0,0,0.1,0,0.1c0,0.1,0.1,0.1,0.1,0.1c0.2,0.1,0.3,0.3,0.5,0.4l0.2,0.1c0.1,0,0.1,0.1,0.2,0.1h0c0,0,0,0,0,0
			c0,0,0.1-0.1,0.1-0.1c0.1-0.2,0.1-0.5,0.2-0.7c0-0.1,0-0.1,0-0.2c0-0.1,0-0.1,0-0.2c0-0.3,0-0.5,0.1-0.8c0-0.2,0-0.3,0.1-0.5
			l0-0.2v0c-0.1-0.1-0.1-0.2,0-0.3c0,0,0-0.1,0-0.1c-0.1-0.2,0-0.3,0-0.4c0,0,0-0.1,0-0.1s0-0.1,0-0.1c0-0.1,0-0.1,0-0.2
			c0-0.1,0-0.1,0-0.2l0-0.1h0c0-0.1,0-0.1,0-0.2c0-0.1,0-0.1,0-0.2c0-0.1,0.1-0.2,0.1-0.3c0-0.1,0-0.1,0-0.2c0-0.1,0-0.2,0.1-0.3
			c0.1-0.1,0.1-0.2,0-0.2c0-0.1,0-0.1,0-0.1L38.2,18z M37.4,19.2l-0.2-0.1l0.2-0.8l0.3,0.1L37.4,19.2z"/>
		<path class="st2" d="M14.5,21c0.1-0.1,0.3-0.2,0.4-0.4c0.1-0.1,0.1-0.1,0.2-0.2c0.1-0.1,0.1-0.1,0.2-0.2l0.1-0.1
			c0.2-0.2,0.4-0.4,0.5-0.6c0-0.1,0-0.1,0-0.2c-0.1-0.6-0.5-0.9-1-1.3c-0.2-0.1-0.3-0.2-0.5-0.3l-0.1-0.1c-0.1-0.1-0.2-0.2-0.4-0.2
			c0,0,0,0-0.1,0c0,0.3,0,0.6-0.2,0.9c-0.1,0.1-0.1,0.2-0.2,0.3c-0.1,0.2-0.3,0.4-0.3,0.6c0,0.1-0.1,0.1-0.1,0.1l0,0
			c0,0.1-0.1,0.1-0.1,0.2c0,0.1-0.1,0.1-0.1,0.2c0,0.1-0.1,0.1-0.1,0.1c0,0,0,0,0,0.1L12.7,20l0-0.1c-0.1,0.1-0.1,0.2-0.2,0.3
			c-0.1,0.2-0.2,0.4-0.4,0.6c0,0,0,0.1,0,0.1s0,0.1-0.1,0.1c0,0-0.1,0.1-0.1,0.1c0,0.1-0.1,0.2-0.2,0.3c0,0,0,0.1,0,0.1
			c-0.1,0.2-0.2,0.3-0.2,0.5c0,0.1-0.1,0.1-0.1,0.2c-0.1,0.2-0.2,0.3-0.3,0.5c-0.2,0.2-0.3,0.3-0.3,0.6c0,0.1-0.1,0.2-0.1,0.2l0,0.1
			c0,0.1-0.1,0.1-0.1,0.1c-0.1,0.1-0.1,0.2-0.1,0.2c0,0.1-0.1,0.2-0.2,0.2c-0.1,0.1-0.1,0.2-0.2,0.2c0,0.1-0.1,0.1-0.1,0.2
			c0,0,0,0.1-0.1,0.1c0,0,0,0,0,0.1c0,0.1-0.1,0.3-0.3,0.2l0.1,0.1l-0.3,0.5l-0.1,0.3H9.3c-0.1,0-0.1,0-0.1,0l0,0.1
			c0.1,0.1,0,0.2-0.1,0.3c-0.1,0.1-0.1,0.1,0,0.1c0,0.1,0,0.1,0.1,0.1c0.1-0.1,0.2-0.1,0.2-0.2l0.1,0l-0.1-0.2l0.3,0.1
			c0,0,0-0.1,0-0.1c0-0.1,0.1-0.2,0.1-0.3l0.1-0.3l0.2,0v0.1c0,0,0,0.1,0,0.1c0,0,0,0,0,0c0,0,0,0,0.1-0.1c0.1-0.1,0.1,0,0.1,0
			c0,0,0,0,0,0c0,0,0,0,0.1-0.1c0.1-0.1,0.1-0.1,0.2-0.1h0l0,0c0,0,0.1,0.1,0.1,0.1s0.1,0,0.1-0.1l0.3-0.4c0.1-0.1,0.1-0.1,0.1-0.2
			c0.1-0.1,0.2-0.3,0.3-0.4c0.1-0.1,0.2-0.1,0.3-0.2l-0.2-0.1l0.3-0.1l-0.2-0.3l0.3,0c0-0.1-0.1-0.2,0-0.3v0c0-0.1,0-0.1,0-0.2
			c0,0,0.1-0.1,0.1-0.1c0,0,0.1,0,0.1,0l-0.1-0.2l0.1-0.1c0.1,0,0.1,0,0.2,0c0,0,0.1,0,0.1,0l0-0.1c0.1-0.3,0.3-0.6,0.5-0.7
			c0.1,0,0.1,0,0.1,0l0.2-0.2l0,0l0.3-0.3l-0.1-0.2l0.1,0c0.1,0,0.1,0,0.2-0.1c0.1-0.2,0.3-0.3,0.4-0.4C14.3,21.1,14.4,21.1,14.5,21
			z"/>
		<path class="st2" d="M26.9,23.4l-0.1-0.1v0.3C26.9,23.5,26.9,23.5,26.9,23.4z"/>
		<path class="st2" d="M26.3,25.6c0-0.1,0.1-0.2,0.2-0.2c0.1,0,0.1,0,0.1-0.1c0,0,0,0,0-0.1c0.1-0.2,0.1-0.4,0.2-0.6l0.1-0.2
			c0,0,0-0.1,0-0.1s0-0.1,0-0.1c0,0,0,0,0,0c-0.1,0.3-0.2,0.6-0.3,0.7l-0.3,0.3l0.3-0.6l-0.2-0.1l0.1-0.2h0.1c0.1,0,0.1,0,0.1,0
			c0,0,0-0.1,0-0.1c0-0.2,0-0.2,0.1-0.3c0,0,0.1-0.1,0.1-0.1c0,0,0-0.1,0-0.1l0.2-0.5l-0.1-0.1l0.1-0.2l0.1,0l-0.1-0.2
			c0,0.1-0.1,0.1-0.1,0.2l0,0.1c-0.1,0.2-0.2,0.4-0.2,0.6c0,0,0,0.1-0.1,0.1c-0.1,0.1-0.1,0.2-0.1,0.2c0,0.1,0,0.1-0.1,0.2
			c0,0,0,0.1-0.1,0.1l-0.1,0.2L26,24.3c0-0.1,0-0.1-0.1-0.1c0-0.1-0.1-0.2,0-0.2c0.1-0.1,0.1-0.3,0.2-0.5l0-0.1c0-0.1,0-0.1,0-0.1
			c0-0.1,0.1-0.2,0.1-0.3L26,23l0-0.1c0.1-0.2,0.1-0.3,0.2-0.4c0.1-0.1,0.1-0.2,0.1-0.3c0.1-0.1,0.1-0.2,0.1-0.3
			c0-0.2,0-0.3,0.1-0.5c-0.1,0-0.1-0.1-0.1-0.1c0-0.1,0.1-0.2,0.1-0.2c0,0,0-0.1,0.1-0.2c0-0.1,0-0.1,0-0.2c0-0.1,0-0.3,0-0.4
			c0-0.1,0-0.1,0.1-0.2h0c0,0.1,0,0.2-0.1,0.2c0,0.1,0,0.1,0,0.2c0,0.1,0,0.2,0,0.3c-0.1,0.2-0.1,0.3-0.2,0.5c0,0.1-0.1,0.2-0.1,0.3
			c0,0.1,0,0.1,0,0.1c0,0,0,0.1,0,0.1v0l0,0c0,0,0,0.1,0,0.1c0,0.1-0.1,0.2-0.1,0.2c0,0.1-0.1,0.2-0.1,0.3c0,0.2-0.1,0.3-0.1,0.5
			c-0.1,0.1-0.1,0.3-0.2,0.4c-0.1,0.1-0.1,0.2-0.1,0.3c0,0.1,0,0.1,0,0.2c0,0.1,0,0.2-0.1,0.3c-0.1,0.2-0.2,0.4-0.2,0.6
			c0,0.1-0.1,0.3-0.1,0.4c0,0.1-0.1,0.2-0.1,0.3c-0.1,0.2-0.2,0.3-0.2,0.5c-0.1,0.2-0.2,0.4-0.2,0.6l-0.1,0.1
			c-0.1,0.1-0.1,0.2-0.2,0.3c0,0.1-0.1,0.1-0.1,0.2L24,27.1L24,26.9c0-0.1-0.1-0.1-0.1-0.2c-0.1-0.1-0.1-0.2-0.1-0.3
			c-0.1-0.3-0.2-0.6-0.2-0.9l0-0.1c-0.1-0.3-0.2-0.6-0.4-0.8c-0.1-0.1-0.1-0.1-0.1,0h0c0,0,0,0.1,0,0.1c0,0.1,0,0.1,0,0.2
			c0,0.1,0,0.2,0.1,0.3v0.2c0,0.6,0,1.2,0,1.8c0,0.3,0,0.6-0.1,0.8c0,0.2,0,0.3-0.1,0.5c0,0.1,0,0.2,0.1,0.2
			c0.1,0.2,0.3,0.4,0.5,0.5l0.1,0.1c0.1,0.1,0.2,0.2,0.3,0.2c0.2,0,0.6,0,0.8-0.3c0.1-0.1,0.1-0.2,0.2-0.2c0.1-0.2,0.2-0.3,0.3-0.5
			c0.1-0.2,0.3-0.3,0.4-0.5c0.1-0.1,0.2-0.2,0.3-0.3l0-0.1c0,0,0.1-0.1,0.1-0.1c0-0.1,0.1-0.2,0.1-0.3C26,27,26,27,26,26.9
			c0-0.1,0-0.2,0.1-0.2c0.1-0.1,0.1-0.2,0-0.2c0-0.1,0-0.1,0.1-0.2c0,0,0,0,0.1-0.1c0-0.1,0-0.2,0-0.3S26.2,25.7,26.3,25.6z"/>
		<path class="st2" d="M27,22.5c0-0.1,0.1-0.2,0.1-0.2l0-0.1c0-0.1,0-0.1,0-0.1s0-0.1,0-0.1L27,22l0,0.1C27,22.2,26.9,22.4,27,22.5
			c-0.1,0-0.1,0.1-0.2,0.2l0.1,0.1c0,0,0-0.1,0.1-0.1c0,0,0-0.1,0.1-0.1C27,22.6,27,22.6,27,22.5z"/>
		<path class="st2" d="M15.4,27.7c0-0.1,0-0.2,0-0.3c0-0.1,0-0.2,0-0.3c0-0.1,0-0.2,0-0.2c0-0.2,0-0.5,0.1-0.7c0-0.2,0-0.3-0.1-0.5
			l-0.6,1.2h-0.2v-0.1c0-0.1,0-0.1,0-0.2c0-0.1,0-0.2-0.1-0.3c-0.1-0.5-0.1-1,0-1.5c0-0.1,0-0.2,0-0.3c0.1-0.7,0-1.3-0.3-1.8
			c-0.1-0.1-0.1-0.1-0.1-0.1s0,0-0.1,0.1c0,0-0.1,0.1-0.1,0.1c-0.1,0.1-0.1,0.2-0.1,0.3c-0.1,0.2-0.3,0.5-0.3,0.7
			c-0.1,0.2-0.2,0.5-0.2,0.7c0,0.1-0.1,0.2-0.1,0.4c-0.3,0.9-0.4,1.8-0.2,2.6c0,0.2,0.1,0.4,0.1,0.6l0.1,0.2c0,0,0,0,0,0.1
			c0,0,0,0.1,0.1,0.1c0,0.1,0,0.2,0.1,0.3c0,0.2,0.1,0.4,0.1,0.5c0.1,0.2,0.2,0.4,0.4,0.6l0,0.1c0.1,0.2,0.2,0.3,0.3,0.3
			c0.2,0.1,0.4,0.1,0.6,0.1c0.3,0,0.6-0.2,0.7-0.5c0.1-0.2,0.1-0.4,0.1-0.6c0-0.1,0-0.1,0-0.2c0-0.2,0-0.3,0-0.5c0-0.1,0-0.2,0-0.3
			c0-0.1,0-0.1,0-0.2C15.4,27.8,15.4,27.8,15.4,27.7z"/>
		<path class="st2" d="M80.6,29.7c0.1-0.1,0.1-0.1,0.2-0.2v0c0.1-0.1,0.1-0.3,0.1-0.4c0-0.1,0-0.3-0.1-0.3l0,0
			c-0.1-0.1-0.1-0.1-0.1-0.2c0-0.1-0.1-0.2-0.1-0.2s-0.1,0-0.2,0.1l-0.1,0.1l-0.1-0.4c0,0-0.1,0-0.1,0C80,28,80,27.9,80,27.9
			c0,0-0.1,0-0.1,0c-0.1,0-0.1-0.1-0.1-0.2c0-0.2,0-0.3-0.1-0.5c-0.2-0.4-0.2-0.8-0.2-1.1c0-0.3,0-0.6,0-0.9v-0.2c0-0.1,0-0.2,0-0.4
			c0-0.1,0-0.2,0-0.4c0-0.2,0-0.5,0-0.7c0-0.2,0-0.3,0.1-0.5c0,0,0-0.1,0.1-0.1c-0.1-0.1,0-0.3,0-0.4c0-0.1,0.1-0.1,0.1-0.1
			c0-0.3,0.1-0.5,0.2-0.7c-0.2,0.3-0.3,0.7-0.5,1c-0.3,0.8-0.5,1.6-0.6,2.7c0,0.1,0,0.2-0.1,0.3c0,0.2-0.1,0.3-0.1,0.5
			c0,0.1,0,0.3-0.1,0.4c0,0.1-0.1,0.3-0.1,0.4c0,0.2,0,0.5-0.1,0.8c-0.1,0.3-0.2,0.6-0.2,0.8c0,0.3,0,0.4,0.1,0.6
			c0,0.1,0.1,0.1,0.1,0.1c0.1,0.2,0.2,0.3,0.4,0.3c0.1,0,0.1,0,0.2,0.1l0,0c0.2,0.2,0.4,0.4,0.7,0.3c0,0,0,0,0,0c0,0,0.1,0,0.1,0
			l0.2,0.1l0.1-0.1C80.4,29.8,80.5,29.8,80.6,29.7z"/>
		<path class="st2" d="M83.6,17.9c0.1-0.1,0.2-0.2,0.3-0.3c0.1-0.1,0.1-0.3,0.2-0.4c0.1-0.1,0.1-0.2,0.2-0.3c0.1-0.2,0.1-0.2,0-0.3
			l0,0l0-0.1c0,0,0-0.1,0-0.1c-0.2,0.1-0.5,0.3-0.7,0.4c-0.4,0.2-0.8,0.4-1.2,0.7c0,0,0,0,0,0c0.1,0.1,0.1,0.1,0.1,0.2
			c0,0.1-0.1,0.3-0.2,0.3c-0.1,0.2-0.2,0.3-0.2,0.6c-0.1,0.4,0.1,0.6,0.3,0.9l0.1,0.1c0,0,0,0,0.1,0c0.1,0,0.1,0,0.2,0
			c0.2,0,0.3,0,0.5,0c0.4-0.1,0.4-0.1,0.3-0.6C83.3,18.6,83.3,18.2,83.6,17.9L83.6,17.9z"/>
		<path class="st2" d="M76.6,18.9c0.2-0.4,0.2-0.6,0.1-0.8c-0.2-0.3-0.5-0.7-0.8-1c-0.1-0.1-0.2-0.2-0.3-0.3
			c-0.1-0.1-0.2-0.2-0.3-0.4c-0.1-0.1-0.1-0.1-0.2-0.2c0,0,0,0-0.1,0c-0.1,0-0.1,0-0.2,0c0,0-0.1,0-0.1,0c-0.1,0-0.4,0.5-0.5,0.7
			c0,0.1,0,0.1,0,0.2c0,0.1,0,0.2,0,0.2c0,0.1,0,0.2,0,0.2c0.2,0.1,0.3,0.3,0.5,0.5c0,0.1,0.1,0.1,0.1,0.2l0,0.1
			c0.1,0.2,0.3,0.5,0.4,0.6c0.2,0.2,0.5,0.3,0.7,0.3C76.3,19.2,76.4,19.2,76.6,18.9z"/>
		<path class="st2" d="M78.9,8.6C78.9,8.6,78.9,8.6,78.9,8.6c0.3,0.1,0.6,0.2,0.8,0.3c0.1,0.1,0.3,0.2,0.4,0.3
			c0.1,0.1,0.1,0.1,0.2,0.2c0.1,0.1,0.2,0.1,0.4,0.1c0.1,0,0.2-0.1,0.2-0.1c0.2-0.2,0.3-0.5,0.3-0.9c0-0.2-0.2-0.4-0.3-0.6
			c-0.1-0.2-0.2-0.3-0.4-0.4c-0.1-0.1-0.3-0.2-0.4-0.3c0,0-0.1,0-0.1,0c-0.2,0-0.4,0-0.5,0.2c-0.1,0.2-0.2,0.3-0.4,0.4
			c-0.2,0.1-0.4,0.3-0.6,0.4c-0.2,0.1-0.4,0.2-0.6,0.4l-0.1,0c0,0-0.1,0-0.1,0.1l0.7-0.2l-0.1,0.2C78.6,8.7,78.7,8.6,78.9,8.6z"/>
		<path class="st2" d="M44,10.3c0.1-0.1,0.2-0.3,0.3-0.4c0,0,0-0.1,0-0.1c0-0.2-0.1-0.3-0.2-0.4l0-0.1C44,9.2,43.9,9.1,43.7,9
			C43.6,9,43.5,9,43.3,9c-0.2-0.1-0.4-0.1-0.6-0.1c-0.1,0-0.2,0-0.3,0.1C42.2,9,42,9.1,41.8,9.3c0,0.1-0.1,0.1,0,0.2
			c0.1,0.3,0.2,0.4,0.5,0.5c0.2,0.1,0.4,0.2,0.6,0.4c0.3,0.2,0.5,0.4,0.9,0.5l0.1-0.2l-0.1-0.1l0.1-0.1L44,10.3z"/>
		<path class="st2" d="M40.7,13.9c0,0.1,0,0.1,0,0.2c0.1,0.3,0.2,0.6,0.3,0.8c0.2,0.2,0.3,0.4,0.5,0.6c0.1,0.1,0.1,0.1,0.2,0.2
			l0.1,0c0.1,0,0.2,0,0.3,0c0.2,0,0.4-0.1,0.6-0.3c0.1-0.1,0.1-0.3,0.1-0.4c0-0.1-0.1-0.3-0.2-0.5c-0.1-0.1-0.2-0.3-0.4-0.4
			c-0.1-0.1-0.1-0.1-0.1-0.2c-0.1-0.1-0.1-0.2-0.2-0.1c-0.1,0-0.3,0-0.4-0.1c-0.1,0-0.2-0.1-0.3-0.1c-0.1,0-0.2-0.1-0.2-0.1h0
			l0.1,0.3l-0.1,0C40.7,13.8,40.7,13.8,40.7,13.9z"/>
		<path class="st2" d="M9.8,26.4L9.8,26.4L9.8,26.4L9.8,26.4z"/>
		<path class="st2" d="M80.1,27.8L80,27.2c0.2-0.1,0,0.3,0.3,0.1l0,0.2l-0.1-0.1C80.2,27.6,80.1,27.7,80.1,27.8z"/>
		<path class="st2" d="M13.5,15.9C13.5,15.9,13.5,15.9,13.5,15.9c0.1-0.1,0.1-0.1,0.1-0.1C13.5,15.9,13.5,15.9,13.5,15.9L13.5,15.9z
			"/>
		<path class="st2" d="M15.9,14.2c0.2-0.1,0.3-0.2,0.5-0.2c0.3-0.2,0.7-0.4,1-0.6c0.2-0.1,0.4-0.3,0.5-0.4l0.1-0.1
			c0.3-0.3,0.4-0.7,0.3-1c-0.1-0.1-0.1-0.2-0.2-0.4C18,11.3,18,11.2,17.9,11c-0.1-0.2-0.1-0.4-0.2-0.5l-0.1-0.2
			c-0.1-0.2-0.1-0.3-0.1-0.5c-0.1-0.3-0.2-0.6-0.3-0.9c0-0.1-0.1-0.3-0.3-0.3c-0.2,0.1-0.2,0.3-0.2,0.5c0,0,0,0.1,0,0.1
			c0,0.1,0,0.1,0,0.1c0,0.2-0.1,0.3,0,0.5c0,0.1,0,0.1,0,0.1c0,0,0,0,0,0c0.1,0.3-0.1,0.5-0.2,0.7c-0.1,0.1-0.3,0.3-0.4,0.4
			c-0.1,0.1-0.1,0.1-0.2,0.2l-0.2,0.2c-0.2,0.2-0.4,0.4-0.6,0.6l0,0C15,12,15,12.1,15,12.2c-0.1,0.3-0.3,0.6-0.5,0.6
			c-0.1,0-0.2,0.1-0.2,0.1C14.2,13,14.1,13,14,13.1c-0.1,0.1-0.2,0.2-0.2,0.4c0,0.1-0.1,0.1-0.1,0.1l-0.1,0.1
			c-0.1,0.1-0.2,0.2-0.3,0.3c-0.1,0.1-0.1,0.1-0.1,0.1c0,0,0,0,0,0c0,0-0.1,0-0.1,0c0,0,0,0-0.1,0c-0.1,0.1-0.2,0.2-0.3,0.4
			l-0.1,0.1l0.3,0L13,14.7c0,0,0,0,0,0.1c0,0.3-0.2,0.6-0.5,0.6h0l0,0.1c0,0,0,0.1,0,0.1c0,0.1,0,0.1-0.1,0.2
			c-0.1,0.1-0.2,0.3-0.3,0.4l-0.2,0.2c0,0,0,0-0.1,0.1c-0.1,0.1-0.1,0.2-0.2,0.3c-0.1,0.1-0.2,0.3-0.3,0.4c-0.1,0.1-0.1,0.2-0.2,0.2
			c-0.1,0.2-0.2,0.3-0.3,0.5c0,0,0,0.1,0,0.1c0,0,0.1,0,0.1,0c0,0,0,0,0.1,0h0.1L11,17.8l0.1-0.2c0.1-0.1,0.1-0.3,0.2-0.4
			c0-0.1,0.1-0.1,0.1-0.1c0.1-0.1,0.2-0.2,0.2-0.3c0-0.1,0.1-0.2,0.2-0.2c0.1,0,0.1-0.1,0.1-0.1c0-0.1,0-0.2,0.1-0.2
			c0.1-0.1,0.2,0,0.3,0c0,0,0,0,0.1,0h0l0,0.1h0.1v0.2c0,0.1,0,0.1,0,0.1c0.1-0.1,0.2-0.2,0.2-0.3c0.1-0.2,0.1-0.2,0.2-0.3l-0.1-0.2
			l0.2,0l-0.1-0.1l0.3,0l0.1-0.3l0.1,0.1c0,0,0.1,0,0.1,0s0,0,0-0.1s0-0.1,0.1-0.1s0.1-0.1,0.1-0.1l0,0c0.1-0.1,0.1-0.1,0.2-0.1
			c0,0,0.1-0.1,0.1-0.1l-0.1-0.1l0.3,0c0-0.1-0.1-0.1,0-0.2c0-0.1,0.1-0.2,0.2-0.2c0.1,0,0.2-0.1,0.2-0.1l0.2-0.1l0.1,0.1
			c0.1,0.1,0.1,0.2,0.1,0.2c0,0,0.1,0,0.1,0c0.2,0,0.2-0.1,0.3-0.2c0.1-0.1,0.2-0.2,0.3-0.2c0.1,0,0.1-0.1,0.2-0.1l0.3-0.2V14.2
			C15.9,14.2,15.9,14.2,15.9,14.2z"/>
		<path class="st2" d="M14,15.3C14,15.3,14.1,15.3,14,15.3C14.1,15.3,14.1,15.3,14,15.3c-0.1,0-0.1,0-0.2,0.1c0,0,0.1,0,0.1-0.1
			C14,15.4,14,15.4,14,15.3z"/>
		<path class="st2" d="M11.8,17.3C11.8,17.3,11.7,17.4,11.8,17.3L11.8,17.3C11.7,17.4,11.8,17.4,11.8,17.3z"/>
		<path class="st2" d="M11.1,18.2c0.1-0.1,0.1-0.1,0.1-0.2c0,0,0,0,0,0l-0.1,0L11.1,18l-0.1,0.1C11.1,18.1,11.1,18.1,11.1,18.2
			C11.1,18.1,11.1,18.2,11.1,18.2z"/>
		<path class="st2" d="M14.5,14.9C14.5,14.8,14.6,14.8,14.5,14.9c0.1-0.1,0.1-0.1,0.1-0.1C14.6,14.8,14.6,14.8,14.5,14.9
			C14.5,14.8,14.5,14.8,14.5,14.9c-0.1,0-0.1,0-0.1,0.1L14.5,14.9C14.4,14.9,14.5,14.9,14.5,14.9z"/>
		<path class="st2" d="M19,21.4l0.2-0.3l0.1,0.1L19,21.4L19,21.4z"/>
		<path class="st2" d="M90.1,33.6l-0.3-0.2l0-0.1c0.1,0,0.1,0,0.2,0S90.1,33.5,90.1,33.6L90.1,33.6z"/>
	</g>
</g>
</svg>
